<svg width="172" height="184" viewBox="0 0 172 184" fill="none" xmlns="http://www.w3.org/2000/svg">
<g filter="url(#filter0_f_721_3410)">
<path d="M7.08078 4.05515C7.541 4.02255 8.24381 3.90696 8.65135 4.15683C10.1117 5.0522 11.2853 7.36722 12.4836 8.6609C13.9482 10.2421 15.6589 11.5782 17.1629 13.1248C19.2372 15.2578 33.7487 31.2079 34.7486 31.4102C37.7621 32.02 41.3635 31.6803 44.4447 31.6814L141.736 31.6729C146.787 31.6726 150.594 30.8207 154.671 34.5593C160.201 39.6315 158.665 43.67 159.041 50.3447C156.741 49.9384 148.798 50.1187 145.932 50.1219L62.6738 50.1187C60.0131 50.1213 54.6817 50.0574 52.1815 50.6759C54.5168 51.7655 55.2249 53.0896 56.9314 54.9534L62.7644 61.2347C63.9402 62.4992 65.258 63.5743 66.489 64.7787C67.7145 65.9778 68.3526 68.0304 70.2088 68.0387C75.0631 68.0602 79.9144 68.0512 84.7672 68.0512L143.223 68.0487C148.006 68.048 154.35 68.2246 159.046 67.9769C158.693 75.6081 158.965 85.7839 158.968 93.6044L158.964 127.476C158.965 133.02 159.27 138.527 158.636 144.046C158.191 147.923 150.817 151.877 150.577 152.839C150.858 153.431 152.457 154.941 153.02 155.545C155.967 158.699 158.951 161.815 161.972 164.893C163.847 166.769 165.896 168.642 167.645 170.667C167.978 171.061 168.041 171.659 167.979 172.153C167.909 172.693 167.653 173.46 167.295 173.867C165.769 175.612 164.203 177.376 162.478 178.912C161.95 179.383 160.71 180.165 159.935 179.969C159.464 179.851 158.89 179.281 158.529 178.95C155.858 176.206 153.269 173.349 150.638 170.564L134.686 153.923C131.729 150.823 129.258 147.742 126.064 144.786C122.621 141.6 119.451 137.788 116.193 134.388L19.0061 32.5313L4.76563 17.7579C3.81864 16.7858 0.732171 14.1008 0.192452 13.1808C-1.23311 10.751 5.68266 4.88349 7.08078 4.05515Z" fill="#416AC4" fill-opacity="0.6"/>
<path d="M9.07622 68.0505L26.7881 68.036C30.065 68.0337 34.1472 67.9103 37.3494 68.1554C37.9273 68.5674 40.9317 71.83 41.6564 72.581L53.6138 85.1633L96.3483 129.79L109.735 143.856C111.18 145.391 115.063 149.818 116.581 150.938L116.645 150.984C116.875 151.431 116.78 151.699 116.696 152.191C115.339 152.436 113.957 152.491 112.583 152.5C106.173 152.544 99.7546 152.511 93.3453 152.511L31.5521 152.53C27.5141 152.535 23.5248 152.639 19.3969 152.348C15.1175 152.046 10.164 147.847 9.33391 143.341C8.9466 141.238 9.11159 137.752 9.11609 135.499L9.12943 123.208L9.13113 87.3707C9.13071 81.2203 9.28365 74.127 9.07622 68.0505Z" fill="#416AC4" fill-opacity="0.6"/>
<path d="M9.36332 39.8343C10.7278 39.9807 12.6242 42.2634 13.6917 43.3335C14.8821 44.5266 16.7717 46.2829 17.5444 47.7406C18.3234 48.082 18.8081 48.2152 19.0611 49.1007C18.8722 49.6697 19.0033 49.4702 18.5649 49.8583C15.8859 50.3323 12.1194 49.9435 9.11771 50.3429C9.16436 48.701 8.92778 40.6641 9.36332 39.8343Z" fill="#416AC4" fill-opacity="0.6"/>
</g>
<defs>
<filter id="filter0_f_721_3410" x="-4" y="0" width="176" height="184" filterUnits="userSpaceOnUse" color-interpolation-filters="sRGB">
<feFlood flood-opacity="0" result="BackgroundImageFix"/>
<feBlend mode="normal" in="SourceGraphic" in2="BackgroundImageFix" result="shape"/>
<feGaussianBlur stdDeviation="2" result="effect1_foregroundBlur_721_3410"/>
</filter>
</defs>
</svg>
