<svg width="112" height="135" viewBox="0 0 112 135" fill="none" xmlns="http://www.w3.org/2000/svg">
<g filter="url(#filter0_f_721_3404)">
<path d="M48.0976 4.14819C53.0348 3.88539 58.6476 3.95564 63.5566 4.49204C64.8845 4.59204 66.5532 5.45346 67.7815 5.61165C75.0255 6.54473 81.0649 9.92769 87.0245 14.003C94.4298 19.0668 99.8723 26.7333 103.538 34.8361C104.045 35.9581 104.281 37.2697 104.653 38.4406C105.301 40.4809 106.003 42.4947 106.445 44.5935C106.76 46.1291 107.522 48.2017 107.713 49.6552C108.041 52.158 107.981 55.1651 107.982 57.7124L107.986 69.4571L107.995 80.3971C107.995 82.1717 108.062 86.1546 107.712 87.8076C107.306 89.7252 104.326 94.6427 103.053 96.3873C102.14 97.9556 97.5619 99.9026 96.9326 101.044C94.8695 104.786 93.5931 108.156 90.9321 111.673C87.1353 116.662 82.5234 120.978 77.2895 124.442C74.3611 126.403 73.6278 126.701 70.2833 127.866C66.4981 129.184 63.4948 130.101 59.4886 130.691C58.6355 130.795 57.7794 130.872 56.9216 130.923C43.7534 131.688 30.8994 126.724 21.6844 117.317C19.6921 115.264 18.0613 112.324 16.1593 110.2C13.5447 107.28 12.8353 103.454 10.5493 100.621C9.82921 99.7285 7.03015 98.1808 5.86379 97.0524C2.81944 94.2374 0.102572 89.0985 0.100277 84.8644C0.144602 73.2077 -0.268953 61.2621 0.318889 49.6409C0.479548 46.4658 3.24102 37.8283 4.37281 34.748C5.97883 30.3774 11.1011 23.0061 14.329 19.6455C18.3079 15.5025 23.4653 11.9064 28.6454 9.47717C30.1774 8.79874 32.2134 7.38964 33.8373 7.02769C38.1697 6.06212 43.7602 4.37816 48.0976 4.14819ZM17.2862 91.9966C20.6412 95.1108 19.9771 97.0678 22.0861 100.848C26.9115 109.496 33.7323 116.185 43.2086 119.412C56.3955 123.904 70.6153 119.617 79.852 109.457C82.6167 106.417 84.5766 102.928 86.5363 99.324C87.5287 97.5132 87.8077 94.5772 89.4843 93.0702C90.9907 91.7163 92.8147 91.7452 94.5153 90.5285C98.2184 86.7945 98.2966 82.6048 98.1761 77.7061C98.1477 76.5463 98.2993 74.099 97.6511 73.2024C97.4165 73.1401 97.0496 73.1046 96.8463 73.3058C95.6896 74.4348 94.5003 75.2695 93.2084 76.2176C92.6609 76.7258 92.1301 77.6396 91.62 78.1526C89.6182 80.1655 88.5745 82.9026 87.0454 85.0995C84.4457 88.8343 81.0654 91.4725 76.3857 91.7548C73.1531 91.95 70.478 92.0445 67.3067 91.3955C61.2548 90.604 59.8383 83.3639 54.2 82.8336C50.5374 82.4893 47.8505 86.8754 45.4256 89.0093C41.5975 92.378 34.9167 92.1658 30.1622 91.5585C26.7697 91.1061 25.4533 89.7369 23.1301 87.636C20.5815 85.3314 20.9609 84.6734 19.4025 82.1701C17.1939 78.6223 14.123 74.6384 10.2141 72.8843C9.90366 74.2079 9.76308 76.0338 9.85259 77.3885C10.0003 79.6226 9.50172 82.6497 10.0732 84.7916C11.1452 88.8097 13.0312 91.3662 17.2862 91.9966ZM21.1053 34.4506C20.6495 34.8458 19.9476 35.3372 19.6511 35.8595C18.5037 37.881 14.9274 51.6092 14.6501 54.2803C17.6107 55.3241 20.6036 56.4852 23.6205 57.4517C24.7248 57.8056 26.0219 57.8747 27.1794 58.1695C28.2487 58.4417 29.6181 59.1397 30.6253 59.3718C33.7485 60.0914 36.6243 60.6201 39.8077 61.0718C42.139 61.4026 44.8429 62.2328 47.3049 62.4281C51.574 62.7668 56.315 62.7825 60.5837 62.4951C62.312 62.3787 64.8909 61.694 66.6543 61.349C68.228 61.0412 69.6933 60.868 71.2271 60.584C73.3797 60.1853 75.1975 59.7228 77.3954 59.4707C79.6171 58.6979 92.1032 55.2668 92.9392 54.1347C93.5815 52.4911 92.1119 49.1149 91.6525 47.3996L89.9016 40.7654C89.3546 38.7069 88.8814 35.2179 86.5709 34.4649C82.8459 33.2509 78.5386 33.5606 74.6372 33.5609L61.7889 33.5665C50.4455 33.5728 38.869 33.4439 27.5449 33.6001C25.0269 33.7077 23.5815 34.0726 21.1053 34.4506ZM35.86 81.8939C38.3884 80.294 39.5046 78.8479 39.1461 75.8235C37.3517 73.4674 36.0999 72.5792 33.0266 72.9082C27.8497 74.3943 28.843 82.9931 35.86 81.8939ZM74.0298 82.0403C75.3992 81.8386 76.2306 81.4698 77.1007 80.2863C77.8924 79.2115 78.2195 77.8657 78.0092 76.549C77.584 73.9331 75.6805 72.5922 73.0797 72.9083C66.9967 73.5201 67.4408 81.6456 74.0298 82.0403Z" fill="#3F68C4" fill-opacity="0.6"/>
</g>
<defs>
<filter id="filter0_f_721_3404" x="-4" y="0" width="116" height="135" filterUnits="userSpaceOnUse" color-interpolation-filters="sRGB">
<feFlood flood-opacity="0" result="BackgroundImageFix"/>
<feBlend mode="normal" in="SourceGraphic" in2="BackgroundImageFix" result="shape"/>
<feGaussianBlur stdDeviation="2" result="effect1_foregroundBlur_721_3404"/>
</filter>
</defs>
</svg>
