<svg width="136" height="113" viewBox="0 0 136 113" fill="none" xmlns="http://www.w3.org/2000/svg">
<g filter="url(#filter0_f_721_3402)">
<path d="M9.29285 19.5302C11.6808 19.3783 14.4358 19.4664 16.8531 19.4683L108.874 19.469C110.777 19.4653 112.821 19.4048 114.726 19.5434C117.947 19.5517 121.464 22.8682 122.469 25.1803C122.984 26.3639 122.742 32.0075 122.742 33.5021L122.748 46.8329C122.749 49.2608 122.663 52.167 122.804 54.5643C121.167 54.3343 115.103 54.354 113.392 54.5695L113.396 35.1288C110.491 34.9713 108.626 34.4451 106.499 32.7269C104.329 30.9747 104.124 29.8237 104.109 27.4428L50.4985 27.4571C40.5075 27.4571 29.8685 27.611 19.9108 27.4455C19.9009 28.9939 19.7423 31.0251 18.4317 32.1799C15.7953 34.1468 14.192 35.0455 10.6126 35.1675C10.8126 43.1264 10.5168 51.1596 10.6413 59.126C10.6763 61.3712 10.7026 63.7046 10.6208 65.944C10.7315 65.942 10.8423 65.9409 10.953 65.9408C16.1393 65.9354 19.9043 69.3995 19.9071 73.6622C23.0232 73.5585 26.5128 73.6228 29.6628 73.6226L65.0078 73.6217C68.5596 73.6178 72.4028 73.5515 75.9264 73.6438C76.1495 76.1294 77.5765 77.7788 79.2149 79.7864C79.6953 80.3751 80.8033 80.7762 80.3725 81.4484C76.3091 81.7321 70.9211 81.6056 66.7444 81.606L21.6696 81.6082C18.5227 81.6082 13.1193 81.7479 10.1892 81.5662C8.70441 81.4826 7.25957 81.1322 5.95459 80.5395C5.39277 80.2788 4.49342 79.7489 4.08876 79.3997C3.6046 78.9819 1.57971 76.461 1.51473 76.0706C1.16496 73.9693 1.27706 71.2222 1.27613 69.0945L1.27815 36.8935C1.27849 33.4165 1.16604 29.8477 1.37019 26.3836C1.58796 22.6888 5.25117 20.3532 9.29285 19.5302Z" fill="#416AC4" fill-opacity="0.6"/>
<path d="M60.0267 35.1816C65.7547 34.4576 71.0978 36.3182 74.8828 39.8532C79.2634 44.0029 80.5852 47.3096 80.6481 52.707C80.7129 58.267 79.0039 60.8761 74.8169 65.2009C73.6727 66.3828 66.2294 65.9801 64.2558 65.973L56.0526 65.9866C54.3713 65.9881 52.7426 66.0265 51.0586 65.8887C49.1085 65.7289 48.7467 64.6949 47.7168 63.5894C45.4198 61.1235 43.9043 59.0157 43.5522 55.9063C42.8808 49.9755 43.5533 45.087 48.4195 40.4254C49.5368 39.2875 50.3251 38.7674 51.7121 37.9001C54.757 35.9963 56.2944 35.5059 60.0267 35.1816Z" fill="#416AC4" fill-opacity="0.6"/>
<path d="M14.1373 4.12986C16.9387 3.90455 23.6669 4.06609 26.733 4.06892L89.9513 4.06824C96.3894 4.06688 103.825 3.89911 110.145 4.09475C111.701 5.04676 112.08 5.49354 113.302 6.7061C113.707 9.30398 113.05 11.0874 109.643 11.7613C105.598 11.9629 99.8854 11.8271 95.7186 11.827L37.2208 11.8254C33.9155 11.8266 15.4166 12.1395 13.4703 11.5281C12.4106 11.1952 11.2258 10.5722 10.7739 9.67283C10.2402 8.61059 10.4447 7.03111 10.9514 5.97657C11.8429 5.28805 13.077 4.62569 14.1373 4.12986Z" fill="#416AC4" fill-opacity="0.6"/>
<path d="M23.7102 46.7331C26.7689 46.5594 27.4212 47.3207 29.4029 49.1144C29.6366 50.0308 29.6012 50.8437 29.5194 51.7662C28.2672 52.9457 27.5947 53.771 25.7762 54.2543C22.9509 54.4617 21.9702 53.8 20.0456 52.1882C19.898 50.7604 19.8391 50.0645 20.1353 48.6639C21.3781 47.6989 22.1299 47.2463 23.7102 46.7331Z" fill="#416AC4" fill-opacity="0.6"/>
<path d="M98.4664 46.7271C99.0784 46.6797 99.8697 46.6863 100.497 46.6768C101.825 47.2376 103.001 48.2681 104.067 49.1332C104.133 50.1506 104.111 51.0771 104.089 52.092C102.482 52.9611 102.379 53.9104 100.031 54.3429C99.9215 54.3491 99.8113 54.3519 99.7011 54.3511C97.3248 54.3497 96.1541 53.3329 94.5866 52.0507C93.8933 49.031 95.2641 47.7129 98.4664 46.7271Z" fill="#416AC4" fill-opacity="0.6"/>
<path d="M85.1768 67.5863C85.1299 67.1732 85.0519 66.557 85.0707 66.1552C85.1282 64.9953 85.7589 63.9059 86.8149 63.1428C88.2489 62.0904 89.4453 62.0501 91.2824 62.0363C92.6018 62.0264 93.9274 62.0531 95.247 62.0581L119.013 62.0605C122.268 62.0449 125.855 61.948 129.08 62.1203C130.204 62.8587 130.719 63.9408 132 64.3792V67.7289C128.847 69.4405 129.836 70.4075 128.876 73.1034C127.875 75.9154 126.261 78.6881 124.57 81.2577C123.86 82.3082 121.918 83.4557 121.339 84.7354C120.697 86.1551 123.311 88.0083 124.173 89.1311C125.858 91.3248 127.273 93.5123 128.202 96C129.014 97.8848 129.134 99.7774 130.094 101.567C130.529 102.378 130.938 102.696 132 102.869V106.515C130.519 106.979 130.086 107.448 129.372 108.544H87.8906C87.6089 107.8 86.2996 106.998 85.691 106.404C84.8564 105.591 85.1532 104.33 85.2617 103.323C85.9704 102.39 87.3456 101.613 87.7243 100.802C88.8521 98.3853 88.8134 95.2091 90.3346 92.8551C91.4302 91.2444 92.7105 89.6989 93.9501 88.1628C94.4101 87.5925 96.226 85.7897 96.0417 85.1262C95.636 83.6661 93.4757 82.3671 92.6086 81.023C91.5269 79.3461 90.1839 77.7563 89.4144 75.9583C88.445 73.8517 88.7478 71.1354 87.4015 69.3925C87.147 69.0631 85.5867 67.8978 85.1768 67.5863ZM97.5431 69.9695C98.9965 77.5068 103.443 79.7462 108.658 85.0662C109.972 84.0097 110.878 82.8919 112.037 81.9604C112.799 81.3846 113.104 80.9203 113.694 80.2593C116.807 76.7727 119.23 74.461 119.568 69.8806C113.548 69.8811 107.443 69.7378 101.42 69.8544C100.151 69.8917 98.8032 69.9108 97.5431 69.9695ZM108.876 96.9727C113.951 97.0487 114.976 101.922 119.065 100.69C120.463 99.5247 117.868 95.3679 117.105 94.1199C116.681 93.4272 115.108 92.2225 114.553 91.506C113.278 90.3058 110.152 86.2848 108.532 85.9431C107.93 86.7621 107.183 86.9635 106.468 87.668C105.745 88.3806 105.089 89.1594 104.363 89.8723C101.562 92.2788 99.9326 94.2437 98.5153 97.4324C98.1892 98.166 97.5976 99.3656 97.7153 100.178C97.7682 100.544 98.0049 100.566 98.1234 100.697C98.3948 100.995 100.666 100.689 100.859 100.601C103.957 99.1979 104.558 97.0314 108.876 96.9727Z" fill="#416AC4" fill-opacity="0.6"/>
</g>
<defs>
<filter id="filter0_f_721_3402" x="-2.75244" y="0" width="138.752" height="112.545" filterUnits="userSpaceOnUse" color-interpolation-filters="sRGB">
<feFlood flood-opacity="0" result="BackgroundImageFix"/>
<feBlend mode="normal" in="SourceGraphic" in2="BackgroundImageFix" result="shape"/>
<feGaussianBlur stdDeviation="2" result="effect1_foregroundBlur_721_3402"/>
</filter>
</defs>
</svg>
