<svg width="89" height="122" viewBox="0 0 89 122" fill="none" xmlns="http://www.w3.org/2000/svg">
<g filter="url(#filter0_f_722_3418)">
<path d="M41.3584 4.03326C42.426 3.97931 43.1868 3.99664 44.2579 4.04495C44.9507 4.84077 46.0282 5.4388 46.6524 6.30255C48.4275 8.76308 48.6502 11.0067 51.9562 11.7498C56.09 12.6789 57.7768 9.12812 61.505 9.17895C62.5187 9.18939 63.4996 9.54025 64.2909 10.1756C67.9449 13.0802 65.0123 17.9252 67.7566 20.9347C70.6652 24.1246 75.5608 20.9925 78.5616 24.4163C82.3628 28.7533 77.0729 31.3271 77.0379 35.7026C77.0025 40.1283 81.0795 40.813 83.653 43.3313C85.0843 44.7707 85.0327 46.1407 84.9804 47.925C84.1948 48.8718 83.3514 50.0663 82.3683 50.7981C80.3578 52.2717 77.8916 53.0726 77.2661 55.808C75.8528 61.9895 83.9051 64.2366 77.0135 69.8211C74.5821 70.2315 71.3434 69.7221 69.2004 70.8664C64.0211 73.6319 68.9102 81.0591 63.0622 83.6195C60.3268 84.817 57.6411 82.4683 55.1244 81.6296C48.7665 79.511 48.6131 86.3937 44.1678 88.544C37.984 90.3557 37.8998 83.4253 33.8518 81.623C29.4671 79.6708 26.6172 84.9533 22.2538 83.7198C17.3131 82.323 19.6084 76.1944 17.6049 72.6691C14.9212 67.94 8.18319 72.2934 5.7462 67.7286C3.5515 62.8808 8.16781 61.6763 7.6515 56.5955C7.07716 50.943 -0.338956 51.9458 0.0120725 46.0288C0.263533 41.7879 5.90677 41.5869 7.34746 38.1072C8.9956 34.1264 5.7281 31.5089 5.22989 27.8958C5.0925 26.815 5.54086 25.4056 5.85159 24.3242C7.26079 23.7147 8.56323 22.911 10.0856 22.6669C11.3763 22.4599 13.5753 22.7429 14.7436 22.3366C20.3675 20.3813 17.5809 15.0847 19.6436 11.2301C20.0943 10.388 20.9483 9.81468 21.8031 9.51739C26.583 7.85469 28.043 12.991 33.0959 11.6599C36.131 10.8602 36.3639 9.49066 37.7946 6.98621C38.4061 5.91545 40.1878 4.31489 41.3584 4.03326ZM26.5559 44.4949C24.2214 48.9438 27.6018 50.3379 30.1339 53.1349C31.7616 54.8159 33.1582 56.3151 34.9005 57.8416C36.3621 59.1222 37.7256 61.409 39.9661 61.4077C42.4145 61.4062 43.653 59.4028 45.1582 57.9395C46.6562 56.4831 48.1739 55.2014 49.5265 53.5885C51.2367 52.0291 52.6226 50.3225 54.2202 48.7482L59.6935 43.4026C62.884 40.2752 64.1409 39.7034 62.3421 34.9626C61.5379 34.5308 60.2529 34.1275 59.3343 34.2441C58.7018 34.3412 57.809 34.3763 57.2504 34.6915C55.6229 35.61 54.2691 37.2971 52.9629 38.6071C51.0999 40.4756 41.5547 50.454 40.3632 50.8078C39.7661 50.9851 39.1942 50.7444 38.7116 50.3972C35.8095 48.3089 33.4807 42.5365 29.2529 43.1645C28.1441 43.3292 27.4316 43.8547 26.5559 44.4949Z" fill="#4169C4" fill-opacity="0.6"/>
<path d="M72.4464 84.9594C74.1367 85.4922 77.8625 95.721 78.6614 97.771C79.76 100.59 81.8908 104.293 81.9914 107.213C79.8203 106.868 77.3609 106.79 75.0297 106.614C72.5836 106.43 68.1844 105.627 65.9368 106.504C64.4894 107.069 62.993 109.988 62.0273 111.137C60.9758 112.238 60.0118 113.026 59.1567 114.299C58.5629 115.182 56.6055 117.62 55.6924 118C53.2715 116.6 53.3357 114.725 52.4709 112.54C51.147 109.195 49.5785 105.923 48.3355 102.531C47.9064 101.361 47.4111 99.7513 46.7102 98.7528C46.6947 97.8069 46.7259 97.3074 46.8331 96.3664C48.5212 95.7851 50.5753 94.5754 51.8356 93.3269C53.243 91.9323 53.0683 89.6878 55.7316 90.9261C62.177 93.9228 69.4538 91.5357 72.4464 84.9594Z" fill="#4169C4" fill-opacity="0.6"/>
<path d="M12.0232 84.9978C12.7211 85.4426 13.0112 86.644 13.5029 87.2019C18.4584 92.8238 24.0772 93.4908 30.6279 90.2323C31.8934 92.2778 33.1429 93.4292 35.0494 94.8239C36.2922 95.733 36.1396 95.6607 37.6205 96.1928C39.0858 97.5462 37.3405 100.402 36.8262 101.895C35.2739 106.401 33.0257 110.615 31.3364 115.075C30.9938 115.979 30.3518 116.945 29.8233 117.757C29.7054 117.811 29.6094 117.852 29.48 117.87C28.3655 118.022 25.3589 113.613 24.5352 112.634C23.8153 111.778 23.0007 111.012 22.3049 110.134C21.496 109.114 20.5833 107.524 19.5268 106.774C18.8984 106.328 18.0236 106.17 17.2715 106.119C14.9709 105.966 12.5061 106.412 10.2073 106.592C7.81554 106.779 5.36206 106.785 2.99302 107.157C3.03493 104.002 4.98512 100.824 6.12066 97.8962C7.86241 93.406 9.42586 89.072 12.0232 84.9978Z" fill="#4169C4" fill-opacity="0.6"/>
</g>
<defs>
<filter id="filter0_f_722_3418" x="-4" y="0" width="93" height="122" filterUnits="userSpaceOnUse" color-interpolation-filters="sRGB">
<feFlood flood-opacity="0" result="BackgroundImageFix"/>
<feBlend mode="normal" in="SourceGraphic" in2="BackgroundImageFix" result="shape"/>
<feGaussianBlur stdDeviation="2" result="effect1_foregroundBlur_722_3418"/>
</filter>
</defs>
</svg>
