<svg width="165" height="129" viewBox="0 0 165 129" fill="none" xmlns="http://www.w3.org/2000/svg">
<g filter="url(#filter0_f_95_686)">
<path fill-rule="evenodd" clip-rule="evenodd" d="M111.535 4.31507C111.328 4.85848 111.376 68.117 111.583 68.2463C111.802 68.3831 112.943 67.2 116.15 63.5103C117.473 61.9885 121.094 57.8234 124.197 54.2546C129.526 48.125 129.838 47.7175 129.838 46.8949C129.838 46.1494 129.297 45.1574 126.074 40.0019C124.004 36.6896 122.268 33.8136 122.215 33.6109C122.116 33.2273 122.024 33.2724 127.59 30.9596L129.842 30.0239L129.785 17.0508L129.729 4.078L120.699 4.02023C112.607 3.96843 111.655 3.9992 111.535 4.31507ZM158.154 26.8788C155.459 28.0242 145.582 32.1876 137.905 35.4144C135.762 36.3151 134.009 37.1454 134.009 37.2594C134.009 37.3736 135.453 39.791 137.218 42.6315C140.117 47.2965 140.398 47.8363 140.126 48.2151C139.961 48.4455 135.976 53.052 131.27 58.4518C115.378 76.6886 111.953 80.6244 110.609 82.1964C109.872 83.0586 105.583 87.9971 101.079 93.1711C96.5747 98.3452 91.3065 104.4 89.3722 106.626C87.1491 109.184 85.7448 110.63 85.5551 110.557C85.3901 110.493 75.1701 103.392 62.8446 94.7781C50.519 86.1637 40.0335 78.8374 39.5435 78.4974C39.0534 78.1577 38.5007 77.9087 38.315 77.9441C38.0272 77.9992 0.579858 103.083 0.0271569 103.591C-0.0872026 103.696 0.167857 105.975 0.637148 109.041C1.63434 115.557 1.62841 115.527 1.94361 115.527C2.08585 115.527 2.99172 114.963 3.95665 114.274C4.92157 113.584 6.9458 112.155 8.45486 111.097C9.96392 110.039 12.779 108.049 14.7106 106.675C16.6422 105.301 20.0006 102.926 22.1736 101.398C24.3467 99.8692 27.6062 97.572 29.4171 96.2928C38.8741 89.6127 38.2656 89.9941 38.8508 90.3808C39.1416 90.5729 41.978 92.6426 45.1537 94.98C54.0678 101.541 78.3402 119.382 81.6581 121.813C82.5032 122.432 83.831 123.417 84.6086 124C85.3863 124.584 86.1357 125.033 86.2738 124.998C86.4121 124.963 90.333 120.403 94.9873 114.863C99.6413 109.324 104.329 103.746 105.404 102.468C109.064 98.1163 129.062 74.288 131.046 71.9158C132.132 70.6161 135.737 66.3285 139.057 62.3879C142.377 58.4472 145.473 54.7467 145.935 54.1649C146.618 53.3068 146.907 53.1069 147.466 53.1069C147.845 53.1069 150.811 53.4113 154.057 53.7833C157.303 54.1554 159.996 54.4219 160.042 54.3757C160.197 54.219 161.131 25.9259 160.985 25.7922C160.937 25.7486 159.663 26.2375 158.154 26.8788ZM85.6482 26.0261C85.5663 26.1085 85.5031 42.4702 85.5077 62.3852L85.5161 98.5942L86.5503 97.4762C87.6604 96.2765 102.339 79.3844 103.339 78.1566L103.939 77.4193L103.883 51.7053L103.828 25.9916L94.8123 25.9338C89.8538 25.9022 85.7299 25.9436 85.6482 26.0261ZM58.2814 55.6314V81.6238L59.1045 82.2699C59.5573 82.6254 61.508 84.0095 63.4396 85.3458C65.3712 86.6821 69.0402 89.2384 71.5929 91.0265C74.1455 92.8148 76.3436 94.2779 76.4775 94.2779C76.6548 94.2779 76.7058 85.5198 76.6652 62.0162L76.6096 29.7545L67.4455 29.6968L58.2814 29.639V55.6314ZM31.9414 57.9742C31.9414 65.767 31.9938 72.1429 32.0579 72.1429C32.122 72.1429 33.5935 71.1896 35.3278 70.0244L38.4812 67.9059L44.1989 71.9059C47.3435 74.1059 50.0214 75.9059 50.1493 75.9059C50.312 75.9059 50.3653 71.0754 50.326 59.9134L50.2696 43.9209L41.1055 43.8631L31.9414 43.8054V57.9742ZM7.57686 74.2433C7.57686 82.097 7.64732 88.5228 7.73337 88.5228C8.09313 88.5228 25.4189 76.6795 25.7062 76.237C25.9668 75.8362 26.0107 74.4151 25.9628 67.9165L25.9051 60.0794L16.741 60.0216L7.57686 59.9639V74.2433Z" fill="#416AC4" fill-opacity="0.6"/>
</g>
<defs>
<filter id="filter0_f_95_686" x="-4" y="0" width="169" height="129" filterUnits="userSpaceOnUse" color-interpolation-filters="sRGB">
<feFlood flood-opacity="0" result="BackgroundImageFix"/>
<feBlend mode="normal" in="SourceGraphic" in2="BackgroundImageFix" result="shape"/>
<feGaussianBlur stdDeviation="2" result="effect1_foregroundBlur_95_686"/>
</filter>
</defs>
</svg>
