<svg width="204" height="166" viewBox="0 0 204 166" fill="none" xmlns="http://www.w3.org/2000/svg">
<g filter="url(#filter0_f_95_585)">
<path fill-rule="evenodd" clip-rule="evenodd" d="M77.1027 11.4412L55.304 18.8671L55.0893 36.1387C54.9205 49.7271 55.1329 54.2861 56.0864 57.5177C57.3717 61.87 61.0702 68.2196 64.2738 71.5717C65.3354 72.6822 66.2034 73.7884 66.2034 74.0294C66.2034 74.7575 62.0463 73.8639 57.0503 72.0613C53.5093 70.7833 52.4468 70.1027 52.7762 69.3226C55.1466 63.7157 55.2071 63.1068 53.6158 60.9173C51.7097 58.2934 41.1325 53.9995 35.4374 53.5371C29.1287 53.0252 28.503 53.7978 13.3908 80.7615C6.02612 93.9027 0 105.262 0 106.004C0 109.214 2.37121 111.16 9.46143 113.771C20.3382 117.775 24.509 117.571 27.8652 112.87L29.5259 110.544L33.1081 111.804C37.3686 113.303 37.6398 113.597 38.8057 117.979C39.6364 121.1 39.5412 121.665 37.6164 125.035C36.4651 127.049 35.5238 129.456 35.5238 130.383C35.5238 134.456 40.1693 139.086 45.1119 139.939C47.052 140.273 47.5703 140.763 48.0241 142.688C49.3699 148.389 54.2561 151.324 61.7847 150.952C65.8013 150.753 66.3204 150.897 69.0283 152.958C71.7418 155.023 72.3029 155.178 77.093 155.178C81.8968 155.178 82.3319 155.299 83.6003 156.986C85.035 158.894 90.3732 161.166 93.4775 161.19C95.8818 161.208 100.204 159.772 102.006 158.357C103.368 157.286 103.578 157.289 106.754 158.414C114.629 161.204 122.651 158.371 124.248 152.234C124.694 150.524 125.14 150.246 127.734 150.063C133.792 149.636 138.855 146.014 138.862 142.101C138.866 140.641 139.26 140.398 142.126 140.097C148.46 139.429 152.558 135.782 152.619 130.759C152.649 128.269 152.975 127.743 155.178 126.636C158.729 124.853 160.71 122.512 161.225 119.491C161.633 117.104 161.982 116.789 165.555 115.582C167.692 114.859 169.76 114.268 170.151 114.268C170.541 114.268 171.477 115.283 172.23 116.523C173.14 118.022 174.587 119.103 176.546 119.746C179.292 120.648 179.855 120.617 184.813 119.302C187.739 118.526 191.673 117.373 193.557 116.739C197.748 115.329 200.458 112.242 199.936 109.475C199.549 107.427 178.473 64.2491 175.893 60.2184C173.155 55.9416 169.09 55.4982 159.423 58.4228C151.286 60.8837 149.691 61.7717 148.557 64.4717C147.784 66.3117 147.843 67.272 148.88 69.6619C150.355 73.0628 150.008 73.4567 143.866 75.3442C140.773 76.2944 139.989 76.314 136.791 75.5199L133.194 74.6269L135.903 71.6421C139.298 67.9031 142.487 62.366 144.105 57.4042C145.11 54.3248 145.309 50.2142 145.136 36.1983L144.921 18.8119L123.122 11.398C111.133 7.32037 100.778 3.99114 100.112 4.00002C99.4463 4.0089 89.092 7.35716 77.1027 11.4412ZM120.586 15.9958L139.85 22.5039L139.448 38.0998C139 55.4671 138.335 58.5186 133.567 65.113C129.302 71.011 127.213 72.5865 124.319 72.0873C122.995 71.859 121.911 71.5672 121.911 71.4391C121.911 71.3103 123.69 69.3587 125.865 67.102C128.04 64.8447 130.67 61.3334 131.71 59.2987C133.513 55.7735 133.602 54.8709 133.61 40.1231L133.618 24.6471L116.884 19.0085L100.151 13.3693L83.3791 19.0085L66.607 24.6478L66.3882 38.8552C66.1937 51.5074 66.3446 53.513 67.768 57.1847C69.5103 61.681 73.0279 66.4893 76.9251 69.7019C78.2943 70.8302 79.2575 71.8742 79.0662 72.0213C78.874 72.1691 77.5895 72.3873 76.2106 72.5066C74.0807 72.6911 73.2516 72.3011 70.6971 69.9086C67.1649 66.6009 64.5103 62.6622 62.5484 57.819C61.4125 55.0143 61.0613 51.2131 60.7561 38.4195L60.3775 22.5084L80.0431 15.8049C90.8593 12.1179 100.072 9.18827 100.516 9.2942C100.96 9.40012 109.992 12.416 120.586 15.9958ZM113.701 23.3564C120.659 25.6816 126.806 27.8571 127.361 28.1914C128.66 28.9728 128.754 47.0689 127.487 52.4696C125.434 61.2243 117.527 69.1856 108.466 71.6218C105.87 72.3194 102.611 73.2588 101.224 73.7091C98.9005 74.4626 98.2151 74.3453 92.4869 72.2085C81.7668 68.2088 74.7945 61.2402 72.7373 52.4696C72.2521 50.4 71.8549 44.1107 71.8549 38.4937V28.2814L84.9744 23.7794C92.1906 21.3033 98.7593 19.2438 99.5723 19.2033C100.386 19.1627 106.744 21.0312 113.701 23.3564ZM104.186 38.474L95.5839 45.1331L92.8026 42.8593C87.8204 38.788 84.0855 37.9146 79.9204 39.8472C75.6858 41.8128 74.6322 46.1746 77.6307 49.3294C80.4791 52.3263 91.1531 60.2507 92.9422 60.6973C97.1744 61.7527 99.4786 60.5526 111.716 50.9239C123.086 41.9764 123.722 41.3434 124.118 38.5863C124.491 35.9788 124.282 35.4822 122.074 33.7475C120.107 32.2024 118.928 31.8143 116.201 31.8143C112.953 31.8143 112.376 32.1339 104.186 38.474ZM117.753 37.8207C117.945 38.5983 114.59 41.677 107.269 47.4406C101.347 52.1024 96.1248 55.9162 95.6638 55.9162C95.2036 55.9162 91.9686 53.6576 88.4751 50.8973C84.1081 47.4463 82.2779 45.5638 82.6153 44.8718C83.4518 43.1606 85.0649 43.7327 89.6167 47.3537C92.0986 49.3275 94.7209 50.8421 95.6574 50.8421C96.694 50.8421 100.776 48.1135 106.574 43.5456C111.668 39.5326 116.204 36.3448 116.654 36.4628C117.102 36.5801 117.597 37.1909 117.753 37.8207ZM42.3419 60.637C45.6965 61.8383 48.4358 63.1937 48.4294 63.6497C48.4229 64.1058 42.4678 75.0392 35.196 87.9464C22.137 111.128 21.9472 111.413 19.6672 111.321C16.2901 111.184 6.45886 107.522 6.45886 106.4C6.45886 105.612 30.0547 63.0148 32.4033 59.5632C33.4924 57.9623 35.4664 58.1761 42.3419 60.637ZM169.295 61.4894C170.661 62.1719 194.019 109.663 193.506 110.714C193.024 111.701 180.218 115.726 178.861 115.317C177.754 114.983 153.972 66.9308 154.407 65.9064C154.582 65.4954 157.604 64.2497 161.125 63.1385C168.624 60.7715 168.078 60.8818 169.295 61.4894ZM34.6873 64.8383C33.993 65.8582 34.0802 66.4925 35.0813 67.6925C36.6863 69.6169 39.0785 69.6733 40.7256 67.8257C42.291 66.0701 42.2902 65.7625 40.7143 64.5237C38.9106 63.1074 35.7547 63.2723 34.6873 64.8383ZM162.279 67.3329C161.391 68.0306 160.664 68.8868 160.664 69.2357C160.664 70.0583 163.654 72.407 164.701 72.407C165.748 72.407 168.738 70.0583 168.738 69.2357C168.738 68.8868 168.011 68.0306 167.123 67.3329C166.235 66.6352 165.145 66.0644 164.701 66.0644C164.257 66.0644 163.167 66.6352 162.279 67.3329ZM55.0295 76.8462C60.945 79.0452 67.3086 79.3369 75.488 77.7855C81.1411 76.713 87.8115 76.5804 90.8229 77.4798L92.9422 78.1128L87.9487 81.7611C83.5091 85.0047 79.8469 87.2366 68.2217 93.7847C63.6029 96.3871 63.661 97.7844 68.5455 101.521C76.674 107.742 85.7325 108.304 100.92 103.53C106.176 101.877 111.293 100.728 114.389 100.506L119.382 100.148L134.86 106.988C152.832 114.93 155.013 116.2 155.013 118.718C155.013 120.618 151.866 123.148 149.503 123.148C148.813 123.148 143.032 120.846 136.657 118.033C130.282 115.22 124.486 113.008 123.777 113.118C122.081 113.38 120.728 115.122 121.305 116.302C121.557 116.817 127.021 119.56 133.448 122.396C139.876 125.232 145.359 128.012 145.633 128.573C147.269 131.921 144.954 135.199 140.955 135.199C140.081 135.199 134.259 132.945 128.015 130.19C109.371 121.964 109.005 121.83 107.292 122.55C105.378 123.355 105.324 125.19 107.177 126.445C107.954 126.971 113.567 129.608 119.65 132.306C125.732 135.003 131.152 137.629 131.693 138.141C133.101 139.474 132.906 142.69 131.342 143.919C128.916 145.825 125.209 145.1 116.26 140.969C111.597 138.817 106.765 136.43 105.522 135.663C103.956 134.698 102.006 134.237 99.1831 134.162C95.5524 134.068 94.9388 133.84 93.5801 132.085C91.3727 129.233 87.495 127.593 82.956 127.59C80.8472 127.589 79.1211 127.312 79.1211 126.976C79.1211 126.639 78.0489 125.404 76.7378 124.231C74.3472 122.092 68.9758 120.302 66.8614 120.939C66.1258 121.161 65.3984 120.545 64.7622 119.163C64.2269 118 62.7051 116.233 61.381 115.235C58.259 112.886 51.7355 112.285 47.6002 113.965C46.1034 114.573 44.772 114.818 44.6404 114.51C43.2421 111.233 41.1833 109.36 37.375 107.9C35.0627 107.014 32.9442 106.11 32.6665 105.892C32.2322 105.551 49.0599 74.944 49.6824 74.944C49.8083 74.944 52.2143 75.8003 55.0295 76.8462ZM128.128 78.4946C138.114 81.3742 142.537 81.5213 148.364 79.1669L152.616 77.45L153.329 78.8923C162.74 97.922 167.93 108.633 167.93 109.023C167.929 109.292 165.906 110.159 163.433 110.95C159.024 112.362 158.896 112.367 156.774 111.215C155.583 110.569 147.343 106.781 138.462 102.799L122.315 95.5575L115.856 95.5981C110.16 95.6342 108.205 95.997 99.305 98.6698C86.8588 102.407 82.0905 102.699 76.3849 100.072C74.3375 99.1297 72.6622 98.1351 72.6622 97.8624C72.6622 97.5903 75.1198 96.0478 78.1232 94.4361C81.1266 92.8238 87.2116 88.9105 91.6464 85.7391C106.029 75.4546 112.874 74.0947 128.128 78.4946ZM56.8097 118.754C59.8979 120.662 59.5871 123.155 55.5939 128.502C51.3302 134.211 50.2136 135.199 48.0217 135.199C45.1911 135.199 41.9826 132.841 41.9826 130.762C41.9826 129.767 43.469 126.789 45.2847 124.144C49.9181 117.396 52.5897 116.146 56.8097 118.754ZM71.3422 127C72.6041 127.779 73.4696 128.945 73.4696 129.865C73.4696 131.589 66.2308 143.332 64.1704 144.951C62.4992 146.264 57.823 146.284 56.1703 144.985C53.3825 142.795 53.766 141.271 58.9363 133.982C65.1239 125.259 66.9041 124.257 71.3422 127ZM87.3505 133.772C89.8799 136.086 89.687 137.103 85.5041 143.501C81.2735 149.97 80.0883 150.807 75.8529 150.315C74.8534 150.199 73.296 149.323 72.3918 148.368L70.748 146.633L75.0512 140.123C77.4176 136.542 79.7557 133.403 80.2465 133.147C81.9073 132.28 86.1249 132.651 87.3505 133.772ZM102.974 140.562C104.064 141.418 104.957 142.659 104.957 143.32C104.957 144.802 99.7119 152.757 97.4521 154.702C94.1912 157.51 88.002 155.682 88.002 151.912C88.002 150.041 94.7128 139.922 96.2839 139.422C98.6228 138.68 101.122 139.106 102.974 140.562ZM114.646 146.14C118.004 147.939 118.801 149.624 117.47 152.111C116.134 154.605 113.129 155.258 109.393 153.865L106.625 152.833L108.616 149.746C109.712 148.047 110.608 146.22 110.608 145.685C110.608 144.359 111.516 144.462 114.646 146.14Z" fill="#416AC4" fill-opacity="0.6"/>
</g>
<defs>
<filter id="filter0_f_95_585" x="-4" y="0" width="208" height="165.189" filterUnits="userSpaceOnUse" color-interpolation-filters="sRGB">
<feFlood flood-opacity="0" result="BackgroundImageFix"/>
<feBlend mode="normal" in="SourceGraphic" in2="BackgroundImageFix" result="shape"/>
<feGaussianBlur stdDeviation="2" result="effect1_foregroundBlur_95_585"/>
</filter>
</defs>
</svg>
