<svg width="151" height="138" viewBox="0 0 151 138" fill="none" xmlns="http://www.w3.org/2000/svg">
<g filter="url(#filter0_f_721_3411)">
<path d="M20.0455 121.619V124.714C20.0455 127.294 19.0721 129.487 17.1255 131.295C15.1789 133.102 12.8113 134.004 10.0227 134C7.23418 133.996 4.86882 133.094 2.92664 131.295C0.984454 129.495 0.00890909 127.302 0 124.714V82C0 80.7619 0.111363 79.5506 0.334091 78.3662C0.556818 77.1817 0.946591 76.02 1.50341 74.8809L14.1989 46.869C14.9784 45.1151 16.2034 43.7222 17.8739 42.6905C19.5443 41.6587 21.3818 41.1429 23.3864 41.1429H83.5227C85.5273 41.1429 87.3648 41.6587 89.0352 42.6905C90.7057 43.7222 91.9307 45.1151 92.7102 46.869L105.406 74.8809C105.962 76.0159 106.352 77.1776 106.575 78.3662C106.798 79.5548 106.909 80.766 106.909 82V124.714C106.909 127.294 105.936 129.487 103.989 131.295C102.042 133.102 99.6749 134.004 96.8864 134C94.0978 133.996 91.7325 133.094 89.7903 131.295C87.8481 129.495 86.8725 127.302 86.8636 124.714V121.619H20.0455ZM18.7091 65.9048H88.033L82.5205 53.5238H24.3886L18.7091 65.9048ZM37.171 100.342C39.1176 98.5347 40.0909 96.3413 40.0909 93.7619C40.0909 91.1825 39.1176 88.9911 37.171 87.1876C35.2243 85.3841 32.8567 84.4803 30.0682 84.4762C27.2796 84.4721 24.9143 85.3759 22.9721 87.1876C21.0299 88.9994 20.0544 91.1908 20.0455 93.7619C20.0365 96.333 21.0121 98.5265 22.9721 100.342C24.9321 102.158 27.2975 103.06 30.0682 103.048C32.8389 103.035 35.2065 102.133 37.171 100.342ZM83.9437 100.342C85.8903 98.5347 86.8636 96.3413 86.8636 93.7619C86.8636 91.1825 85.8903 88.9911 83.9437 87.1876C81.997 85.3841 79.6295 84.4803 76.8409 84.4762C74.0524 84.4721 71.687 85.3759 69.7448 87.1876C67.8026 88.9994 66.8271 91.1908 66.8182 93.7619C66.8093 96.333 67.7848 98.5265 69.7448 100.342C71.7048 102.158 74.0702 103.06 76.8409 103.048C79.6116 103.035 81.9792 102.133 83.9437 100.342ZM101.397 34.9524H41.2602C39.033 34.9524 37.3625 34.3086 36.2489 33.021C35.1352 31.7333 34.5784 30.3136 34.5784 28.7619C34.5784 27.2102 35.1352 25.7925 36.2489 24.509C37.3625 23.2256 39.033 22.5797 41.2602 22.5714H103.568C105.573 22.5714 107.41 23.0873 109.081 24.119C110.751 25.1508 111.976 26.5436 112.756 28.2976L125.451 56.3095C126.008 57.4444 126.398 58.6062 126.62 59.7948C126.843 60.9833 126.955 62.1946 126.955 63.4286V109.238C126.955 110.992 126.313 112.463 125.03 113.652C123.747 114.84 122.161 115.433 120.273 115.429C118.384 115.424 116.798 114.83 115.515 113.646C114.232 112.461 113.591 110.992 113.591 109.238V62.1905L101.397 34.9524ZM121.442 16.381H61.3057C59.0784 16.381 57.408 15.7371 56.2943 14.4495C55.1807 13.1619 54.6239 11.7422 54.6239 10.1905C54.6239 8.63873 55.1807 7.22111 56.2943 5.93762C57.408 4.65413 59.0784 4.00825 61.3057 4H123.614C125.618 4 127.456 4.51587 129.126 5.54762C130.797 6.57936 132.022 7.97222 132.801 9.72619L145.497 37.7381C146.053 38.873 146.443 40.0348 146.666 41.2233C146.889 42.4119 147 43.6232 147 44.8571V90.6667C147 92.4206 146.359 93.8919 145.076 95.0805C143.793 96.269 142.207 96.8613 140.318 96.8571C138.429 96.853 136.844 96.2587 135.561 95.0743C134.278 93.8898 133.636 92.4206 133.636 90.6667V43.619L121.442 16.381Z" fill="#416AC4" fill-opacity="0.6"/>
</g>
<defs>
<filter id="filter0_f_721_3411" x="-4" y="0" width="155" height="138" filterUnits="userSpaceOnUse" color-interpolation-filters="sRGB">
<feFlood flood-opacity="0" result="BackgroundImageFix"/>
<feBlend mode="normal" in="SourceGraphic" in2="BackgroundImageFix" result="shape"/>
<feGaussianBlur stdDeviation="2" result="effect1_foregroundBlur_721_3411"/>
</filter>
</defs>
</svg>
