<svg width="152" height="127" viewBox="0 0 152 127" fill="none" xmlns="http://www.w3.org/2000/svg">
<g filter="url(#filter0_f_721_3390)">
<path fill-rule="evenodd" clip-rule="evenodd" d="M55.7591 4.5066C33.2644 7.96543 14.749 24.4576 8.46771 46.6307C7.1684 51.2173 6.13654 58.227 6.13654 62.4691V66.1395L8.05212 66.026L9.96769 65.913L9.84911 64.5201C9.69003 62.6503 10.4179 55.3395 11.1028 51.9249C14.7201 33.895 27.7928 18.2281 44.8892 11.4332C64.2062 3.75552 86.428 8.36492 101.685 23.2141C107.785 29.1505 113.477 38.327 115.807 45.9792L116.463 48.1358L118.311 47.894C119.327 47.761 120.204 47.6154 120.259 47.5701C120.313 47.5244 119.846 45.9889 119.221 44.1573C113.646 27.8318 101.93 15.0111 86.5907 8.45141C82.3261 6.62765 76.0722 4.89224 71.7697 4.33849C67.7692 3.82367 59.6446 3.90903 55.7591 4.5066ZM63.1379 10.8956C62.3808 11.4392 62.3268 11.7612 62.3268 15.7169C62.3268 18.665 62.4658 20.0661 62.7829 20.3177C63.7312 21.0706 64.5032 21.1141 65.2917 20.4588C65.9905 19.8781 66.1014 19.4266 66.093 17.2014C66.074 12.3805 65.9762 11.4901 65.4023 10.9008C64.6806 10.1606 64.1617 10.1595 63.1379 10.8956ZM37.9534 17.8758C37.2068 18.6418 37.4564 19.6733 39.1702 22.8989C41.0048 26.3525 41.9243 27.263 43.1218 26.8115C44.6141 26.2488 44.6889 24.8515 43.3564 22.4275C40.8742 17.9113 40.4914 17.4265 39.4081 17.4265C38.8487 17.4265 38.1942 17.6287 37.9534 17.8758ZM88.0046 17.7129C87.5489 18.0184 83.8542 24.5141 83.8542 25.0095C83.8542 25.1821 84.257 25.7366 84.7496 26.242C85.4991 27.0111 85.7833 27.0964 86.4911 26.7651C87.2249 26.4221 90.2683 21.5577 90.9958 19.5655C91.4866 18.2213 89.2828 16.8562 88.0046 17.7129ZM63.1379 24.7489L62.3268 25.3315V40.4664V55.6013L60.9239 56.3359C58.0184 57.8571 56.1933 61.204 56.5946 64.2757L56.7742 65.6479L48.0563 70.7732C41.1358 74.8416 39.2917 76.088 39.1133 76.8177C38.7991 78.102 39.9189 79.3293 41.1704 79.0725C41.6849 78.9669 45.8408 76.6582 50.4057 73.9426C58.0903 69.371 58.7529 69.049 59.3436 69.5976C60.355 70.537 62.5435 71.342 64.0851 71.342C68.5092 71.342 71.8134 68.0044 71.8134 63.5362C71.8134 60.2357 70.2033 57.6403 67.2697 56.2119L65.9587 55.5732L65.9883 40.5274C66.0178 25.5243 66.0156 25.4793 65.2264 24.8234C64.2606 24.021 64.1555 24.0173 63.1379 24.7489ZM19.7098 36.5964C19.2223 37.0966 19.1395 38.3543 19.551 39.0039C19.6985 39.2364 21.2696 40.3042 23.0421 41.3766C26.5128 43.4766 27.7818 43.6369 28.355 42.0468C28.8786 40.594 28.378 39.9751 25.1179 38.0443C21.8946 36.1355 20.5183 35.7667 19.7098 36.5964ZM103.412 37.9578C100.171 39.9223 99.6973 40.4746 100.043 41.8869C100.484 43.6912 101.714 43.565 105.47 41.3294C108.319 39.6333 108.866 39.1544 108.965 38.2715C109.259 35.6574 107.383 35.5514 103.412 37.9578ZM116.333 52.4498C113.998 53.1215 112.679 53.9205 112.679 54.6637C112.679 54.9539 113.172 56.562 113.774 58.2375C115.159 62.0921 115.146 62.7907 113.742 59.9984C113.141 58.8047 112.401 57.7302 112.098 57.6107C110.668 57.0476 106.476 60.2971 106.476 61.9685C106.476 62.3587 108.241 64.7927 110.399 67.3773L114.321 72.0766L115.78 71.8029C118.066 71.3742 124.809 71.5037 125.666 71.9931C126.362 72.3903 126.731 72.0773 129.877 68.4219C135.115 62.3362 135.125 62.319 134.413 60.9052C133.719 59.5285 131.587 57.9806 129.911 57.6366C128.73 57.3943 128.726 57.3981 127.292 60.5304C126.502 62.2553 125.847 63.5478 125.835 63.4025C125.824 63.2576 126.464 61.2714 127.257 58.9889C128.05 56.7065 128.613 54.6083 128.508 54.3264C128.402 54.0444 127.466 53.4379 126.427 52.9789C123.955 51.8867 119.163 51.6355 116.333 52.4498ZM65.8452 59.9729C67.1632 60.6146 68.1647 62.1363 68.1647 63.4965C68.1647 65.6857 65.5012 67.8794 63.4141 67.4091C61.8773 67.0624 60.5024 65.233 60.5024 63.5339C60.5024 61.8438 61.3143 60.5753 62.8296 59.8988C64.2934 59.245 64.3536 59.2465 65.8452 59.9729ZM13.1421 62.0565C12.5776 62.6357 12.5776 64.3228 13.1421 64.902C13.4307 65.1982 14.9807 65.3513 17.6946 65.3513C21.6808 65.3513 21.8278 65.3221 22.4069 64.4153C22.9604 63.5482 22.9604 63.4104 22.4069 62.5432C21.8278 61.6364 21.6808 61.6072 17.6946 61.6072C14.9807 61.6072 13.4307 61.7603 13.1421 62.0565ZM-0.978458 70.7983C-5.18288 71.6007 -7.62715 72.3772 -9.97729 73.6566C-12.3639 74.9558 -13.4147 75.9929 -13.7501 77.3801C-14.2996 79.6528 -10.0784 82.5418 -3.85547 84.1521C-0.996701 84.892 0.313188 84.9912 7.23115 84.9912C14.1491 84.9912 15.459 84.892 18.3178 84.1521C24.1028 82.6552 28.3937 79.8801 28.3937 77.6358C28.3937 75.5511 23.1801 72.4641 17.4476 71.1547C13.5544 70.2655 2.8932 70.0592 -0.978458 70.7983ZM10.515 73.2496C11.6187 73.4544 12.8458 73.9512 13.2413 74.3541C13.9565 75.0812 13.9488 75.0861 12.077 75.0861C11.0408 75.0861 10.0918 74.9176 9.96769 74.7117C9.84364 74.5057 9.34157 74.3373 8.85155 74.3373C8.2112 74.3373 7.9609 74.5428 7.9609 75.0692C7.9609 75.6069 8.27542 75.8506 9.14673 75.9877C9.79876 76.0903 10.9258 76.2696 11.6508 76.3864C13.3402 76.6582 14.4618 77.8234 13.8098 78.6295C13.2953 79.2657 11.1834 79.9482 9.71995 79.9512C9.18249 79.9523 8.49653 80.2062 8.19551 80.5151C7.89449 80.824 7.46066 81.0767 7.23115 81.0767C7.00165 81.0767 6.56782 80.824 6.2668 80.5151C5.96578 80.2062 5.11563 79.9531 4.37749 79.9527C2.91874 79.9523 0.610923 78.9257 0.381054 78.175C0.173807 77.4977 3.5777 77.5857 4.47309 78.2806C5.55968 79.1238 6.50141 78.9796 6.50141 77.9702C6.50141 77.2023 6.24199 77.0645 4.07501 76.6837C2.74031 76.4493 1.38554 75.9828 1.06482 75.6473C0.528826 75.088 0.550718 74.9794 1.3279 74.3249C1.79384 73.9329 2.77899 73.5173 3.51713 73.4012C4.25563 73.2852 5.26997 73.0392 5.77167 72.855C6.27337 72.6704 7.09433 72.6 7.59603 72.6985C8.09773 72.7969 9.41126 73.0452 10.515 73.2496ZM113.56 76.1606C104.375 82.6942 97.5862 91.3468 94.7234 100.172C93.6729 103.409 93.5671 104.166 93.5463 108.596C93.5248 113.171 93.585 113.599 94.5464 115.71C96.1274 119.181 98.4746 121.289 101.905 122.319C102.513 122.502 110.895 122.65 120.533 122.649C139.918 122.646 140.447 122.591 143.366 120.287C146.467 117.839 148.318 112.672 147.955 107.473C147.16 96.0791 139.573 84.4996 127.21 75.8106C125.439 74.5656 123.99 73.6457 123.99 73.7659C123.99 73.8857 124.485 74.9902 125.09 76.2202C125.695 77.4498 126.12 78.4558 126.036 78.4558C125.951 78.4558 125.042 77.3606 124.017 76.0221C122.381 73.8861 122.003 73.5884 120.923 73.5884C120.246 73.5884 119.356 73.8831 118.946 74.2437C118.535 74.6042 117.106 77.0473 115.772 79.6726C114.437 82.298 113.267 84.4464 113.173 84.4464C113.078 84.4464 113.076 84.3199 113.167 84.1656C113.646 83.3554 117.422 73.8378 117.31 73.7228C117.237 73.6483 115.55 74.7454 113.56 76.1606ZM4.49425 74.7124C4.36983 74.9187 4.69931 75.2557 5.22618 75.4612C6.49229 75.9551 6.50141 75.9525 6.50141 75.0861C6.50141 74.5417 6.25804 74.3373 5.61076 74.3373C5.12074 74.3373 4.61831 74.5061 4.49425 74.7124ZM7.9609 78.0814C7.9609 78.6258 8.20427 78.8302 8.85155 78.8302C9.91296 78.8302 10.449 78.1312 9.74074 77.671C8.8406 77.0858 7.9609 77.2888 7.9609 78.0814ZM-13.8745 87.8569L-13.749 91.6471L-12.3395 92.8969C-5.72763 98.7591 14.8745 99.6453 24.4396 94.4788C27.9055 92.6067 28.1908 92.1129 28.3383 87.7296L28.4656 83.9578L26.8054 84.956C25.8925 85.5049 23.6807 86.4454 21.8899 87.046C11.7939 90.4314 -3.22351 89.6844 -11.4674 85.3866L-14 84.0664L-13.8745 87.8569ZM121.436 90.1944C121.436 90.8646 121.751 91.1169 123.022 91.4659C126.123 92.3169 128.132 95.3388 126.625 96.8852C125.637 97.8987 124.396 97.5389 123.438 95.9611C123.034 95.2954 122.418 94.6948 122.07 94.6259C121.514 94.5162 121.437 94.8386 121.444 97.2427L121.451 99.9846L124.089 101.295C126.476 102.481 126.792 102.77 127.414 104.336C128.891 108.059 126.962 111.937 123.142 112.924C121.477 113.354 121.436 113.401 121.436 114.818C121.436 116.022 121.31 116.272 120.706 116.272C120.101 116.272 119.977 116.022 119.977 114.807C119.977 113.391 119.928 113.334 118.525 113.091C116.528 112.744 114.818 111.484 113.988 109.746C113.364 108.437 113.346 108.183 113.818 107.317C114.108 106.785 114.723 106.294 115.184 106.226C116.092 106.092 117.422 107.091 117.422 107.905C117.422 108.584 118.749 109.906 119.429 109.906C119.872 109.906 119.977 109.308 119.977 106.764C119.977 103.648 119.968 103.62 118.973 103.369C117.118 102.901 114.977 101.35 114.368 100.034C112.695 96.4149 114.845 91.9321 118.545 91.3251C119.727 91.1312 119.977 90.9406 119.977 90.2333C119.977 89.4078 120.594 88.8694 121.162 89.1992C121.313 89.2864 121.436 89.7342 121.436 90.1944ZM117.991 95.3879C117.228 96.504 117.275 97.2577 118.179 98.4364C119.481 100.135 119.977 99.7367 119.977 96.9892C119.977 94.8289 119.897 94.5556 119.268 94.5556C118.878 94.5556 118.303 94.93 117.991 95.3879ZM-13.9186 100.047C-13.911 101.921 -13.7136 103.706 -13.4625 104.165C-12.3136 106.268 -8.01428 108.411 -2.62038 109.571C2.68996 110.712 11.6932 110.739 16.7178 109.629C22.5477 108.34 26.7759 106.3 27.8909 104.237C28.3985 103.297 28.6053 96.6414 28.1201 96.8664C27.9697 96.9365 27.0214 97.4397 26.0129 97.9848C21.637 100.35 14.9121 101.669 7.23115 101.669C-0.44976 101.669 -7.17471 100.35 -11.5506 97.9848C-12.5591 97.4397 -13.5071 96.9365 -13.6578 96.8664C-13.8084 96.7968 -13.9256 98.2278 -13.9186 100.047ZM84.7496 100.717C84.257 101.222 83.8542 101.776 83.8542 101.949C83.8542 102.444 87.5489 108.94 88.0046 109.246C89.4123 110.189 91.4618 108.745 90.9156 107.195C90.223 105.23 87.2665 100.558 86.4827 100.19C85.7844 99.8632 85.4961 99.9505 84.7496 100.717ZM41.084 100.827C40.109 101.971 37.5155 107.131 37.5155 107.927C37.5155 108.977 38.3664 109.61 39.5832 109.465C40.4345 109.365 40.915 108.797 42.5245 105.991C44.4769 102.587 44.7976 101.429 44.0102 100.621C43.3651 99.9591 41.725 100.075 41.084 100.827ZM121.436 107.098C121.436 110.169 121.836 110.62 123.26 109.158C124.275 108.117 124.2 106.344 123.094 105.209C121.679 103.757 121.436 104.034 121.436 107.098ZM63.0449 106.549C62.3735 107.238 62.3129 107.707 62.4063 111.5C62.5037 115.465 62.5548 115.713 63.3608 116.124C65.569 117.252 66.5429 115.292 66.2411 110.328C66.0766 107.617 65.9233 107.024 65.241 106.457C64.2161 105.606 63.953 105.617 63.0449 106.549ZM32.4073 111.096V113.495L34.6878 114.847C43.464 120.049 51.5525 122.48 61.4536 122.891C70.7706 123.278 78.5194 121.941 86.5499 118.561C88.5341 117.725 90.2201 116.978 90.296 116.9C90.612 116.576 89.5327 112.886 89.1704 113.052C80.9287 116.812 76.1996 118.208 69.3451 118.904C56.7603 120.183 44.601 116.959 33.4107 109.377L32.4073 108.697V111.096ZM-13.9314 112.854V116.4L-12.3369 117.968C-5.51272 124.677 19.975 124.677 26.7992 117.968L28.3937 116.4V112.966C28.3937 111.077 28.3069 109.532 28.2007 109.532C28.0949 109.532 27.0211 110.043 25.8148 110.668C16.3938 115.548 -1.43528 115.564 -11.1525 110.7L-13.9314 109.309V112.854Z" fill="#416AC4" fill-opacity="0.6"/>
</g>
<defs>
<filter id="filter0_f_721_3390" x="-18" y="0" width="170" height="127" filterUnits="userSpaceOnUse" color-interpolation-filters="sRGB">
<feFlood flood-opacity="0" result="BackgroundImageFix"/>
<feBlend mode="normal" in="SourceGraphic" in2="BackgroundImageFix" result="shape"/>
<feGaussianBlur stdDeviation="2" result="effect1_foregroundBlur_721_3390"/>
</filter>
</defs>
</svg>
