<svg width="492" height="647" viewBox="0 0 492 647" fill="none" xmlns="http://www.w3.org/2000/svg">
<g filter="url(#filter0_d_107_425)">
<mask id="path-1-inside-1_107_425" fill="white">
<path d="M21.9 241.898C21.9 118.188 122.187 17.9004 245.898 17.9004C369.609 17.9004 469.896 118.188 469.896 241.898C469.896 365.609 369.609 465.897 245.898 465.897C122.187 465.897 21.9 365.609 21.9 241.898Z"/>
</mask>
<path d="M21.9 241.898M469.896 241.898M469.896 241.898M21.9 241.898M245.898 17.9004M469.896 241.898M245.898 465.897M21.9 241.898M245.898 465.897V464.719C122.838 464.719 23.0774 364.959 23.0774 241.898H21.9H20.7227C20.7227 366.259 121.537 467.074 245.898 467.074V465.897ZM469.896 241.898H468.719C468.719 364.959 368.959 464.719 245.898 464.719V465.897V467.074C370.259 467.074 471.074 366.259 471.074 241.898H469.896ZM245.898 17.9004V19.0777C368.959 19.0777 468.719 118.838 468.719 241.898H469.896H471.074C471.074 117.538 370.259 16.7231 245.898 16.7231V17.9004ZM245.898 17.9004V16.7231C121.537 16.7231 20.7227 117.538 20.7227 241.898H21.9H23.0774C23.0774 118.838 122.838 19.0777 245.898 19.0777V17.9004Z" fill="#112250" mask="url(#path-1-inside-1_107_425)"/>
<mask id="path-3-inside-2_107_425" fill="white">
<path d="M53.8905 241.898C53.8905 135.855 139.855 49.8906 245.898 49.8906C351.941 49.8906 437.906 135.855 437.906 241.898C437.906 347.941 351.941 433.906 245.898 433.906C139.855 433.906 53.8905 347.941 53.8905 241.898Z"/>
</mask>
<path d="M53.8905 241.898M437.906 241.898M437.906 241.898M53.8905 241.898M245.898 49.8906M437.906 241.898M245.898 433.906M53.8905 241.898M245.898 433.906V432.728C140.505 432.728 55.0678 347.291 55.0678 241.898H53.8905H52.7132C52.7132 348.591 139.205 435.083 245.898 435.083V433.906ZM437.906 241.898H436.728C436.728 347.291 351.291 432.728 245.898 432.728V433.906V435.083C352.591 435.083 439.083 348.591 439.083 241.898H437.906ZM245.898 49.8906V51.068C351.291 51.068 436.728 136.506 436.728 241.898H437.906H439.083C439.083 135.205 352.591 48.7133 245.898 48.7133V49.8906ZM245.898 49.8906V48.7133C139.205 48.7133 52.7132 135.205 52.7132 241.898H53.8905H55.0678C55.0678 136.506 140.505 51.068 245.898 51.068V49.8906Z" fill="#112250" mask="url(#path-3-inside-2_107_425)"/>
<mask id="path-5-inside-3_107_425" fill="white">
<path d="M85.8995 241.899C85.8995 153.534 157.533 81.9004 245.898 81.9004C334.263 81.9004 405.897 153.534 405.897 241.899C405.897 330.264 334.263 401.898 245.898 401.898C157.533 401.898 85.8995 330.264 85.8995 241.899Z"/>
</mask>
<path d="M85.8995 241.899M405.897 241.899M405.897 241.899M85.8995 241.899M245.898 81.9004M405.897 241.899M245.898 401.898M85.8995 241.899M245.898 401.898V400.72C158.184 400.72 87.0769 329.614 87.0769 241.899H85.8995H84.7222C84.7222 330.914 156.883 403.075 245.898 403.075V401.898ZM405.897 241.899H404.719C404.719 329.614 333.613 400.72 245.898 400.72V401.898V403.075C334.913 403.075 407.074 330.914 407.074 241.899H405.897ZM245.898 81.9004V83.0777C333.613 83.0777 404.719 154.184 404.719 241.899H405.897H407.074C407.074 152.884 334.913 80.7231 245.898 80.7231V81.9004ZM245.898 81.9004V80.7231C156.883 80.7231 84.7222 152.884 84.7222 241.899H85.8995H87.0769C87.0769 154.184 158.184 83.0777 245.898 83.0777V81.9004Z" fill="#112250" mask="url(#path-5-inside-3_107_425)"/>
<mask id="path-7-inside-4_107_425" fill="white">
<path d="M117.89 241.899C117.89 171.202 175.201 113.891 245.898 113.891C316.595 113.891 373.906 171.202 373.906 241.899C373.906 312.596 316.595 369.907 245.898 369.907C175.201 369.907 117.89 312.596 117.89 241.899Z"/>
</mask>
<path d="M117.89 241.899M373.906 241.899M373.906 241.899M117.89 241.899M245.898 113.891M373.906 241.899M245.898 369.907M117.89 241.899M245.898 369.907V368.729C175.851 368.729 119.067 311.945 119.067 241.899H117.89H116.713C116.713 313.246 174.551 371.084 245.898 371.084V369.907ZM373.906 241.899H372.729C372.729 311.945 315.945 368.729 245.898 368.729V369.907V371.084C317.245 371.084 375.084 313.246 375.084 241.899H373.906ZM245.898 113.891V115.068C315.945 115.068 372.729 171.852 372.729 241.899H373.906H375.084C375.084 170.552 317.245 112.713 245.898 112.713V113.891ZM245.898 113.891V112.713C174.551 112.713 116.713 170.552 116.713 241.899H117.89H119.067C119.067 171.852 175.851 115.068 245.898 115.068V113.891Z" fill="#62748E" mask="url(#path-7-inside-4_107_425)"/>
<mask id="path-9-inside-5_107_425" fill="white">
<path d="M197.894 241.89C197.894 215.383 219.382 193.895 245.889 193.895C272.396 193.895 293.884 215.383 293.884 241.89C293.884 268.396 272.396 289.885 245.889 289.885C219.382 289.885 197.894 268.396 197.894 241.89Z"/>
</mask>
<path d="M197.894 241.89C197.894 215.383 219.382 193.895 245.889 193.895C272.396 193.895 293.884 215.383 293.884 241.89C293.884 268.396 272.396 289.885 245.889 289.885C219.382 289.885 197.894 268.396 197.894 241.89Z" fill="#62748E"/>
<path d="M197.894 241.89M293.884 241.89M293.884 241.89M197.894 241.89M245.889 193.895M293.884 241.89M245.889 289.885M197.894 241.89M245.889 289.885V288.707C220.032 288.707 199.071 267.746 199.071 241.89H197.894H196.717C196.717 269.047 218.732 291.062 245.889 291.062V289.885ZM293.884 241.89H292.707C292.707 267.746 271.746 288.707 245.889 288.707V289.885V291.062C273.046 291.062 295.061 269.047 295.061 241.89H293.884ZM245.889 193.895V195.072C271.746 195.072 292.707 216.033 292.707 241.89H293.884H295.061C295.061 214.732 273.046 192.717 245.889 192.717V193.895ZM245.889 193.895V192.717C218.732 192.717 196.717 214.732 196.717 241.89H197.894H199.071C199.071 216.033 220.032 195.072 245.889 195.072V193.895Z" fill="white" fill-opacity="0.3" mask="url(#path-9-inside-5_107_425)"/>
<path d="M261.878 243.889C261.878 253.888 254.879 258.888 246.56 261.787C246.124 261.935 245.651 261.928 245.22 261.767C236.881 258.888 229.881 253.888 229.881 243.889V229.891C229.881 229.36 230.092 228.852 230.467 228.477C230.842 228.102 231.351 227.891 231.881 227.891C235.881 227.891 240.88 225.491 244.36 222.451C244.784 222.09 245.322 221.891 245.88 221.891C246.437 221.891 246.976 222.09 247.4 222.451C250.899 225.511 255.879 227.891 259.878 227.891C260.409 227.891 260.917 228.102 261.292 228.477C261.667 228.852 261.878 229.36 261.878 229.891V243.889Z" stroke="white" stroke-width="3.99958" stroke-linecap="round" stroke-linejoin="round"/>
<rect width="448" height="2" transform="translate(246.79 243.314) rotate(115.74)" fill="url(#paint0_linear_107_425)"/>
<mask id="path-12-inside-6_107_425" fill="white">
<path d="M371.57 74.1621C371.57 66.4301 377.838 60.1621 385.57 60.1621H407.57C415.302 60.1621 421.57 66.4301 421.57 74.1621V96.1621C421.57 103.894 415.302 110.162 407.57 110.162H385.57C377.838 110.162 371.57 103.894 371.57 96.1621V74.1621Z"/>
</mask>
<path d="M371.57 74.1621C371.57 66.4301 377.838 60.1621 385.57 60.1621H407.57C415.302 60.1621 421.57 66.4301 421.57 74.1621V96.1621C421.57 103.894 415.302 110.162 407.57 110.162H385.57C377.838 110.162 371.57 103.894 371.57 96.1621V74.1621Z" fill="#00C950" fill-opacity="0.2"/>
<path d="M385.57 60.1621V61.3394H407.57V60.1621V58.9848H385.57V60.1621ZM421.57 74.1621H420.393V96.1621H421.57H422.747V74.1621H421.57ZM407.57 110.162V108.985H385.57V110.162V111.339H407.57V110.162ZM371.57 96.1621H372.747V74.1621H371.57H370.393V96.1621H371.57ZM385.57 110.162V108.985C378.488 108.985 372.747 103.244 372.747 96.1621H371.57H370.393C370.393 104.544 377.188 111.339 385.57 111.339V110.162ZM421.57 96.1621H420.393C420.393 103.244 414.652 108.985 407.57 108.985V110.162V111.339C415.952 111.339 422.747 104.544 422.747 96.1621H421.57ZM407.57 60.1621V61.3394C414.652 61.3394 420.393 67.0803 420.393 74.1621H421.57H422.747C422.747 65.7799 415.952 58.9848 407.57 58.9848V60.1621ZM385.57 60.1621V58.9848C377.188 58.9848 370.393 65.7799 370.393 74.1621H371.57H372.747C372.747 67.0803 378.488 61.3394 385.57 61.3394V60.1621Z" fill="#05DF72" fill-opacity="0.3" mask="url(#path-12-inside-6_107_425)"/>
<path d="M396.57 95.3242C402.014 95.3242 406.427 90.8493 406.427 85.3291C406.427 79.809 402.014 75.334 396.57 75.334C391.126 75.334 386.713 79.809 386.713 85.3291C386.713 90.8493 391.126 95.3242 396.57 95.3242Z" stroke="#05DF72" stroke-width="1.99902" stroke-linecap="round" stroke-linejoin="round"/>
<path d="M393.613 85.3291L395.584 87.3281L399.527 83.3301" stroke="#05DF72" stroke-width="1.99902" stroke-linecap="round" stroke-linejoin="round"/>
<mask id="path-16-inside-7_107_425" fill="white">
<path d="M69.895 375.086C69.895 367.354 76.163 361.086 83.895 361.086H105.895C113.627 361.086 119.895 367.354 119.895 375.086V397.086C119.895 404.818 113.627 411.086 105.895 411.086H83.895C76.163 411.086 69.895 404.818 69.895 397.086V375.086Z"/>
</mask>
<path d="M69.895 375.086C69.895 367.354 76.163 361.086 83.895 361.086H105.895C113.627 361.086 119.895 367.354 119.895 375.086V397.086C119.895 404.818 113.627 411.086 105.895 411.086H83.895C76.163 411.086 69.895 404.818 69.895 397.086V375.086Z" fill="#FB2C36" fill-opacity="0.2"/>
<path d="M83.895 361.086V362.263H105.895V361.086V359.909H83.895V361.086ZM119.895 375.086H118.718V397.086H119.895H121.072V375.086H119.895ZM105.895 411.086V409.909H83.895V411.086V412.263H105.895V411.086ZM69.895 397.086H71.0724V375.086H69.895H68.7177V397.086H69.895ZM83.895 411.086V409.909C76.8133 409.909 71.0724 404.168 71.0724 397.086H69.895H68.7177C68.7177 405.468 75.5128 412.263 83.895 412.263V411.086ZM119.895 397.086H118.718C118.718 404.168 112.977 409.909 105.895 409.909V411.086V412.263C114.277 412.263 121.072 405.468 121.072 397.086H119.895ZM105.895 361.086V362.263C112.977 362.263 118.718 368.004 118.718 375.086H119.895H121.072C121.072 366.704 114.277 359.909 105.895 359.909V361.086ZM83.895 361.086V359.909C75.5128 359.909 68.7177 366.704 68.7177 375.086H69.895H71.0724C71.0724 368.004 76.8133 362.263 83.895 362.263V361.086Z" fill="#FF6467" fill-opacity="0.3" mask="url(#path-16-inside-7_107_425)"/>
<path d="M104.486 392.249L96.6004 378.256C96.4284 377.948 96.1791 377.692 95.8778 377.514C95.5765 377.336 95.234 377.242 94.8852 377.242C94.5365 377.242 94.194 377.336 93.8927 377.514C93.5914 377.692 93.342 377.948 93.1701 378.256L85.2844 392.249C85.1106 392.554 85.0195 392.9 85.0203 393.253C85.021 393.605 85.1137 393.951 85.2888 394.256C85.4639 394.56 85.7153 394.812 86.0175 394.986C86.3197 395.16 86.6619 395.25 87.0094 395.247H102.781C103.127 395.247 103.466 395.154 103.766 394.979C104.065 394.803 104.314 394.551 104.487 394.247C104.659 393.943 104.75 393.598 104.75 393.248C104.75 392.897 104.659 392.553 104.486 392.249Z" stroke="#FF6467" stroke-width="1.99902" stroke-linecap="round" stroke-linejoin="round"/>
<path d="M94.895 383.254V387.252" stroke="#FF6467" stroke-width="1.99902" stroke-linecap="round" stroke-linejoin="round"/>
<path d="M94.895 391.25H94.905" stroke="#FF6467" stroke-width="1.99902" stroke-linecap="round" stroke-linejoin="round"/>
<mask id="path-21-inside-8_107_425" fill="white">
<path d="M63.5564 159.898C63.5564 152.166 69.8244 145.898 77.5564 145.898H99.5564C107.288 145.898 113.556 152.166 113.556 159.898V181.898C113.556 189.63 107.288 195.898 99.5564 195.898H77.5564C69.8244 195.898 63.5564 189.63 63.5564 181.898V159.898Z"/>
</mask>
<path d="M63.5564 159.898C63.5564 152.166 69.8244 145.898 77.5564 145.898H99.5564C107.288 145.898 113.556 152.166 113.556 159.898V181.898C113.556 189.63 107.288 195.898 99.5564 195.898H77.5564C69.8244 195.898 63.5564 189.63 63.5564 181.898V159.898Z" fill="#FE9A00" fill-opacity="0.2"/>
<path d="M77.5564 145.898V147.076H99.5564V145.898V144.721H77.5564V145.898ZM113.556 159.898H112.379V181.898H113.556H114.734V159.898H113.556ZM99.5564 195.898V194.721H77.5564V195.898V197.076H99.5564V195.898ZM63.5564 181.898H64.7337V159.898H63.5564H62.3791V181.898H63.5564ZM77.5564 195.898V194.721C70.4746 194.721 64.7337 188.98 64.7337 181.898H63.5564H62.3791C62.3791 190.281 69.1742 197.076 77.5564 197.076V195.898ZM113.556 181.898H112.379C112.379 188.98 106.638 194.721 99.5564 194.721V195.898V197.076C107.939 197.076 114.734 190.281 114.734 181.898H113.556ZM99.5564 145.898V147.076C106.638 147.076 112.379 152.817 112.379 159.898H113.556H114.734C114.734 151.516 107.939 144.721 99.5564 144.721V145.898ZM77.5564 145.898V144.721C69.1742 144.721 62.3791 151.516 62.3791 159.898H63.5564H64.7337C64.7337 152.817 70.4746 147.076 77.5564 147.076V145.898Z" fill="#FFB900" fill-opacity="0.3" mask="url(#path-21-inside-8_107_425)"/>
<path d="M78.7605 171.412C78.6783 171.188 78.6783 170.941 78.7605 170.717C79.5606 168.749 80.9187 167.067 82.6627 165.884C84.4066 164.7 86.4579 164.068 88.5564 164.068C90.655 164.068 92.7063 164.7 94.4502 165.884C96.1942 167.067 97.5523 168.749 98.3524 170.717C98.4346 170.941 98.4346 171.188 98.3524 171.412C97.5523 173.379 96.1942 175.061 94.4502 176.245C92.7063 177.428 90.655 178.06 88.5564 178.06C86.4579 178.06 84.4066 177.428 82.6627 176.245C80.9187 175.061 79.5606 173.379 78.7605 171.412Z" stroke="#FFB900" stroke-width="1.99902" stroke-linecap="round" stroke-linejoin="round"/>
<path d="M88.5564 174.063C90.1895 174.063 91.5135 172.721 91.5135 171.065C91.5135 169.409 90.1895 168.066 88.5564 168.066C86.9232 168.066 85.5992 169.409 85.5992 171.065C85.5992 172.721 86.9232 174.063 88.5564 174.063Z" stroke="#FFB900" stroke-width="1.99902" stroke-linecap="round" stroke-linejoin="round"/>
</g>
<defs>
<filter id="filter0_d_107_425" x="2.47955e-05" y="0.000391006" width="491.796" height="672.761" filterUnits="userSpaceOnUse" color-interpolation-filters="sRGB">
<feFlood flood-opacity="0" result="BackgroundImageFix"/>
<feColorMatrix in="SourceAlpha" type="matrix" values="0 0 0 0 0 0 0 0 0 0 0 0 0 0 0 0 0 0 127 0" result="hardAlpha"/>
<feOffset dy="4"/>
<feGaussianBlur stdDeviation="10.95"/>
<feComposite in2="hardAlpha" operator="out"/>
<feColorMatrix type="matrix" values="0 0 0 0 0 0 0 0 0 0.0482475 0 0 0 0 0.175962 0 0 0 1 0"/>
<feBlend mode="normal" in2="BackgroundImageFix" result="effect1_dropShadow_107_425"/>
<feBlend mode="normal" in="SourceGraphic" in2="effect1_dropShadow_107_425" result="shape"/>
</filter>
<linearGradient id="paint0_linear_107_425" x1="0" y1="1" x2="448" y2="1" gradientUnits="userSpaceOnUse">
<stop stop-opacity="0"/>
<stop offset="0.5" stop-color="#05DF72"/>
<stop offset="1" stop-opacity="0"/>
</linearGradient>
</defs>
</svg>
