<svg width="492" height="560" viewBox="0 0 492 560" fill="none" xmlns="http://www.w3.org/2000/svg">
<path d="M848.523 130.122C827.321 -64.3389 703.723 -10.9708 389.546 210.518C389.546 174.71 359.188 82.9844 237.758 2.5429C85.9705 -98.009 177.766 170.206 43.5662 173.641C-90.6335 177.077 121.147 482.398 237.758 411.851C354.37 341.304 428.336 371.768 361.357 573.1C294.377 774.433 664.932 613.413 597.712 552.944C530.492 492.476 1152.1 536.224 876.712 411.851C601.326 287.478 869.725 324.584 848.523 130.122Z" stroke="white" stroke-opacity="0.2"/>
<path d="M583.238 409.982C639.412 388.045 613.189 359.232 520.955 293.154C531.625 290.166 556.422 274.339 570.251 234.941C587.537 185.693 515.282 232.787 503.052 196.953C490.822 161.118 417.53 243.604 448.288 269.103C479.047 294.602 476.147 317.053 410.562 315.829C344.977 314.605 423.9 400.904 436.305 377.764C448.709 354.624 487.582 525.587 501.645 441.083C515.708 356.58 527.065 431.919 583.238 409.982Z" stroke="white" stroke-opacity="0.2"/>
<path d="M391.062 213.187C694.492 5.34768 813.384 -44.117 830.89 142.171C848.397 328.459 592.389 289.521 853.838 412.025C1115.29 534.53 521.778 484.707 585.169 543.412C648.56 602.117 292.102 751.39 358.976 559.66C425.85 367.931 355.586 337.842 243.129 403.828C130.671 469.815 -67.4166 175.038 60.8994 173.473C189.216 171.908 105.282 -85.8354 248.934 12.2967C363.855 90.8025 391.57 178.934 391.062 213.187Z" stroke="white" stroke-opacity="0.2"/>
<path d="M392.445 215.593C685.67 21.6517 800.067 -23.8511 813.908 154.038C827.749 331.927 583.676 291.208 831.651 411.692C1079.63 532.176 513.161 476.346 572.836 533.216C632.51 590.085 289.512 727.435 356.402 545.54C423.292 363.644 356.604 333.966 248.1 395.315C139.597 456.663 -45.1488 172.788 77.5121 173.094C200.173 173.401 123.955 -73.5594 259.725 22.0327C368.342 98.5064 393.462 182.937 392.445 215.593Z" stroke="white" stroke-opacity="0.2"/>
<path d="M393.978 218.252C676.439 37.9804 786.123 -3.6145 796.269 166.08C806.416 335.774 574.746 293.23 808.773 411.83C1042.8 530.429 504.461 468.536 560.304 523.634C616.147 578.732 287.265 704.322 354.044 532.051C420.823 359.779 357.84 330.48 253.497 387.262C149.154 444.044 -21.8926 170.747 94.8783 172.923C211.649 175.099 143.294 -61.3601 270.923 31.8C373.026 106.328 395.502 187.154 393.978 218.252Z" stroke="white" stroke-opacity="0.2"/>
<path d="M395.048 220.399C667.016 53.5931 772.091 15.8598 778.555 177.559C785.018 339.259 565.529 294.834 785.832 411.694C1006.14 528.554 495.407 460.511 547.472 513.905C599.537 567.298 284.456 681.267 351.188 518.419C417.919 355.571 358.58 326.613 258.298 378.894C158.015 431.174 0.500481 168.129 111.494 172.181C222.487 176.232 161.928 -50.0063 281.538 40.8343C377.226 113.507 397.082 190.824 395.048 220.399Z" stroke="white" stroke-opacity="0.2"/>
<path d="M396.946 223.044C658.41 69.9479 758.875 36.1326 761.653 189.606C764.431 343.08 557.131 296.833 763.701 411.792C970.271 526.75 487.173 452.643 535.458 504.257C583.743 555.87 282.474 658.048 349.156 504.857C415.839 351.667 360.147 323.091 263.929 370.792C167.71 418.494 23.7368 166.074 128.948 171.998C234.159 177.921 181.401 -37.7745 292.986 50.6197C382.255 121.335 399.488 195.034 396.946 223.044Z" stroke="white" stroke-opacity="0.2"/>
<path d="M398.518 225.675C649.168 86.3083 744.901 56.415 743.994 201.643C743.086 346.871 548.219 298.809 740.814 411.85C933.409 524.891 478.511 444.731 522.959 494.558C567.408 544.385 280.309 634.76 346.861 491.246C413.414 347.733 361.434 319.543 269.394 362.66C177.354 405.776 47.0886 164.015 146.393 171.809C245.698 179.603 200.799 -25.5208 304.23 60.415C386.975 129.164 401.566 199.234 398.518 225.675Z" stroke="white" stroke-opacity="0.2"/>
<path d="M399.991 228.291C640.41 102.672 731.634 76.7049 727.037 213.663C722.44 350.621 539.555 300.754 718.62 411.856C897.684 522.958 469.932 436.766 510.647 484.797C551.362 532.828 277.765 611.388 344.344 477.575C410.922 343.762 362.534 315.964 274.459 354.49C186.383 393.015 69.5255 161.954 163.154 171.617C256.783 181.279 219.642 -13.2387 315.157 70.2228C391.569 136.992 403.551 203.422 399.991 228.291Z" stroke="white" stroke-opacity="0.2"/>
<path d="M401.61 230.878C631.159 119.03 717.632 96.9916 709.357 225.65C701.082 354.308 530.665 302.651 695.724 411.785C860.783 520.919 461.313 428.725 498.186 474.948C535.059 521.172 275.691 587.908 342.119 463.823C408.547 339.738 363.88 312.339 280.003 346.267C196.126 380.196 92.9874 159.89 180.691 171.416C268.395 182.942 239.111 -0.926235 326.456 80.0402C396.332 144.813 405.674 207.588 401.61 230.878Z" stroke="white" stroke-opacity="0.2"/>
<path d="M403.156 233.712C622.435 135.486 704.384 117.348 692.409 237.875C680.434 358.402 522.04 304.889 673.524 412.198C825.008 519.508 452.777 421.19 485.904 465.667C519.031 510.143 273.214 565.144 339.666 450.623C406.117 336.102 365.054 309.066 285.156 338.443C205.258 367.819 115.569 157.978 197.578 171.382C279.586 184.787 258.082 11.327 337.486 89.9047C401.009 152.767 407.734 211.969 403.156 233.712Z" stroke="white" stroke-opacity="0.2"/>
<path d="M405.211 236.217C613.858 151.818 691.145 137.615 675.486 249.755C659.827 361.895 513.723 306.644 651.374 411.896C789.025 517.147 444.66 412.926 473.983 455.561C503.307 498.195 271.451 541.349 337.82 436.635C404.188 331.921 366.798 305.307 291.012 330.071C215.226 354.834 139.146 155.908 215.32 171.16C291.495 186.412 277.815 23.7308 349.141 99.7501C406.202 160.566 410.297 216.068 405.211 236.217Z" stroke="white" stroke-opacity="0.2"/>
<path d="M406.765 238.457C604.946 167.625 677.634 157.315 658.276 261.41C638.919 365.506 504.989 308.348 628.916 411.863C752.842 515.379 436.07 404.937 461.613 445.859C487.157 486.781 269.076 518.221 335.415 422.994C401.755 327.766 368.009 301.492 296.274 321.719C224.539 341.946 162.009 153.326 232.411 170.473C302.813 187.62 296.947 35.2191 360.252 108.912C410.895 167.867 412.362 219.84 406.765 238.457Z" stroke="white" stroke-opacity="0.2"/>
<path d="M409.096 241.383C596.598 184.199 664.607 177.798 641.572 273.758C618.536 369.717 496.926 310.688 606.994 412.391C717.062 514.094 428.226 397.493 449.961 436.671C471.696 475.849 267.627 495.525 333.866 409.873C400.104 324.22 370.04 298.306 302.433 313.972C234.826 329.637 185.915 151.48 250.468 170.513C315.02 189.546 316.977 47.5574 372.19 118.867C416.361 175.916 415.199 224.314 409.096 241.383Z" stroke="white" stroke-opacity="0.2"/>
<path d="M411.469 244.176C588.048 200.715 651.293 198.232 624.622 285.938C597.952 373.644 488.805 312.813 584.89 412.581C680.976 512.35 420.42 389.727 438.326 427.112C456.232 464.498 266.432 472.382 332.475 396.411C398.518 320.44 372.168 294.917 308.777 306C245.386 317.084 210.13 149.605 268.755 170.503C327.38 191.401 337.136 59.997 384.2 128.838C421.851 183.911 418.067 228.677 411.469 244.176Z" stroke="white" stroke-opacity="0.2"/>
<path d="M414.215 246.927C580.667 217.201 639.432 218.633 609.002 298.03C578.573 377.427 481.401 314.843 563.932 412.604C646.463 510.364 413.023 381.822 427.178 417.389C441.333 452.956 264.95 449.06 331.097 382.815C397.244 316.569 374.492 291.455 315.031 297.955C255.57 304.454 233.817 147.767 286.777 170.512C339.737 193.256 357.341 72.522 396.464 138.845C427.763 191.903 421.339 233.007 414.215 246.927Z" stroke="white" stroke-opacity="0.2"/>
<path d="M417.644 250.052C573.178 233.992 627.184 239.342 593.138 310.62C559.091 381.898 474.36 317.412 542.94 413.399C611.521 509.386 406.311 374.615 416.646 408.449C426.982 442.284 264.854 426.596 330.793 369.918C396.732 313.239 377.686 288.475 322.438 290.406C267.19 292.337 259.048 146.066 306.091 170.711C353.134 195.356 378.506 85.0031 409.5 148.967C434.295 200.138 425.261 237.678 417.644 250.052Z" stroke="white" stroke-opacity="0.2"/>
<path d="M421.722 252.878C566.904 250.526 616.347 259.774 578.564 322.713C540.782 385.651 468.177 319.468 523.064 413.378C577.95 507.288 400.213 366.72 406.77 398.715C413.326 430.711 264.862 403.29 330.829 356.352C396.796 309.414 381.386 285.077 330.149 282.436C278.913 279.796 284.344 144.398 325.642 170.865C366.941 197.331 400.167 97.7034 423.148 159.107C441.534 208.23 429.858 242.089 421.722 252.878Z" stroke="white" stroke-opacity="0.2"/>
<path d="M427.57 256.015C562.002 267.335 606.747 280.489 565.331 335.207C523.916 389.924 463.637 321.942 504.678 413.93C545.719 505.918 395.944 359.34 398.702 389.552C401.46 419.764 267.067 380.591 332.882 343.298C398.698 306.004 386.966 282.055 339.881 274.848C292.796 267.642 311.787 142.878 347.227 171.204C382.668 199.53 423.658 110.444 438.564 169.39C450.489 216.548 436.203 246.789 427.57 256.015Z" stroke="white" stroke-opacity="0.2"/>
<path d="M448.503 258.982C572.158 284.077 612.2 301.207 567.18 347.914C522.16 394.621 474.197 324.533 501.416 414.996C528.635 505.459 406.803 352.206 405.774 380.76C404.745 409.314 284.438 358.174 350.073 330.397C415.709 302.619 407.649 278.954 364.724 267.133C321.799 255.312 354.299 140.673 383.884 170.99C413.469 201.307 462.182 122.41 469.03 179.15C474.508 224.542 457.628 251.284 448.503 258.982Z" stroke="white" stroke-opacity="0.2"/>
<path d="M472.406 264.971C585.944 303.781 621.493 324.828 572.614 363.288C523.735 401.747 487.849 329.857 501.368 418.389C514.887 506.922 420.384 347.645 415.554 374.409C410.724 401.173 303.87 338.246 369.687 320.144C435.503 302.041 431.077 278.765 392.085 262.364C353.093 245.963 399.309 141.993 423.189 174.175C447.069 206.357 503.788 138.036 502.6 192.311C501.649 235.73 482.075 258.842 472.406 264.971Z" stroke="white" stroke-opacity="0.2"/>
<path d="M496.679 278.869C599.388 331.292 630.22 356.208 577.777 386.372C525.334 416.536 501.76 342.975 501.478 429.425C501.196 515.874 434.638 350.872 426.032 375.802C417.426 400.733 324.7 326.161 390.293 317.741C455.886 309.322 455.128 286.476 420.312 265.536C385.497 244.596 445.164 151.454 463.185 185.438C481.206 219.423 545.594 161.774 536.365 213.492C528.983 254.867 506.831 274.316 496.679 278.869Z" stroke="white" stroke-opacity="0.2"/>
</svg>
