<svg width="353" height="560" viewBox="0 0 353 560" fill="none" xmlns="http://www.w3.org/2000/svg">
<path d="M200.884 786.195C395.003 762.057 339.773 639.279 113.562 328.485C149.366 327.944 240.623 296.204 319.22 173.572C417.467 20.282 150.67 116.12 145.207 -18.0128C139.744 -152.145 -162.341 64.2241 -90.0408 179.756C-17.7402 295.289 -47.0824 369.707 -249.404 305.777C-451.726 241.848 -285.125 609.927 -225.679 541.801C-166.233 473.675 -200.584 1095.87 -80.3862 818.638C39.8113 541.403 6.76534 810.333 200.884 786.195Z" stroke="white" stroke-opacity="0.22"/>
<path d="M-82.9517 525.169C-60.1684 581.005 -31.7545 554.349 32.9218 461.128C36.0713 471.751 52.2709 496.306 91.8733 509.539C141.376 526.079 93.1964 454.544 128.842 441.773C164.487 429.003 80.9038 356.966 55.8724 388.106C30.841 419.247 8.34842 416.686 8.58161 351.09C8.8148 285.494 -76.2819 365.712 -52.9573 377.766C-29.6326 389.819 -199.988 431.271 -115.282 444.055C-30.5761 456.84 -105.735 469.334 -82.9517 525.169Z" stroke="white" stroke-opacity="0.22"/>
<path d="M110.916 330.04C323.317 630.295 374.572 748.426 188.57 768.745C2.56787 789.065 37.6326 532.497 -80.907 795.767C-199.447 1059.04 -158.598 464.844 -216.338 529.115C-274.078 593.386 -428.721 239.224 -236.003 303.193C-43.2844 367.163 -14.2603 296.452 -81.9389 185.004C-149.617 73.5567 142.133 -128.963 145.637 -0.68485C149.14 127.593 405.586 39.7746 309.636 184.893C232.876 300.987 145.173 330.03 110.916 330.04Z" stroke="white" stroke-opacity="0.22"/>
<path d="M108.533 331.459C306.883 621.72 354.109 735.417 176.45 751.944C-1.20995 768.471 35.8167 523.811 -80.907 773.579C-197.631 1023.35 -150.366 456.102 -206.327 516.629C-262.289 577.156 -404.806 236.273 -221.92 300.406C-39.0351 364.54 -10.3682 297.411 -73.3492 189.847C-136.33 82.2823 144.721 -106.731 146.268 15.9202C147.815 138.572 393.596 58.6305 300.066 195.83C225.242 305.589 141.201 331.983 108.533 331.459Z" stroke="white" stroke-opacity="0.22"/>
<path d="M105.897 333.033C290.416 612.738 333.663 721.781 164.142 734.491C-5.38008 747.2 33.6589 514.914 -81.3911 750.706C-196.441 986.498 -142.689 447.286 -196.937 503.955C-251.185 560.624 -381.73 233.677 -208.469 297.846C-35.2088 362.014 -6.864 298.596 -65.2164 195.123C-123.569 91.6491 147.113 -83.5074 146.701 33.283C146.29 150.073 381.689 78.1533 290.468 207.175C217.491 310.392 137.014 334.088 105.897 333.033Z" stroke="white" stroke-opacity="0.22"/>
<path d="M103.766 334.136C274.663 603.552 313.979 708.046 152.396 716.952C-9.18784 725.858 31.9155 505.722 -81.6023 727.766C-195.12 949.81 -134.802 438.111 -187.403 490.977C-240.004 543.844 -358.721 230.521 -194.883 294.783C-31.0447 359.046 -2.98703 299.277 -56.7766 199.796C-110.566 100.315 150.068 -61.1565 147.694 49.8854C145.321 160.927 370.618 96.9564 281.595 217.925C210.377 314.701 133.368 335.722 103.766 334.136Z" stroke="white" stroke-opacity="0.22"/>
<path d="M101.15 336.073C258.179 595.194 293.508 695.136 140.094 700.233C-13.3204 705.33 29.7893 497.354 -82.0347 705.638C-193.859 913.922 -127.06 429.759 -177.938 478.818C-228.816 527.878 -335.535 228.187 -181.354 292.547C-27.1731 356.907 0.557616 300.79 -48.592 205.303C-97.7416 109.816 152.474 -37.9546 148.141 67.3341C143.808 172.623 358.681 116.611 271.983 229.52C202.625 319.847 129.195 338.191 101.15 336.073Z" stroke="white" stroke-opacity="0.22"/>
<path d="M98.5416 337.684C241.68 586.199 273.016 681.47 127.791 682.757C-17.4341 684.044 27.6787 488.473 -82.4393 682.754C-192.557 877.034 -119.281 420.977 -168.43 466.174C-217.58 511.37 -312.282 225.669 -167.78 290.045C-23.2768 354.422 4.12387 302.022 -40.3783 210.644C-84.8804 119.266 154.885 -14.6375 148.592 84.7737C142.299 184.185 346.721 136.192 262.358 240.909C194.868 324.683 125.026 340.331 98.5416 337.684Z" stroke="white" stroke-opacity="0.22"/>
<path d="M95.9507 339.198C225.187 577.691 252.53 668.513 115.518 665.986C-21.4936 663.458 25.6047 479.841 -82.7791 660.564C-191.163 841.287 -111.444 412.281 -158.854 453.717C-206.264 495.153 -288.95 222.774 -154.146 287.324C-19.3422 351.873 7.72123 303.07 -32.1307 215.587C-71.9826 128.104 157.286 7.76776 149.039 101.532C140.793 195.296 334.727 155.22 252.718 251.985C187.111 329.397 120.87 342.382 95.9507 339.198Z" stroke="white" stroke-opacity="0.22"/>
<path d="M93.387 340.855C208.691 568.688 232.034 654.818 103.265 648.488C-25.5032 642.158 23.5722 470.98 -83.0554 637.669C-189.683 804.358 -103.535 403.541 -149.196 441.108C-194.857 478.675 -265.505 220.345 -140.43 284.891C-15.3551 349.437 11.3656 304.36 -23.8264 221.006C-59.0185 137.651 159.704 31.195 149.505 119.063C139.305 206.931 322.71 174.872 243.072 263.43C179.362 334.278 116.736 344.566 93.387 340.855Z" stroke="white" stroke-opacity="0.22"/>
<path d="M90.5773 342.443C192.105 560.214 211.48 641.879 90.7851 631.726C-29.9093 621.574 21.2044 462.39 -83.8039 615.478C-188.812 768.566 -96.1299 394.892 -140.101 428.687C-184.072 462.482 -242.78 217.525 -127.269 282.238C-11.7569 346.952 14.6554 305.485 -15.9248 226.04C-46.505 146.595 161.957 53.7457 149.793 135.947C137.629 218.148 310.744 194.026 233.375 274.608C171.48 339.074 112.387 346.692 90.5773 342.443Z" stroke="white" stroke-opacity="0.22"/>
<path d="M88.1041 344.536C175.647 551.884 191.016 628.947 78.6518 614.984C-33.7119 601.021 19.3252 454.099 -83.8345 593.325C-186.994 732.551 -87.9887 386.65 -130.175 416.614C-172.362 446.579 -219.014 215.402 -113.309 280.18C-7.60409 344.959 18.442 307.171 -7.46403 231.768C-33.3701 156.364 164.384 77.2869 150.285 153.683C136.185 230.08 298.641 213.943 223.709 286.41C163.762 344.383 108.328 349.316 88.1041 344.536Z" stroke="white" stroke-opacity="0.22"/>
<path d="M85.8862 346.123C159.705 543.212 171.112 615.735 66.7359 597.953C-37.6402 580.17 17.4874 445.392 -84.1436 570.869C-185.775 696.345 -80.1318 377.94 -120.663 404.099C-161.195 430.258 -195.926 212.677 -99.7075 277.57C-3.48855 342.463 22.2722 308.324 0.963629 236.903C-20.345 165.481 167.309 100.109 151.228 170.762C135.147 241.414 287.441 233.247 214.713 297.658C156.531 349.186 104.586 351.438 85.8862 346.123Z" stroke="white" stroke-opacity="0.22"/>
<path d="M82.997 348.499C143.007 535.116 150.435 603.021 54.1385 581.438C-42.1581 559.855 15.0268 437.367 -85.0013 548.959C-185.029 660.551 -72.8066 369.985 -111.651 392.31C-150.496 414.635 -173.253 210.887 -86.6102 275.824C0.0330531 340.76 25.4899 310.308 8.80462 242.945C-7.88066 175.583 169.518 123.985 151.462 188.818C133.406 253.651 275.408 253.462 204.941 309.747C148.567 354.775 100.156 354.343 82.997 348.499Z" stroke="white" stroke-opacity="0.22"/>
<path d="M80.2396 350.914C126.364 526.817 129.802 590.017 41.703 564.675C-46.3959 539.332 12.7791 429.278 -85.5263 526.861C-183.832 624.443 -65.1595 362.064 -102.27 380.533C-139.381 399.001 -150.132 209.342 -73.1719 274.23C3.7882 339.118 28.9107 312.385 16.8707 249.168C4.83069 185.952 171.758 148.169 151.748 207.103C131.738 266.038 263.274 273.806 195.152 321.905C140.654 360.384 95.8363 357.278 80.2396 350.914Z" stroke="white" stroke-opacity="0.22"/>
<path d="M77.5306 353.701C109.768 519.684 109.224 578.464 29.3765 549.238C-50.4713 520.011 10.6368 421.906 -85.8654 505.904C-182.368 589.903 -57.3673 354.547 -92.7166 369.238C-128.066 383.929 -126.836 207.507 -59.598 272.645C7.63956 337.784 32.4068 314.655 25.0094 255.299C17.612 195.943 173.952 171.825 152.011 225.123C130.07 278.421 251.056 294.198 185.332 334.319C132.752 366.415 91.5561 360.614 77.5306 353.701Z" stroke="white" stroke-opacity="0.22"/>
<path d="M74.4586 357.176C92.8672 512.45 88.3338 566.53 16.5491 533.565C-55.2355 500.599 7.96349 414.903 -86.9765 484.926C-181.917 554.949 -50.2611 347.726 -83.9357 358.572C-117.61 369.417 -104.374 207.071 -46.706 272.146C10.9625 337.221 35.4365 317.803 32.6709 262.59C29.9053 207.378 176.037 197.027 152.105 244.437C128.174 291.847 238.897 315.549 175.409 347.505C124.618 373.071 86.9459 364.605 74.4586 357.176Z" stroke="white" stroke-opacity="0.22"/>
<path d="M71.6939 361.298C76.24 506.428 67.7394 556.005 4.2372 519.178C-59.265 482.351 5.81419 408.754 -87.256 465.053C-180.326 521.353 -42.4594 341.512 -74.3521 348.551C-106.245 355.59 -81.0704 206.728 -33.1412 271.979C14.788 337.23 38.8894 321.453 40.7557 270.183C42.622 218.912 178.086 222.296 152.246 263.99C126.407 305.684 226.525 337.4 165.476 361.307C116.637 380.433 82.6049 369.27 71.6939 361.298Z" stroke="white" stroke-opacity="0.22"/>
<path d="M68.6456 367.192C59.3576 501.78 46.8817 546.718 -8.45573 506.134C-63.7931 465.55 3.27117 404.251 -88.0862 446.677C-179.444 489.103 -35.1463 337.13 -65.3127 340.345C-95.479 343.56 -58.3421 208.589 -20.0582 273.834C18.2258 339.079 41.9949 326.986 48.4893 279.798C54.9836 232.609 180.02 249.712 152.233 285.577C124.445 321.442 214.141 361.081 155.426 376.876C108.454 389.512 78.0008 375.685 68.6456 367.192Z" stroke="white" stroke-opacity="0.22"/>
<path d="M65.9958 388.167C42.7721 512.188 26.2483 552.484 -21.1335 508.175C-68.5152 463.866 0.839663 414.849 -89.2017 443.432C-179.243 472.015 -27.8486 347.881 -56.4146 347.283C-84.9806 346.686 -35.6646 225.62 -6.89861 290.828C21.8674 356.037 45.408 347.619 56.5794 304.521C67.7507 261.423 182.868 292.187 153.001 322.227C123.134 352.266 202.758 399.781 146.128 407.486C100.824 413.65 73.8299 397.175 65.9958 388.167Z" stroke="white" stroke-opacity="0.22"/>
<path d="M60.3673 412.158C23.2772 526.269 2.7694 562.132 -36.4244 513.84C-75.6181 465.548 -4.27793 428.579 -92.5963 443.434C-180.915 458.29 -23.084 361.39 -49.9176 356.965C-76.7512 352.54 -15.4466 244.748 3.64862 310.283C22.7438 375.819 45.9498 371.042 61.7598 331.806C77.5698 292.57 182.226 337.21 150.409 361.574C118.592 385.938 187.761 441.618 133.475 441.25C90.0464 440.955 66.6413 421.732 60.3673 412.158Z" stroke="white" stroke-opacity="0.22"/>
<path d="M46.8383 436.639C-4.02609 540.129 -28.474 571.334 -59.4271 519.353C-90.3801 467.371 -17.1836 442.689 -103.627 443.713C-190.071 444.738 -26.0938 375.694 -51.1512 367.466C-76.2087 359.237 -3.0466 265.395 6.36321 330.853C15.773 396.312 38.6044 395.208 59.0162 360.08C79.428 324.952 173.461 383.205 139.753 401.738C106.044 420.271 164.659 483.78 112.807 475.334C71.3262 468.577 51.5442 446.722 46.8383 436.639Z" stroke="white" stroke-opacity="0.22"/>
</svg>
