<svg width="1411" height="1325" viewBox="0 0 1411 1325" fill="none" xmlns="http://www.w3.org/2000/svg">
<g opacity="0.49">
<path d="M122.013 14.3367C122.013 14.3367 719.178 -37.3846 428.388 95.7319C428.388 95.7319 -558.172 236.739 -103.395 221.804C-103.395 221.804 1380.56 123.495 705.331 301.76C705.331 301.76 -1134.86 492.977 -454.152 578.482M-454.092 592.696C-454.092 592.696 1851.58 289.622 1127.45 594.733C1127.45 594.733 -745.537 747.626 -247.115 757.081" stroke="white" stroke-opacity="0.18" stroke-width="1.5"/>
<path d="M135.813 12.6999C135.813 12.6999 724.625 -54.5508 441.558 86.5143C441.558 86.5143 -529.322 253.376 -80.0781 226.702C-80.0781 226.702 1384.15 89.9107 722.415 286.164C722.415 286.164 -1090.96 525.35 -414.879 593.67M-414.338 607.933C-414.338 607.933 1855.58 244.53 1149.79 569.34C1149.79 569.34 -697.316 770.907 -204.083 767.588" stroke="white" stroke-opacity="0.18" stroke-width="1.5"/>
<path d="M149.629 11.0903C149.629 11.0903 730.088 -71.6899 454.743 77.3237C454.743 77.3237 -500.455 270.04 -56.7447 231.627C-56.7447 231.627 1387.75 56.3532 739.516 270.595C739.516 270.595 -1047.04 557.75 -375.59 608.885M-374.569 623.197C-374.569 623.197 1859.6 199.464 1172.15 543.973C1172.15 543.973 -649.078 794.214 -161.035 778.123" stroke="white" stroke-opacity="0.18" stroke-width="1.5"/>
<path d="M163.461 9.51215C163.461 9.51215 735.567 -88.7975 467.944 68.1646C467.944 68.1646 -471.572 286.736 -33.3953 236.584C-33.3953 236.584 1391.36 22.8272 756.632 255.057C756.632 255.057 -1003.11 590.181 -336.285 624.131M-334.783 638.493C-334.783 638.493 1863.63 154.43 1194.52 518.638C1194.52 518.638 -600.824 817.554 -117.971 788.689" stroke="white" stroke-opacity="0.18" stroke-width="1.5"/>
<path d="M174.974 11.9496C174.974 11.9496 738.727 -101.89 478.827 63.0211C478.827 63.0211 -445.008 307.447 -12.3648 245.556C-12.3648 245.556 1392.66 -6.68327 771.429 243.535C771.429 243.535 -961.491 626.628 -299.299 643.393M-297.316 657.805C-297.316 657.805 1865.35 113.411 1214.57 497.319C1214.57 497.319 -554.888 844.909 -77.2255 803.271" stroke="white" stroke-opacity="0.18" stroke-width="1.5"/>
<path d="M183.753 19.116C183.753 19.116 739.152 -110.253 486.975 62.6066C486.975 62.6066 -421.179 332.887 5.9315 259.257C5.9315 259.257 1391.22 -31.4646 783.492 236.742C783.492 236.742 -922.609 667.804 -265.047 667.384M-262.584 681.845C-262.584 681.845 1864.33 77.1221 1231.88 480.728C1231.88 480.728 -511.688 876.992 -39.2146 822.581" stroke="white" stroke-opacity="0.18" stroke-width="1.5"/>
<path d="M192.556 26.3168C192.556 26.3168 739.602 -118.581 495.147 62.2265C495.147 62.2265 -397.325 358.362 24.2515 272.993C24.2515 272.993 1389.8 -56.2116 795.579 229.984C795.579 229.984 -883.703 709.014 -230.771 691.409M-227.827 705.92C-227.827 705.92 1863.33 40.867 1249.23 464.172C1249.23 464.172 -468.463 909.111 -1.17992 841.926" stroke="white" stroke-opacity="0.18" stroke-width="1.5"/>
<path d="M201.392 33.5576C201.392 33.5576 740.085 -126.87 503.352 61.8864C503.352 61.8864 -373.439 383.877 42.6045 286.769C42.6045 286.769 1388.42 -80.9188 807.699 223.265C807.699 223.265 -844.765 750.265 -196.462 715.475M-193.038 730.035C-193.038 730.035 1862.37 4.6519 1266.6 447.656C1266.6 447.656 -425.205 941.269 36.8877 861.311" stroke="white" stroke-opacity="0.18" stroke-width="1.5"/>
<path d="M210.261 40.8429C210.261 40.8429 740.601 -135.114 511.59 61.5906C511.59 61.5906 -349.519 409.436 60.9915 300.589C60.9915 300.589 1387.08 -105.581 819.853 216.591C819.853 216.591 -805.792 791.559 -162.12 739.585M-158.215 754.194C-158.215 754.194 1861.44 -31.5188 1284.01 431.185C1284.01 431.185 -381.914 973.472 74.9893 880.741" stroke="white" stroke-opacity="0.18" stroke-width="1.5"/>
<path d="M219.172 48.1652C219.172 48.1652 741.158 -143.321 519.87 61.332C519.87 61.332 -325.558 435.032 79.419 314.446C79.419 314.446 1385.77 -130.207 832.047 209.954C832.047 209.954 -766.779 832.891 -127.736 763.732M-123.351 778.39C-123.351 778.39 1860.55 -67.6524 1301.46 414.75C1301.46 414.75 -338.582 1005.71 113.131 900.207" stroke="white" stroke-opacity="0.18" stroke-width="1.5"/>
</g>
</svg>
