<svg width="1231" height="545" viewBox="0 0 1231 545" fill="none" xmlns="http://www.w3.org/2000/svg">
<g opacity="0.49">
<path d="M-20.9816 194.784C-20.9816 194.784 469.539 -149.703 284.857 111.393C284.857 111.393 -497.63 728.564 -111.795 487.367C-111.795 487.367 1122.32 -342.549 627.8 150.571C627.8 150.571 -867.784 1239.66 -236.123 971.919M-228.936 984.183C-228.936 984.183 1613.09 -435.299 1139.95 192.073C1139.95 192.073 -403.236 1264.47 32.5916 1022.46" stroke="white" stroke-opacity="0.18" stroke-width="1.5"/>
<path d="M-9.868 186.442C-9.868 186.442 465.633 -167.283 291.62 96.8113C291.62 96.8113 -464.327 728.472 -89.1693 479.899C-89.1693 479.899 1108.56 -373.394 634.747 128.507C634.747 128.507 -813.563 1245.62 -194.532 965.342M-186.905 977.407C-186.905 977.407 1593.91 -476.307 1146.52 158.897C1146.52 158.897 -349.843 1260.41 75.0835 1009.95" stroke="white" stroke-opacity="0.18" stroke-width="1.5"/>
<path d="M1.27219 178.115C1.27219 178.115 461.753 -184.848 298.409 82.2445C298.409 82.2445 -430.997 728.395 -66.5175 472.447C-66.5175 472.447 1094.83 -404.223 641.721 106.458C641.721 106.458 -759.316 1251.6 -152.916 958.781M-144.848 970.647C-144.848 970.647 1574.77 -517.3 1153.12 125.738C1153.12 125.738 -296.424 1256.35 117.602 997.455" stroke="white" stroke-opacity="0.18" stroke-width="1.5"/>
<path d="M12.4447 169.803C12.4447 169.803 457.906 -202.399 305.23 67.692C305.23 67.692 -397.634 728.332 -43.8334 465.009C-43.8334 465.009 1081.13 -435.038 648.726 84.424C648.726 84.424 -705.036 1257.59 -111.266 952.233M-102.758 963.901C-102.758 963.901 1555.65 -558.278 1159.76 92.5923C1159.76 92.5923 -242.973 1252.31 160.153 984.973" stroke="white" stroke-opacity="0.18" stroke-width="1.5"/>
<path d="M23.6251 166.133C23.6251 166.133 454.067 -215.307 312.06 57.7823C312.06 57.7823 -364.264 732.913 -21.1414 462.214C-21.1414 462.214 1067.43 -461.211 655.74 67.0325C655.74 67.0325 -650.749 1268.22 -69.6094 950.328M-60.6609 961.798C-60.6609 961.798 1536.54 -594.614 1166.4 64.0897C1166.4 64.0897 -189.514 1252.91 202.712 977.133" stroke="white" stroke-opacity="0.18" stroke-width="1.5"/>
<path d="M34.8149 167.924C34.8149 167.924 450.237 -222.754 318.899 53.3338C318.899 53.3338 -330.884 742.954 1.55998 464.88C1.55998 464.88 1053.75 -481.922 662.764 55.1022C662.764 55.1022 -596.452 1284.32 -27.943 953.885M-18.554 965.156C-18.554 965.156 1517.44 -625.488 1173.05 41.0481C1173.05 41.0481 -136.045 1258.98 245.28 974.755" stroke="white" stroke-opacity="0.18" stroke-width="1.5"/>
<path d="M46.0451 169.734C46.0451 169.734 446.447 -230.182 325.778 48.9038C325.778 48.9038 -297.464 753.014 24.3018 467.565C24.3018 467.565 1040.11 -502.615 669.827 43.1905C669.827 43.1905 -542.114 1300.43 13.7638 957.46M23.5933 968.532C23.5933 968.532 1498.39 -656.344 1179.73 18.0253C1179.73 18.0253 -82.5364 1265.06 287.888 972.395" stroke="white" stroke-opacity="0.18" stroke-width="1.5"/>
<path d="M57.3214 171.566C57.3214 171.566 442.704 -237.588 332.704 44.4956C332.704 44.4956 -263.998 763.096 47.0897 470.271C47.0897 470.271 1026.51 -523.286 676.937 31.3004C676.937 31.3004 -487.731 1316.57 55.5167 961.057M65.7867 971.931C65.7867 971.931 1479.37 -687.178 1186.47 -4.97596C1186.47 -4.97596 -28.9814 1271.16 330.543 970.057" stroke="white" stroke-opacity="0.18" stroke-width="1.5"/>
<path d="M68.6507 173.411C68.6507 173.411 439.013 -244.982 339.682 40.1C339.682 40.1 -230.479 773.191 69.9307 472.99C69.9307 472.99 1012.97 -543.944 684.1 19.4231C684.1 19.4231 -433.294 1332.72 97.3226 964.666M108.033 975.341C108.033 975.341 1460.42 -718 1193.26 -27.9644C1193.26 -27.9644 24.6267 1277.28 373.251 967.732" stroke="white" stroke-opacity="0.18" stroke-width="1.5"/>
<path d="M80.0323 175.271C80.0323 175.271 435.375 -252.36 346.713 35.7204C346.713 35.7204 -196.907 783.301 92.8238 475.725C92.8238 475.725 999.475 -564.587 691.314 7.56168C691.314 7.56168 -378.806 1348.88 139.181 968.292M150.332 978.768C150.332 978.768 1441.51 -748.805 1200.1 -50.9369C1200.1 -50.9369 78.287 1283.41 416.011 965.422" stroke="white" stroke-opacity="0.18" stroke-width="1.5"/>
</g>
</svg>
