<svg width="27" height="27" viewBox="0 0 27 27" fill="none" xmlns="http://www.w3.org/2000/svg">
<path d="M13.1938 24.1885C19.266 24.1885 24.1885 19.266 24.1885 13.1938C24.1885 7.12168 19.266 2.19922 13.1938 2.19922C7.12168 2.19922 2.19922 7.12168 2.19922 13.1938C2.19922 19.266 7.12168 24.1885 13.1938 24.1885Z" stroke="white" stroke-width="2.19893" stroke-linecap="round" stroke-linejoin="round"/>
<path d="M13.1935 19.7912C16.8368 19.7912 19.7902 16.8377 19.7902 13.1944C19.7902 9.55113 16.8368 6.59766 13.1935 6.59766C9.55016 6.59766 6.59668 9.55113 6.59668 13.1944C6.59668 16.8377 9.55016 19.7912 13.1935 19.7912Z" stroke="white" stroke-width="2.19893" stroke-linecap="round" stroke-linejoin="round"/>
<path d="M13.1931 15.392C14.4075 15.392 15.392 14.4075 15.392 13.1931C15.392 11.9786 14.4075 10.9941 13.1931 10.9941C11.9786 10.9941 10.9941 11.9786 10.9941 13.1931C10.9941 14.4075 11.9786 15.392 13.1931 15.392Z" stroke="white" stroke-width="2.19893" stroke-linecap="round" stroke-linejoin="round"/>
</svg>
