<svg width="27" height="27" viewBox="0 0 27 27" fill="none" xmlns="http://www.w3.org/2000/svg">
<path d="M13.1934 7.69727V23.0898" stroke="white" stroke-width="2.19893" stroke-linecap="round" stroke-linejoin="round"/>
<path d="M3.29868 19.7908C3.00709 19.7908 2.72743 19.675 2.52124 19.4688C2.31505 19.2626 2.19922 18.9829 2.19922 18.6913V4.39829C2.19922 4.1067 2.31505 3.82704 2.52124 3.62085C2.72743 3.41466 3.00709 3.29883 3.29868 3.29883H8.796C9.96239 3.29883 11.081 3.76217 11.9058 4.58693C12.7305 5.41169 13.1939 6.5303 13.1939 7.69668C13.1939 6.5303 13.6572 5.41169 14.482 4.58693C15.3067 3.76217 16.4253 3.29883 17.5917 3.29883H23.089C23.3806 3.29883 23.6603 3.41466 23.8665 3.62085C24.0727 3.82704 24.1885 4.1067 24.1885 4.39829V18.6913C24.1885 18.9829 24.0727 19.2626 23.8665 19.4688C23.6603 19.675 23.3806 19.7908 23.089 19.7908H16.4922C15.6175 19.7908 14.7785 20.1383 14.1599 20.7569C13.5414 21.3754 13.1939 22.2144 13.1939 23.0892C13.1939 22.2144 12.8464 21.3754 12.2278 20.7569C11.6092 20.1383 10.7703 19.7908 9.89547 19.7908H3.29868Z" stroke="white" stroke-width="2.19893" stroke-linecap="round" stroke-linejoin="round"/>
</svg>
