<svg width="24" height="24" viewBox="0 0 24 24" fill="none" xmlns="http://www.w3.org/2000/svg">
<path d="M15.4697 12.8828L16.984 21.4047C17.0009 21.505 16.9868 21.6081 16.9436 21.7003C16.9004 21.7924 16.83 21.8691 16.742 21.9202C16.654 21.9713 16.5525 21.9943 16.451 21.9861C16.3496 21.9779 16.253 21.9389 16.1743 21.8744L12.5961 19.1887C12.4234 19.0597 12.2135 18.99 11.9979 18.99C11.7823 18.99 11.5724 19.0597 11.3997 19.1887L7.81542 21.8734C7.73678 21.9378 7.64037 21.9767 7.53905 21.9849C7.43774 21.9931 7.33633 21.9702 7.24836 21.9193C7.1604 21.8683 7.09005 21.7918 7.04672 21.6998C7.00338 21.6079 6.98911 21.5049 7.00582 21.4047L8.51908 12.8828" stroke="#99A1AF" stroke-width="1.99902" stroke-linecap="round" stroke-linejoin="round"/>
<path d="M11.9941 13.9941C15.3062 13.9941 17.9912 11.3092 17.9912 7.99707C17.9912 4.68498 15.3062 2 11.9941 2C8.68205 2 5.99707 4.68498 5.99707 7.99707C5.99707 11.3092 8.68205 13.9941 11.9941 13.9941Z" stroke="#99A1AF" stroke-width="1.99902" stroke-linecap="round" stroke-linejoin="round"/>
</svg>
