<svg width="12" height="12" viewBox="0 0 12 12" fill="none" xmlns="http://www.w3.org/2000/svg">
<g clip-path="url(#clip0_110_639)">
<path d="M5.59473 3.26367V9.79132" stroke="#4A5565" stroke-width="0.932521" stroke-linecap="round" stroke-linejoin="round"/>
<path d="M1.39888 8.39234C1.27522 8.39234 1.15662 8.34322 1.06918 8.25578C0.981741 8.16834 0.932617 8.04974 0.932617 7.92608V1.8647C0.932617 1.74104 0.981741 1.62244 1.06918 1.535C1.15662 1.44756 1.27522 1.39844 1.39888 1.39844H3.73018C4.22482 1.39844 4.6992 1.59493 5.04896 1.9447C5.39873 2.29446 5.59522 2.76884 5.59522 3.26348C5.59522 2.76884 5.79171 2.29446 6.14148 1.9447C6.49124 1.59493 6.96562 1.39844 7.46026 1.39844H9.79156C9.91522 1.39844 10.0338 1.44756 10.1213 1.535C10.2087 1.62244 10.2578 1.74104 10.2578 1.8647V7.92608C10.2578 8.04974 10.2087 8.16834 10.1213 8.25578C10.0338 8.34322 9.91522 8.39234 9.79156 8.39234H6.994C6.62302 8.39234 6.26724 8.53971 6.00491 8.80204C5.74259 9.06436 5.59522 9.42014 5.59522 9.79112C5.59522 9.42014 5.44785 9.06436 5.18553 8.80204C4.9232 8.53971 4.56742 8.39234 4.19644 8.39234H1.39888Z" stroke="#4A5565" stroke-width="0.932521" stroke-linecap="round" stroke-linejoin="round"/>
</g>
<defs>
<clipPath id="clip0_110_639">
<rect width="11.1902" height="11.1902" fill="white"/>
</clipPath>
</defs>
</svg>
