<svg width="16" height="16" viewBox="0 0 16 16" fill="none" xmlns="http://www.w3.org/2000/svg">
<g clip-path="url(#clip0_443_1129)">
<path d="M11.334 1.33398H4.66732C2.82637 1.33398 1.33398 2.82637 1.33398 4.66732V11.334C1.33398 13.1749 2.82637 14.6673 4.66732 14.6673H11.334C13.1749 14.6673 14.6673 13.1749 14.6673 11.334V4.66732C14.6673 2.82637 13.1749 1.33398 11.334 1.33398Z" stroke="white" stroke-width="1.33333" stroke-linecap="round" stroke-linejoin="round"/>
<path d="M10.6658 7.5802C10.7481 8.13503 10.6533 8.70168 10.395 9.19954C10.1367 9.69741 9.72792 10.1011 9.2269 10.3533C8.72589 10.6055 8.15812 10.6933 7.60434 10.6042C7.05057 10.515 6.53899 10.2536 6.14238 9.85698C5.74577 9.46036 5.48431 8.94878 5.3952 8.39501C5.30609 7.84124 5.39386 7.27346 5.64604 6.77245C5.89821 6.27144 6.30194 5.86269 6.79981 5.60436C7.29768 5.34603 7.86432 5.25126 8.41915 5.33353C8.9851 5.41746 9.50905 5.68118 9.91362 6.08574C10.3182 6.4903 10.5819 7.01425 10.6658 7.5802Z" stroke="white" stroke-width="1.33333" stroke-linecap="round" stroke-linejoin="round"/>
<path d="M11.666 4.33398H11.6727" stroke="white" stroke-width="1.33333" stroke-linecap="round" stroke-linejoin="round"/>
</g>
<defs>
<clipPath id="clip0_443_1129">
<rect width="16" height="16" fill="white"/>
</clipPath>
</defs>
</svg>
