<svg width="68" height="68" viewBox="0 0 68 68" fill="none" xmlns="http://www.w3.org/2000/svg">
<path d="M53.3431 31.5H13.6764C10.5468 31.5 8.00977 34.0371 8.00977 37.1667V57C8.00977 60.1296 10.5468 62.6667 13.6764 62.6667H53.3431C56.4727 62.6667 59.0098 60.1296 59.0098 57V37.1667C59.0098 34.0371 56.4727 31.5 53.3431 31.5Z" stroke="white" stroke-width="4" stroke-linecap="round" stroke-linejoin="round"/>
<path d="M19.0098 31.5V20.1667C19.0098 16.4094 20.5023 12.8061 23.1591 10.1493C25.8159 7.49256 29.4192 6 33.1764 6C36.9337 6 40.537 7.49256 43.1938 10.1493C45.8505 12.8061 47.3431 16.4094 47.3431 20.1667V31.5" stroke="white" stroke-width="4" stroke-linecap="round" stroke-linejoin="round"/>
</svg>
