<svg width="71" height="21" viewBox="0 0 71 21" fill="none" xmlns="http://www.w3.org/2000/svg">
<path d="M59.5489 2.92705C59.8483 2.00574 61.1517 2.00574 61.4511 2.92705L62.6329 6.56434C62.7668 6.97636 63.1507 7.25532 63.5839 7.25532H67.4084C68.3771 7.25532 68.7799 8.49494 67.9962 9.06434L64.9021 11.3123C64.5516 11.5669 64.405 12.0183 64.5389 12.4303L65.7207 16.0676C66.02 16.9889 64.9656 17.7551 64.1818 17.1857L61.0878 14.9377C60.7373 14.6831 60.2627 14.6831 59.9122 14.9377L56.8182 17.1857C56.0344 17.7551 54.98 16.9889 55.2793 16.0676L56.4611 12.4303C56.595 12.0183 56.4484 11.5669 56.0979 11.3123L53.0038 9.06434C52.2201 8.49494 52.6229 7.25532 53.5916 7.25532H57.4161C57.8493 7.25532 58.2332 6.97636 58.3671 6.56434L59.5489 2.92705Z" fill="#F0B100"/>
<path d="M34.5489 2.92705C34.8483 2.00574 36.1517 2.00574 36.4511 2.92705L37.6329 6.56434C37.7668 6.97636 38.1507 7.25532 38.5839 7.25532H42.4084C43.3771 7.25532 43.7799 8.49494 42.9962 9.06434L39.9021 11.3123C39.5516 11.5669 39.405 12.0183 39.5389 12.4303L40.7207 16.0676C41.02 16.9889 39.9656 17.7551 39.1818 17.1857L36.0878 14.9377C35.7373 14.6831 35.2627 14.6831 34.9122 14.9377L31.8182 17.1857C31.0344 17.7551 29.98 16.9889 30.2793 16.0676L31.4611 12.4303C31.595 12.0183 31.4484 11.5669 31.0979 11.3123L28.0038 9.06434C27.2201 8.49494 27.6229 7.25532 28.5916 7.25532H32.4161C32.8493 7.25532 33.2332 6.97636 33.3671 6.56434L34.5489 2.92705Z" fill="#F0B100"/>
<path d="M9.54894 2.92705C9.8483 2.00574 11.1517 2.00574 11.4511 2.92705L12.6329 6.56434C12.7668 6.97636 13.1507 7.25532 13.5839 7.25532H17.4084C18.3771 7.25532 18.7799 8.49494 17.9962 9.06434L14.9021 11.3123C14.5516 11.5669 14.405 12.0183 14.5389 12.4303L15.7207 16.0676C16.02 16.9889 14.9656 17.7551 14.1818 17.1857L11.0878 14.9377C10.7373 14.6831 10.2627 14.6831 9.91222 14.9377L6.81815 17.1857C6.03444 17.7551 4.97996 16.9889 5.27931 16.0676L6.46114 12.4303C6.59501 12.0183 6.44835 11.5669 6.09787 11.3123L3.00381 9.06434C2.22009 8.49494 2.62287 7.25532 3.59159 7.25532H7.41606C7.84929 7.25532 8.23324 6.97636 8.36712 6.56434L9.54894 2.92705Z" fill="#F0B100"/>
</svg>
