<svg width="64" height="64" viewBox="0 0 64 64" fill="none" xmlns="http://www.w3.org/2000/svg">
<mask id="path-1-inside-1_1_3064" fill="white">
<path fill-rule="evenodd" clip-rule="evenodd" d="M31.9997 58.6654C17.2717 58.6654 5.33301 46.7267 5.33301 31.9987C5.33301 17.2707 17.2717 5.33203 31.9997 5.33203C46.7277 5.33203 58.6663 17.2707 58.6663 31.9987C58.6663 46.7267 46.7277 58.6654 31.9997 58.6654ZM31.9997 55.4654C38.2234 55.4654 44.1923 52.993 48.5931 48.5921C52.994 44.1913 55.4663 38.2224 55.4663 31.9987C55.4663 25.775 52.994 19.8061 48.5931 15.4053C44.1923 11.0044 38.2234 8.53203 31.9997 8.53203C25.7759 8.53203 19.8071 11.0044 15.4062 15.4053C11.0054 19.8061 8.53301 25.775 8.53301 31.9987C8.53301 38.2224 11.0054 44.1913 15.4062 48.5921C19.8071 52.993 25.7759 55.4654 31.9997 55.4654ZM28.8743 38.82L44.365 23.332L46.6263 25.596L30.7597 41.4627C30.2596 41.9626 29.5814 42.2435 28.8743 42.2435C28.1672 42.2435 27.4891 41.9626 26.989 41.4627L18.6663 33.1347L20.9303 30.8707L28.877 38.8174L28.8743 38.82Z"/>
</mask>
<path fill-rule="evenodd" clip-rule="evenodd" d="M31.9997 58.6654C17.2717 58.6654 5.33301 46.7267 5.33301 31.9987C5.33301 17.2707 17.2717 5.33203 31.9997 5.33203C46.7277 5.33203 58.6663 17.2707 58.6663 31.9987C58.6663 46.7267 46.7277 58.6654 31.9997 58.6654ZM31.9997 55.4654C38.2234 55.4654 44.1923 52.993 48.5931 48.5921C52.994 44.1913 55.4663 38.2224 55.4663 31.9987C55.4663 25.775 52.994 19.8061 48.5931 15.4053C44.1923 11.0044 38.2234 8.53203 31.9997 8.53203C25.7759 8.53203 19.8071 11.0044 15.4062 15.4053C11.0054 19.8061 8.53301 25.775 8.53301 31.9987C8.53301 38.2224 11.0054 44.1913 15.4062 48.5921C19.8071 52.993 25.7759 55.4654 31.9997 55.4654ZM28.8743 38.82L44.365 23.332L46.6263 25.596L30.7597 41.4627C30.2596 41.9626 29.5814 42.2435 28.8743 42.2435C28.1672 42.2435 27.4891 41.9626 26.989 41.4627L18.6663 33.1347L20.9303 30.8707L28.877 38.8174L28.8743 38.82Z" fill="white"/>
<path d="M31.9997 8.53203V-15.468V8.53203ZM8.53301 31.9987H-15.467H8.53301ZM28.8743 38.82L11.9052 21.848L45.8368 55.7987L28.8743 38.82ZM44.365 23.332L61.3456 6.37146L44.3765 -10.6176L27.3959 6.36001L44.365 23.332ZM46.6263 25.596L63.5969 42.5666L80.5575 25.606L63.6069 8.63546L46.6263 25.596ZM30.7597 41.4627L47.7277 58.4358L47.7302 58.4333L30.7597 41.4627ZM26.989 41.4627L10.013 58.4278L10.021 58.4358L26.989 41.4627ZM18.6663 33.1347L1.69578 16.1641L-15.2694 33.1293L1.69034 50.0998L18.6663 33.1347ZM20.9303 30.8707L37.9009 13.9001L20.9303 -3.07043L3.95978 13.9001L20.9303 30.8707ZM28.877 38.8174L45.8395 55.796L62.8262 38.8255L45.8476 21.8468L28.877 38.8174ZM31.9997 58.6654V34.6654C30.5265 34.6654 29.333 33.4719 29.333 31.9987H5.33301H-18.667C-18.667 59.9815 4.01684 82.6654 31.9997 82.6654V58.6654ZM5.33301 31.9987H29.333C29.333 30.5255 30.5265 29.332 31.9997 29.332V5.33203V-18.668C4.01684 -18.668 -18.667 4.01586 -18.667 31.9987H5.33301ZM31.9997 5.33203V29.332C33.4728 29.332 34.6663 30.5255 34.6663 31.9987H58.6663H82.6663C82.6663 4.01586 59.9825 -18.668 31.9997 -18.668V5.33203ZM58.6663 31.9987H34.6663C34.6663 33.4719 33.4728 34.6654 31.9997 34.6654V58.6654V82.6654C59.9825 82.6654 82.6663 59.9815 82.6663 31.9987H58.6663ZM31.9997 55.4654V79.4654C44.5886 79.4654 56.6619 74.4644 65.5637 65.5627L48.5931 48.5921L31.6226 31.6216C31.7226 31.5216 31.8582 31.4654 31.9997 31.4654V55.4654ZM48.5931 48.5921L65.5637 65.5627C74.4654 56.661 79.4663 44.5876 79.4663 31.9987H55.4663H31.4663C31.4663 31.8573 31.5225 31.7216 31.6226 31.6216L48.5931 48.5921ZM55.4663 31.9987H79.4663C79.4663 19.4098 74.4654 7.33643 65.5637 -1.5653L48.5931 15.4053L31.6226 32.3758C31.5225 32.2758 31.4663 32.1401 31.4663 31.9987H55.4663ZM48.5931 15.4053L65.5637 -1.5653C56.6619 -10.467 44.5886 -15.468 31.9997 -15.468V8.53203V32.532C31.8582 32.532 31.7226 32.4758 31.6226 32.3758L48.5931 15.4053ZM31.9997 8.53203V-15.468C19.4107 -15.468 7.3374 -10.467 -1.56433 -1.5653L15.4062 15.4053L32.3768 32.3758C32.2768 32.4758 32.1411 32.532 31.9997 32.532V8.53203ZM15.4062 15.4053L-1.56433 -1.5653C-10.4661 7.33642 -15.467 19.4098 -15.467 31.9987H8.53301H32.533C32.533 32.1401 32.4768 32.2758 32.3768 32.3758L15.4062 15.4053ZM8.53301 31.9987H-15.467C-15.467 44.5876 -10.4661 56.661 -1.56433 65.5627L15.4062 48.5921L32.3768 31.6216C32.4768 31.7216 32.533 31.8573 32.533 31.9987H8.53301ZM15.4062 48.5921L-1.56433 65.5627C7.3374 74.4644 19.4107 79.4654 31.9997 79.4654V55.4654V31.4654C32.1411 31.4654 32.2768 31.5216 32.3768 31.6216L15.4062 48.5921ZM28.8743 38.82L45.8434 55.7921L61.3341 40.3041L44.365 23.332L27.3959 6.36001L11.9052 21.848L28.8743 38.82ZM44.365 23.332L27.3845 40.2926L29.6458 42.5566L46.6263 25.596L63.6069 8.63546L61.3456 6.37146L44.365 23.332ZM46.6263 25.596L29.6558 8.62547L13.7891 24.4921L30.7597 41.4627L47.7302 58.4333L63.5969 42.5666L46.6263 25.596ZM30.7597 41.4627L13.7917 24.4896C17.7923 20.4902 23.2175 18.2435 28.8743 18.2435V42.2435V66.2435C35.9454 66.2435 42.7269 63.435 47.7277 58.4358L30.7597 41.4627ZM28.8743 42.2435V18.2435C34.5312 18.2435 39.9564 20.4902 43.957 24.4896L26.989 41.4627L10.021 58.4358C15.0217 63.435 21.8033 66.2435 28.8743 66.2435V42.2435ZM26.989 41.4627L43.965 24.4976L35.6423 16.1696L18.6663 33.1347L1.69034 50.0998L10.013 58.4278L26.989 41.4627ZM18.6663 33.1347L35.6369 50.1053L37.9009 47.8413L20.9303 30.8707L3.95978 13.9001L1.69578 16.1641L18.6663 33.1347ZM20.9303 30.8707L3.95978 47.8413L11.9064 55.7879L28.877 38.8174L45.8476 21.8468L37.9009 13.9001L20.9303 30.8707ZM28.877 38.8174L11.9145 21.8387L11.9119 21.8414L28.8743 38.82L45.8368 55.7987L45.8395 55.796L28.877 38.8174Z" fill="white" mask="url(#path-1-inside-1_1_3064)"/>
</svg>
