<svg width="997" height="988" viewBox="0 0 997 988" fill="none" xmlns="http://www.w3.org/2000/svg">
<path d="M499.362 0C502.755 1.76907 514.651 27.2414 517.785 32.8846C538.465 39.5359 534.01 45.099 548.94 52.8347C564.885 61.0951 584.331 64.4154 600.255 75.7344C602.761 93.4252 605.892 97.8565 622.581 103.944C637.884 101.209 652.012 87.8688 657.694 112.834C674.553 114.445 765.511 132.147 778.713 138.734C779.279 140.675 781.548 148.444 782.225 149.567C785.062 154.179 789.871 159.945 789.332 165.779C788.114 178.956 771.787 178.033 765.223 169.659C759.624 162.515 759.526 157.639 760.136 149.303C756.148 150.345 750.115 151.588 747.384 154.395C743.691 163.777 755.806 178.519 763.195 183.53C771.891 189.428 773.766 188.124 782.896 187.426C784.067 189.235 783.808 188.416 783.281 191.088C779.03 195.339 767.189 194.673 760.361 196.535L760.087 197.78C764.436 200.781 769.049 204.782 773.174 208.179C787.215 193.948 806.889 177.2 798.034 155.769C796.547 152.172 793.581 146.679 794.069 143.382C799.224 138.09 811.681 147.511 816.301 151.34C825.875 144.817 842.226 138.327 853.206 133.587C847.768 143.884 842.168 159.267 837.798 170.386C840.528 177.641 845.721 186.104 847.494 193.464C844.248 196.589 827.385 188.203 822.369 188.528C802.423 189.821 791.102 201.992 783.172 218.281C786.479 225.692 791.563 232.199 796.465 238.597C795.683 232.037 793.667 211.871 798.838 207.656C809.092 215.193 792.638 228.597 823.903 240.391C829.213 238.534 842.681 232.359 837.256 225.429C831.962 223.564 831.75 228.643 827.56 227.854C817.931 226.042 807.985 209.239 816.543 201.671C825.431 197.604 835.505 206.009 843.615 209.017C845.484 209.71 850.355 210.341 852.469 210.61C860.458 242.79 865.707 275.668 873.182 307.972C874.546 313.865 875.443 320.788 876.285 326.804C897.349 334.094 894.179 342.213 887.882 360.154C896.484 382.45 902.107 385.852 924.329 392.384C932.836 408.086 941.236 434.372 947.867 451.973C962.857 457.646 961.99 461.589 966.833 476.689C973.646 481.183 994.667 490.806 997 493.598C995.593 497.87 973.8 507.381 967.314 511.448C959.777 537.783 954.201 526.946 945.203 544.159C937.442 559.006 934.034 577.868 924.997 594.488C902.243 603.567 898.649 602.309 888.071 626.834C895.178 645.906 893.741 647.494 877.073 658.413C869.15 682.632 864.661 720.26 858.15 745.246C855.396 755.818 854.491 765.865 850.254 776.453C839.193 779.653 824.689 789.742 819.427 790.254C813.476 788.365 810.227 784.118 811.745 777.529C815.972 759.168 830.948 765.972 837.984 761.547L838.455 759.451C837.079 755.816 832.7 753.958 829.558 752.259C824.15 749.334 817.7 752.238 812.075 754.229C801.879 765.294 802.832 776.35 798.166 780.314L796.849 779.194C794.488 768.989 795.239 763.643 796.208 753.358C789.366 761.074 787.24 763.627 783.125 772.752C787.333 780.455 796.44 791.432 804.288 795.517C819.016 803.182 832.505 796.356 846.905 792.087C843.83 800.461 840.251 807.094 836.171 814.959C841.163 828.204 846.486 841.32 852.138 854.296C838.988 847.177 829.196 842.108 815.637 835.771C811.371 838.377 799.647 847.027 796.231 841.517C796.291 836.654 799.907 826.28 801.401 820.628C796.704 803.595 788.669 791.377 773.363 781.938C763.158 787.045 761.701 791.54 753.165 798.633C759.785 796.217 780.993 790.314 783.17 801.167C777.076 805.157 756.477 800.383 751.806 817.547C750.476 822.436 746.085 833.503 747.536 837.448C759.617 843.101 761.461 825.597 766.768 818.333C771.511 811.839 780.859 810.904 786.954 816.074C796.628 824.281 777.322 837.479 780.111 846.781C780.46 847.945 779.686 848.63 779.059 849.665C775.24 851.074 771.431 852.038 767.437 852.765C731.029 859.394 693.959 870.683 657.294 874.934C656.995 876.091 656.821 876.85 656.593 878.043C652.045 901.78 624.097 879.045 609.034 891.344C601.032 897.878 601.017 903.329 599.448 912.881C578.636 923.203 548.049 926.719 535.261 947.758C529.442 951.01 523.207 952.691 516.847 954.71C511.887 961.877 504.031 979.574 500.047 988L494.016 976.136C490.797 970.617 486.666 961.141 483.253 954.756C463.346 948.204 467.065 944.478 450.936 934.628C438.245 926.875 417.639 921.782 404.018 914.684C398.767 912.794 399.333 907.081 397.646 902.185C388.606 875.954 365.525 893.344 348.402 888.139C344.057 886.817 342.112 879.62 340.893 875.151C302.721 870.224 262.248 858.571 224.326 851.143C223.318 851.305 219.007 848.592 219.479 847.614C225.024 836.107 197.694 821.464 218.77 813.357C237.451 806.171 235.956 832.769 247.127 837.736C251.097 837.265 252.602 837.293 253.341 833.449C250.066 825.288 249.137 816.103 243.345 810.126C234.355 800.851 222.591 803.008 211.17 802.643C226.689 793.123 230.343 792.907 247.674 798.183C243.095 793.908 231.566 781.444 224.999 783.766C213.054 787.99 198.504 810.748 199.632 822.982C199.851 825.354 204.539 838.79 205.543 842.51C201.89 848.163 186.359 838.392 182.194 835.531C170.036 841.694 158.214 847.494 146.158 853.893C150.862 842.021 158.097 825.584 163.837 814.268C158.771 808.147 154.057 799.289 150.021 792.258C163.699 795.093 172.929 801.694 188.102 798.219C200.571 795.365 211.62 781.062 217.905 770.47C214.982 765.181 209.003 758.78 204.883 754.043C205.391 762.331 206.808 773.548 202.282 780.587L200.95 780.783C200.394 778.601 199.811 776.427 199.2 774.261C195.842 762.197 187.755 747.525 171.433 750.779C165.233 752.015 162.331 758.578 159.71 763.938C170.47 762.768 173.597 761.757 182.528 767.426C184.952 771.304 188.835 779.404 187.935 783.439C184.207 800.184 163.584 780.244 156.038 777.986C155.299 777.765 152.009 778.331 149.867 777.791C144.618 768.942 126.746 672.557 123.696 658.691C122.475 658.23 121.259 657.753 120.052 657.257C104.252 650.739 104.453 642.328 110.669 628.455C104.224 604.786 95.6267 601.012 73.4046 594.864C64.6728 576.263 62.0031 558.231 50.432 537.2C28.9825 525.234 41.7949 524.91 28.8284 509.69C26.587 507.059 6.37229 497.663 0 493.338C9.63918 489.102 21.3231 484.048 30.293 478.861C34.0497 471.78 34.3737 465.993 39.2627 457.699C42.1415 455.68 46.9199 453.373 50.1606 451.681C59.7362 432.934 65.7809 413.188 73.0437 393.458C97.1515 384.725 101.817 384.532 111.159 358.28C109.057 352.631 107.519 347.715 105.787 341.954C106.348 340.752 106.927 339.558 107.523 338.374C111.457 330.597 115.181 329.091 123.381 326.421C130.793 286.48 137.217 250.837 147.28 210.882C150.516 210.274 155.064 209.94 158.445 209.595C167.243 201.257 186.814 190.578 185.344 214.476C184.951 220.854 176.315 225.969 170.869 228.962C167.283 226.624 166.596 225.343 162.883 225.096L161.646 226.668C161.476 234.592 168.994 238.202 175.087 240.513C197.152 234.585 197.851 223.651 200.732 203.56C207.264 216.935 206.16 225.674 203.509 239.709C209.15 232.009 213.766 227.197 217.563 218.378C190.86 170.577 161.589 197.053 153.256 193.245C151.935 187.99 159.137 176.805 162.014 171.658C157.613 160.368 150.102 144.815 144.86 133.569C153.486 136.912 175.62 146.302 182.698 151.579C187.575 148.045 199.947 140.048 206.157 142.241C209.247 147.694 198.741 156.27 199.873 168.713C201.536 186.987 214.317 196.816 226.743 208.312C232.274 205.273 242.72 196.498 247.636 192.425C237.357 195.994 225.019 198.806 215.318 189.636C214.647 189.002 215.023 188.54 215.132 187.464C218.266 186.165 221.416 187.673 224.802 188.717C251.023 181.376 243.317 172.01 254.485 156.186L254.067 154.623C250.95 151.853 245.662 150.534 241.58 149.183C241.482 154.086 241.33 158.816 239.201 163.335C236.784 168.466 232.307 172.69 226.944 174.572C223.079 175.929 218.485 176.252 214.756 174.27C212.48 173.059 210.769 171.232 210.099 168.693C208.178 161.417 216.548 154.167 219.233 147.868C220.313 145.334 220.556 141.617 221.916 139.384C226.77 131.406 325.277 116.162 341.505 112.328C343.634 101.996 346.764 100.744 355.918 96.9135C362.223 99.3172 368.558 101.639 374.922 103.88C395.175 98.6429 396.367 92.9508 401.308 73.7284C417.607 65.1601 432.787 61.416 448.012 53.6507C463.38 45.8126 462.106 37.4006 481.991 33.1264C486.687 26.1301 494.949 8.45569 499.362 0ZM110.213 494.626C123.073 500.368 127.14 505.573 132.642 517.942C140.317 535.197 134.521 543.262 131.267 560.346C131.042 567.359 133.319 574.448 134.631 581.301C161.205 720.05 285.625 851.215 430.439 861.395C458.563 863.372 482.24 847.277 499.638 883.511L499.834 883.93C516.205 849.843 535.998 860.946 566.351 861.656C576.967 861.905 592.563 858.285 603.409 857.155C702.891 837.607 789.534 760.114 833.99 670.817C848.335 642.004 866.485 598.028 867.345 565.889C868.144 536.076 852.878 515.384 889.887 495.022C878.119 488.506 869.948 481.157 865.909 467.702C861.742 453.818 867.145 439.206 867.676 425.558C867.922 419.226 865.156 404.239 863.717 397.613C842.348 299.22 770.578 210.688 683.267 161.948C649.727 143.224 606.338 126.277 567.282 125.329C551.688 124.951 533.385 130.463 517.855 125.623C506.412 122.056 504.374 112.626 499.445 107.495C495.257 115.255 489.014 124.128 480.002 125.516C453.254 129.636 435.55 122.988 407.469 128.453C305.86 148.229 220.076 220.833 169.656 309.438C152.647 339.662 135.211 390.661 131.83 426.083C130.935 435.452 139.145 452.67 135.299 464.842C129.981 481.676 125.219 486.346 110.213 494.626ZM884.701 442.305C873.894 461.647 880.956 476.919 899.598 487.22C896.828 479.353 889.575 460.211 896.547 453.36C907.292 451.593 912.546 474.126 911.676 482.294C910.68 485.254 909.23 488.124 910.061 490.921C922.508 489.181 939.8 476.866 935.384 463.003C934.3 459.596 935.413 459.504 932.696 456.81C927.448 459.563 923.523 470.916 921.27 476.686C918.805 462.304 916.795 446.725 901.922 439.652C899.018 438.271 897.63 437.062 894.193 437.184L884.701 442.305ZM365.468 871.597C362.724 873.41 361.694 873.403 360.588 876.009C364.462 876.247 368.683 874.887 372.595 874.366C383.263 872.947 394.44 876.451 401.485 884.769C412.698 898.007 410.066 900.555 425.375 909.055C423.807 905.11 418.375 892.888 418.494 889.507L420.338 889.039C427.825 894.358 431.866 898.078 438.624 904.404C433.814 893.257 432.645 888.891 433.529 876.335C411.222 875.446 388.102 873.046 365.468 871.597ZM482.919 74.9957C463.418 80.1374 455.496 81.2333 447.172 100.725C448.739 104.045 450.601 108.319 452.472 111.377C463.084 115.752 470.337 117.479 480.956 111.172C486.52 106.806 489.667 102.295 493.532 96.4037C486.951 98.4697 479.836 100.851 473.217 102.585C469.07 101.343 463.512 100.262 460.781 97.1507C459.739 90.0212 477.488 86.9439 483.215 86.1421L493.707 84.7408C497.968 75.4951 486.02 62.4485 475.516 60.4733C470.215 62.2386 465.935 63.8435 460.763 65.9445C468.442 68.2263 475.959 70.9492 482.919 74.9957ZM581.576 886.356C578.151 894.688 575.289 900.829 571.198 908.861C575.908 906.906 581.351 904.809 585.818 902.469C593.27 887.465 597.734 877.329 616.003 874.403C627.419 873.402 627.601 875.632 636.763 875.615L637.043 874.146C632.89 868.222 613.189 872.305 606.607 873.397C593.812 873.879 578.624 875.479 565.803 876.91C566.055 890.728 565.64 892.755 558.042 904.135C566.02 898.671 574.813 890.587 581.576 886.356ZM116.502 563.952C104.99 564.722 97.5284 564.092 86.6518 559.288C88.7563 564.982 101.217 579.473 105.738 585.273C99.5825 583.194 84.5053 574.98 82.3594 575.15C82.88 578.097 86.9236 582.57 89.0648 583.714C101.005 590.102 115.289 600.191 121.681 612.944C124.744 621.65 126.178 622.455 122.248 630.883L121.745 631.945C124.417 632.462 125.461 631.781 127.908 630.737L129.013 629.184C127.127 619.148 124.271 609.58 122.131 599.61C119.596 587.797 118.195 575.909 116.502 563.952ZM882.471 564.231C882.89 582.712 879.133 597.562 875.046 615.375C874.021 619.843 870.238 628.101 871.373 631.278C873.636 633.113 872.526 632.739 875.573 632.59C877.908 629.26 875.91 620.075 879.735 611.467C885.419 601.513 885.604 601.81 893.185 594.125C900.595 586.615 918.435 583.527 915.886 573.992C911.557 574.218 904.576 582.276 899.468 580.682C900.438 573.893 913.323 563.089 912.855 560.313L910.258 560.628C898.025 564.155 895.154 564.761 882.471 564.231ZM842.472 743.627C847.219 732.013 858.24 713.19 839.801 707.992C828.632 714.689 817.099 726.604 812.535 738.661C814.602 739.498 822.821 737.214 825.017 736.366C826.952 730.943 823.711 731.595 827.295 723.806C845.868 709.934 843.263 732.373 842.472 743.627ZM565.499 111.743C579.198 111.346 597.631 113.872 610.913 117.047C618.159 120.396 628.097 120.376 634.649 115.362L634.784 114.143C627.661 116.526 622.048 115.652 614.648 115.121C607.138 112.593 606.684 111.025 600.796 107.664C589.638 101.296 592.744 82.3103 579.474 84.2873C577.402 88.9693 582.519 97.888 584.056 103.028C575.449 95.7471 565.928 85.3183 557.236 79.5904C565.659 91.9468 567.011 95.9194 565.499 111.743ZM547.145 111.659C566.333 89.6746 533.576 77.8762 516.108 75.261C523.094 72.0743 531.786 67.7809 538.997 65.7382C533.576 63.5638 527.217 60.549 521.428 60.4056C508.679 65.6109 507.639 73.7505 505.06 86.1861C522.423 84.9401 529.503 84.8034 541.714 98.7059C526.091 102.702 522.452 102.074 507.288 96.3288C512.176 104.059 514.33 108.77 522.434 113.212C532.858 116.517 536.704 115.653 547.145 111.659ZM342.001 128.73C336.376 129.57 311.341 134.105 307.38 135.974C306.607 138.777 307.835 142.166 307.872 145.968L309.258 147.076C322.185 139.233 330.32 136.021 343.77 129.601L343.638 128.728L342.001 128.73ZM182.286 257.774C184.204 255.051 185.792 254.002 185.407 251.456C181.581 250.992 178.93 251.183 175.078 251.35C174.019 254.103 175.793 268.635 164.416 270.052C151.436 271.669 159.144 250.345 155.055 247.06C134.948 275.613 161.778 295.67 182.286 257.774ZM141.161 325.027C143.297 320.888 144.229 319.051 145.617 314.644C148.432 309.955 155.753 299.629 156.303 295.296C154.529 291.427 150.819 292.596 146.755 292.775C143.436 300.879 141.855 316.116 141.161 325.027ZM159.854 696.244C157.543 692.134 143.907 668.283 141.615 666.342C142.055 670.815 146.735 694.694 148.849 696.766L159.854 696.244ZM857.524 321.498L858.881 321.352C858.583 318.021 857.693 315.23 856.801 312.049C854.039 302.209 859.144 291.624 845.218 292.952L843.381 294.316C844.243 299.104 854.499 315.213 857.524 321.498ZM173.015 725.637L173.198 726.496C173.971 730.203 173.952 731.08 173.646 734.823L174.666 736.878C179.664 738.32 182.366 738.074 187.653 739.919C181.647 729.024 171.931 710.235 157.809 708.803C154.472 711.935 151.361 714.676 148.569 718.333C149.603 724.597 150.191 733.011 155.056 737.242L156.198 736.691C156.959 732.135 157.641 724.29 159.747 720.728C165.254 716.933 169.204 721.499 173.015 725.637ZM656.194 129.359C662.946 132.988 682.975 143.343 689.594 145.737L690.609 144.6C691.808 141.691 693.429 139.051 692.615 136.254C686.644 132.783 663.513 129.524 656.194 129.359ZM519.871 912.718C551.673 903.76 573.819 872.375 527.276 873.675C522.029 875.45 520.197 876.151 515.42 878.905L507.861 892.038C515.779 888.404 518.87 887.675 527.149 885.306C531.976 886.646 538.054 888.135 542.578 890.043C528.058 900.328 521.649 901.528 504.035 901.395C506.723 909.262 508.301 916.218 514.745 921.744C526.008 929.032 527.626 927.305 538.526 920.747C531.041 918.014 526.893 916.4 519.871 912.718ZM394.373 116.029C406.736 113.977 423.575 111.777 436.156 111.216C432.937 99.6312 433.586 98.5721 436.345 86.6896C432.272 90.5166 425.287 97.3604 419.743 98.3073C417.84 93.5974 424.572 88.5287 418.898 84.0265L414.641 83.5462C409.111 96.2294 403.533 107.14 389.95 113.544C379.69 118.382 369.967 112.255 363.38 114.33L363.399 115.381C372.443 121.359 379.886 119.061 390.562 116.867C391.835 116.604 393.106 116.326 394.373 116.029ZM857.461 664.702L840.944 695.545L841.544 696.578L842.484 695.826C845.789 696.448 848.404 697.007 851.781 697.155C853.043 695.234 857.225 670.264 858.137 665.476L857.461 664.702ZM122.976 369.94C114.638 388.289 107.34 393.167 90.5722 403.944C87.578 405.868 84.5094 406.926 84.9612 410.321C87.6324 410.3 100.813 405.825 105.89 404.899C97.4467 414.107 91.8059 419.86 85.5898 430.787C99.2124 424.294 103.311 424.288 118.435 424.624C117.976 411.487 119.993 383.375 124.919 371.873C126.625 367.571 128.636 359.516 126.633 355.188C124.493 353.596 123.098 353.682 120.44 353.344C119.395 358 126.654 358.218 122.976 369.94ZM648.723 858.433C653.697 858.621 660.788 859.148 665.54 858.424C672.113 856.649 691.946 853.548 694.929 849.556C694.194 846.554 693.9 843.654 691.807 841.579C689.389 842.119 670.134 853.15 661.884 856.257C656.634 856.746 653.869 857.244 648.723 858.433ZM812.848 251.133C814.342 253.333 816.722 256.617 817.94 258.799C824.46 270.484 842.894 292.945 851.666 269.918C852.078 268.837 850.676 264.217 850.293 262.955C849.158 258.35 848.001 253.131 846.673 248.631C845.822 255.038 845.62 265.003 840.989 269.098C835.488 271.614 830.389 268.941 826.899 264.54C824.833 257.618 828.13 254.425 823.882 251.363C820.238 251.322 816.477 251.328 812.848 251.133ZM263.062 815.441C262.809 819.98 262.603 823.971 262.642 828.539C268.969 827.862 276.472 823.422 281.877 834.221C287.057 844.569 269.519 842.948 266.217 846.311C269.076 848.192 270.182 848.452 273.398 849.506C314.458 851.809 283.84 822.414 263.062 815.441ZM735.965 166.327C736.731 163.921 737.879 162.039 737.109 160.182L736.506 160.314C728.344 162.026 717.822 159.818 715.789 150.554C716.276 147.346 716.473 147.023 718.729 144.683C723.661 142.2 729.8 142.425 735.339 141.522C729.443 139.864 721.697 137.301 715.81 137.178C689.009 149.292 724.467 168.167 735.915 173.99C737.507 171.155 736.735 170.162 735.965 166.327ZM307.942 840.837C306.37 843.936 305.581 844.958 305.815 848.431C308.756 854.992 333.456 858.225 340.583 858.751L341.455 857.903C338.891 856.266 332.268 853.6 329.005 852.147C323.539 849.713 312.94 842.682 307.942 840.837ZM280.483 137.433L265.013 141.146C269.172 141.836 279.8 142.812 282.009 145.941C283.535 148.107 284.088 150.811 283.531 153.403C282.093 160.05 270.591 160.244 264.918 161.721C263.596 166.804 263.344 169.068 262.871 174.339C271.931 170.65 295.932 155.4 293.608 143.562C291.502 139.59 284.693 137.317 280.483 137.433ZM736.582 816.548C726.456 820.075 702.451 832.156 705.961 845.311C710.099 851.907 722.584 849.855 729.085 848.334L731.831 846.824L731.633 845.48C727.259 844.144 722.606 843.561 719.2 840.936C715.949 834.514 721.95 827.291 728.655 825.906C730.255 825.575 732.876 829.872 737.23 829.836C737.232 827.44 736.443 826.006 736.444 824.215C736.447 820.015 739.253 820.268 736.582 816.548ZM878.791 352.45C874.707 354.384 875.317 353.39 873.201 356.804C872.454 364.31 878.623 385.105 880.171 393.984C882.516 407.441 882.808 412.346 882.534 426.032C896.855 423.319 900.561 423.329 913.681 429.917C910.684 424.846 908.876 421.96 905.275 417.22C902.818 414.537 899.515 411.683 899.283 408.2L900.503 407.272C904.834 407.979 912.274 411.182 914.569 410.442C910.526 400.134 861.614 380.492 880 354.69C879.473 353.15 879.831 353.472 878.791 352.45ZM461.766 919.847C467.715 924.837 471.583 928.393 479.824 924.735C483.435 923.131 489.498 916.938 491.399 913.582L495.772 901.274C486.641 901.246 462.502 901.331 459.71 889.734C461.91 887.525 469.066 887.081 473.126 885.503C482.047 887.252 484.418 888.478 492.793 892.867C482.841 875.492 479.037 872.915 459.158 873.741C455.322 875.106 449.989 876.934 448.626 881.228C441.436 903.884 468.715 909.797 484.142 912.269C475.695 916.429 471.369 918.441 461.766 919.847ZM88.738 500.612C73.2177 504.13 68.285 506.331 63.6551 522.354L67.5876 535.522L80.5067 511.5C81.1972 523.995 83.0011 537.32 93.1925 546.249C96.8317 549.477 101.647 551.048 106.489 550.589C109.457 550.328 112.641 548.925 115.192 547.437C129.792 529.002 116.804 514.377 101.719 502.663C101.277 502.321 100.833 501.982 100.388 501.644C105.892 515.208 110.043 523.164 104.008 537.444C103.716 538.132 103.418 538.818 103.115 539.501C89.3543 526.78 87.6184 520.396 89.7817 501.539L88.738 500.612ZM910.143 500.545C911.633 505.558 911.874 507.091 911.357 512.285C910.673 519.162 904.269 540.38 894.72 535.011C889.784 526.529 896.577 510.617 900.497 502.362C885.571 512.478 870.277 529.847 885.153 547.451C908.851 562.546 918.922 529.221 921.099 511.738C923.874 519.36 925.185 525.301 931.339 530.58L933.848 531.133C939.136 527.61 935.599 517.073 932.67 512.804C927.762 505.651 920.655 502.407 912.292 500.907C911.578 500.779 910.861 500.659 910.143 500.545ZM103.477 437.231C85.9555 447.859 81.8671 455.525 80.636 476.073C77.765 471.75 71.2615 460.169 68.4968 457.597L66.6598 457.299C64.5301 460.509 65.2047 467.959 65.8049 471.723C67.8252 484.395 80.4208 487.492 90.8292 490.992C89.3162 484.379 88.5434 480.1 89.1391 473.11C90.4684 467.173 94.9959 454.445 100.944 452.025C112.718 455 102.751 480.937 99.8817 488.326C104.653 484.84 108.131 482.466 112.009 478.032C124.147 464.155 127.35 442.647 105.42 437.323C104.876 437.192 104.039 437.225 103.477 437.231Z" fill="#1A2749"/>
<path d="M579.798 389.774C577.187 385.134 574.738 380.727 572.605 375.833C548.002 319.41 596.297 260.799 656.958 278.398C675.567 283.942 691.268 296.548 700.701 313.52C713.379 336.722 711.903 370.089 693.445 390.308C692.11 391.768 690.627 393.516 688.912 394.464L688.19 397.914C710.711 398.642 769.664 408.854 787.986 424.915C792.599 428.958 792.937 434.871 791.335 440.749C788.66 449.911 783.232 454.363 782.419 461.735C781.053 469.611 780.811 474.914 780.45 482.947C781.559 484.906 783.95 487.931 784.308 489.495C788.114 499.382 782.552 502.01 784.208 506.285C791.871 513.48 796.321 519.754 796.673 530.785C796.719 532.397 796.73 534.011 796.706 535.625C791.78 542.823 789.384 544.801 783.161 550.882L781.954 553.29C783.435 561.027 782.263 584.421 773.933 586.719C768.394 583.862 769.421 559.61 769.001 553.109C767.572 551.966 766.768 551.488 765.191 550.55L763.478 551.323C761.829 568.884 750.954 579.201 738.421 590.328C732.18 595.868 700.043 617.937 692.425 619.243C673.154 630.996 628.692 643.971 606.035 648.128C594.718 650.204 579.803 652.081 569.079 655.15C557.821 655.049 546.436 657.091 535.309 657.391C524.692 657.677 513.616 657.082 502.92 657.21C475.226 657.541 447.608 657.497 420.082 653.697L389.555 647.28C358.292 644.63 293.432 618.39 269.446 599.068C244.004 578.574 238.546 575.941 233.817 543.917L229.569 545.312C229.731 551.939 230.037 582.979 227.265 587.082L225.434 588.095C219.014 584.517 214.786 559.665 217.609 552.604L216.666 549.379C216.372 549.339 216.077 549.298 215.783 549.256C195.405 540.807 202.874 513.704 215.749 505.216C215.813 504.466 215.21 502.252 215.01 501.375C213.688 497.389 214.573 493.26 215.103 489.066L219.394 484.593C217.699 480.239 216.441 464.1 216.925 458.975C214.051 455.035 209.773 447.172 208.322 442.558C206.574 435.64 205.76 429.752 211.495 424.441C229.124 408.114 257.681 406.325 280.201 401.41C288.074 399.693 301.09 397.229 308.755 396.974L310.936 395.568C284.97 368.982 284.262 326.751 309.323 299.31C334.384 271.869 376.503 268.755 405.327 292.213C434.15 315.671 439.658 357.546 417.882 387.662L420.68 389.401L423.155 389.181C438.035 386.79 449.289 387.123 464.356 387.069C475.478 385.179 569.67 386.089 579.798 389.774Z" fill="#1A2433"/>
<path d="M579.798 389.774C577.187 385.134 574.738 380.727 572.605 375.833C548.002 319.41 596.297 260.799 656.958 278.398C675.567 283.942 691.268 296.548 700.701 313.52C713.379 336.722 711.903 370.089 693.445 390.308C692.11 391.768 690.627 393.516 688.912 394.464L688.19 397.914C710.711 398.642 769.664 408.854 787.986 424.915C792.599 428.958 792.937 434.871 791.335 440.749C788.66 449.911 783.232 454.363 782.419 461.735L781.459 459.5C777.134 459.411 763.781 466.026 757.549 467.332C694.206 483.271 628.133 488.732 562.927 491.392C521.81 493.068 479.07 490.19 437.778 491.683C423.002 491.182 407.387 489.175 392.648 488.545C333.747 486.025 282.747 479.725 225.943 462.498C222.929 460.412 220.444 459.949 216.925 458.975C214.051 455.035 209.773 447.172 208.322 442.558C206.574 435.64 205.76 429.752 211.495 424.441C229.124 408.114 257.681 406.325 280.201 401.41C288.074 399.693 301.09 397.229 308.755 396.974L310.936 395.568C284.97 368.982 284.262 326.751 309.323 299.31C334.384 271.869 376.503 268.755 405.327 292.213C434.15 315.671 439.658 357.546 417.882 387.662L420.68 389.401L423.155 389.181C438.035 386.79 449.289 387.123 464.356 387.069C475.478 385.179 569.67 386.089 579.798 389.774Z" fill="#E7C24E"/>
<path d="M310.936 395.568C284.97 368.982 284.262 326.751 309.323 299.31C334.384 271.869 376.503 268.755 405.327 292.213C434.15 315.671 439.658 357.546 417.882 387.662L420.68 389.401C417.033 390.336 408.744 399.956 405.019 403.489L400.965 406.143C409.085 409.903 407.164 412.076 407.467 421.021C397.372 423.034 389.05 424.94 378.621 424.742C367.688 423.071 357.369 427.469 348.959 418.981C336.377 414.1 329.574 412.055 318.387 404.58C315.384 401.84 312.367 398.773 308.755 396.974L310.936 395.568Z" fill="#F2CE50"/>
<path d="M371.446 415.915C372.368 416.919 373.123 416.972 374.44 417.334C385.895 414.126 390.848 412.584 400.965 406.143C409.085 409.903 407.164 412.076 407.467 421.021C397.372 423.034 389.05 424.94 378.621 424.742C367.688 423.071 357.369 427.469 348.959 418.981L351.081 415.969C357.836 416.943 364.697 416.924 371.446 415.915Z" fill="#BB8E2C"/>
<path d="M371.446 415.915C390.094 413.127 406.833 402.942 417.882 387.662L420.68 389.401C417.033 390.336 408.744 399.956 405.019 403.489L400.965 406.143C390.848 412.584 385.895 414.126 374.44 417.334C373.123 416.972 372.368 416.919 371.446 415.915Z" fill="#7B591B"/>
<path d="M310.936 395.568C321.71 406.599 335.821 413.769 351.081 415.969L348.959 418.981C336.377 414.1 329.574 412.055 318.387 404.58C315.384 401.84 312.367 398.773 308.755 396.974L310.936 395.568Z" fill="#93833A"/>
<path d="M357.923 288.016C390.221 286.323 417.777 311.131 419.477 343.431C421.177 375.73 396.376 403.295 364.08 405.001C331.772 406.709 304.199 381.897 302.499 349.588C300.798 317.278 325.615 289.709 357.923 288.016Z" fill="black"/>
<path d="M357.217 291.741C387.044 289.555 413.114 311.69 415.798 341.478C418.482 371.265 396.788 397.704 367.05 400.885C347.367 402.991 328.079 394.317 316.593 378.193C305.107 362.07 303.209 341.005 311.628 323.088C320.047 305.171 337.475 293.188 357.217 291.741Z" fill="#F6D65C"/>
<path d="M335.323 330.331C332.798 327.662 330.899 325.391 330.927 321.87C335.612 319.552 389.04 319.41 392.198 322.198C392.425 325.473 391.402 326.544 389.653 329.244C386.105 333.686 384.788 334.454 385.613 340.248C380.834 345.109 376.219 343.806 368.542 343.973C368.276 354.168 370.783 380.486 362.586 386.56L360.806 385.664C355.397 376.288 356.768 355.331 356.823 343.982C350.873 344.06 341.45 345.107 338.265 339.36C339.445 335.566 339.022 336.718 342.257 333.833C340.346 330.666 340.17 331.546 335.323 330.331Z" fill="#583F12"/>
<path d="M335.323 330.331C332.798 327.662 330.899 325.391 330.927 321.87C335.612 319.552 389.04 319.41 392.198 322.198C392.425 325.473 391.402 326.544 389.653 329.244C386.105 333.686 384.788 334.454 385.613 340.248C385.005 338.656 384.596 336.481 383.069 336.113C372.67 333.606 351.432 338.029 342.257 333.833C340.346 330.666 340.17 331.546 335.323 330.331Z" fill="#583F12"/>
<path d="M335.323 330.331C348.999 328.31 376.47 325.4 389.653 329.244C386.105 333.686 384.788 334.454 385.613 340.248C385.005 338.656 384.596 336.481 383.069 336.113C372.67 333.606 351.432 338.029 342.257 333.833C340.346 330.666 340.17 331.546 335.323 330.331Z" fill="#93833A"/>
<path d="M579.798 389.774C577.187 385.134 574.738 380.727 572.605 375.833C548.002 319.41 596.297 260.799 656.958 278.398C675.567 283.942 691.268 296.548 700.701 313.52C713.379 336.722 711.903 370.089 693.445 390.308C692.11 391.768 690.627 393.516 688.912 394.464L684.62 396.763C680.558 400.884 676.03 403.783 670.825 406.254C656.549 413.8 639.51 418.115 623.535 414.084C619.063 416.89 610.597 413.454 606.035 411.785C601.144 409.104 596.791 404.147 591.62 400.712C587.416 396.996 584.82 394.094 581.109 389.956L579.798 389.774Z" fill="#EFC649"/>
<path d="M626.396 403.414C600.414 398.556 580.841 377 578.503 350.67C576.167 324.34 591.638 299.673 616.358 290.315C641.078 280.958 669.003 289.197 684.686 310.475C700.369 331.752 699.974 360.867 683.721 381.713C670.17 399.093 648.058 407.463 626.396 403.414Z" fill="black"/>
<path d="M624.379 291.585C654.155 284.295 684.171 302.652 691.247 332.481C698.324 362.31 679.754 392.196 649.877 399.059C620.301 405.855 590.783 387.51 583.777 357.981C576.771 328.453 594.903 298.803 624.379 291.585Z" fill="#F0CA52"/>
<path d="M610.594 328.429C608.874 326.247 606.878 324.412 606.902 321.837C610.42 319.822 661.892 319.412 666.554 321.914C667.701 324.922 666.831 325.846 664.826 328.566C663.613 331.176 662.128 333.503 662.399 336.239C661.597 340.546 662.386 339.615 659.683 342.484C655.808 344.3 650.46 343.859 646.059 343.856C646.164 353.717 647.079 380.759 639.444 387.102C630.747 385.557 632.337 351.265 632.407 344.016C627.478 343.927 620.776 344.135 616.206 342.768C615.337 341.776 614.708 341.266 614.438 339.977C613.282 335.395 612.337 332.846 610.594 328.429Z" fill="#93833A"/>
<path d="M614.438 339.977L615.393 337.441C622.961 335.127 652.692 336.179 662.399 336.239C661.597 340.546 662.386 339.615 659.683 342.484C655.808 344.3 650.46 343.859 646.059 343.856C646.164 353.717 647.079 380.759 639.444 387.102C630.747 385.557 632.337 351.265 632.407 344.016C627.478 343.927 620.776 344.135 616.206 342.768C615.337 341.776 614.708 341.266 614.438 339.977Z" fill="#583F12"/>
<path d="M610.594 328.429C608.874 326.247 606.878 324.412 606.902 321.837C610.42 319.822 661.892 319.412 666.554 321.914C667.701 324.922 666.831 325.846 664.826 328.566C656.618 327.014 617.849 326.702 610.594 328.429Z" fill="#583F12"/>
<path d="M626.396 403.414C648.058 407.463 670.17 399.093 683.721 381.713C683.715 388.416 680.039 384.463 679.076 391.627C681.785 391.751 681.354 391.326 683.245 392.641L684.62 396.763C680.558 400.884 676.03 403.783 670.825 406.254C669.53 403.808 670.316 404.492 668.001 403.32C661.508 404.776 634.538 405.422 627.559 404.988L626.396 403.414Z" fill="#E0B745"/>
<path d="M581.109 389.956C586.634 391.571 597.446 402.905 603.443 406.812C610.34 411.307 617.964 411.658 623.535 414.084C619.063 416.89 610.597 413.454 606.035 411.785C601.144 409.104 596.791 404.147 591.62 400.712C587.416 396.996 584.82 394.094 581.109 389.956Z" fill="#93833A"/>
<path d="M208.322 442.558C206.574 435.64 205.76 429.752 211.495 424.441C229.124 408.114 257.681 406.325 280.201 401.41C288.074 399.693 301.09 397.229 308.755 396.974C312.367 398.773 315.384 401.84 318.387 404.58C329.574 412.055 336.377 414.1 348.959 418.981C357.369 427.469 367.688 423.071 378.621 424.742C371.45 426.415 356.269 424.788 347.219 425.463C350.095 426.613 353.025 428.275 353.909 431.471C355.726 438.034 361.752 452.787 356.94 458.424C350.872 459.458 345.855 458.222 339.693 459.185C305.418 451.338 267.27 452.662 234.765 436.639C229.333 433.961 224.021 431.147 218.696 428.267C220.271 432.03 222.141 436.9 223.901 440.476C254.082 456.38 307.705 463.652 342.061 467.219C351.954 468.246 364.752 468.265 373.986 469.623L373.374 472.259L376.628 477.009L376.024 477.998C370.037 478.872 364.935 478.092 359.471 478.806C357.116 478.716 343.59 476.738 340.089 476.372C304.385 472.638 236.768 464.986 208.322 442.558Z" fill="#F6D65E"/>
<path d="M318.387 404.58C329.574 412.055 336.377 414.1 348.959 418.981C357.369 427.469 367.688 423.071 378.621 424.742C371.45 426.415 356.269 424.788 347.219 425.463C345.653 424.884 335.82 424.176 333.724 424.012C319.53 422.897 307.631 420.103 294.022 415.8C301.477 410.977 316.396 407.147 318.387 404.58Z" fill="#E0B745"/>
<path d="M791.335 440.749C788.66 449.911 783.232 454.363 782.419 461.735L781.459 459.5C777.134 459.411 763.781 466.026 757.549 467.332C694.206 483.271 628.133 488.732 562.927 491.392C521.81 493.068 479.07 490.19 437.778 491.683C423.002 491.182 407.387 489.175 392.648 488.545C333.747 486.025 282.747 479.725 225.943 462.498C222.929 460.412 220.444 459.949 216.925 458.975C214.051 455.035 209.773 447.172 208.322 442.558C236.768 464.986 304.385 472.638 340.089 476.372C343.59 476.738 357.116 478.716 359.471 478.806C363.705 479.903 388.824 480.996 393.542 481.289C465.792 485.758 745.534 489.903 791.335 440.749Z" fill="#1A2749"/>
<path d="M218.696 428.267C224.021 431.147 229.333 433.961 234.765 436.639C267.27 452.662 305.418 451.338 339.693 459.185C367.104 463.078 398.631 463.26 426.105 464.411C519.825 468.341 617.419 466.084 710.078 450.932C729.386 447.776 750.824 444.787 767.496 434.715C770.828 432.702 775.26 429.628 777.714 431.803C777.649 463.179 589.068 472.295 560.283 472.79C499.595 473.831 434.443 475.131 373.986 469.623C364.752 468.265 351.954 468.246 342.061 467.219C307.705 463.652 254.082 456.38 223.901 440.476C222.141 436.9 220.271 432.03 218.696 428.267Z" fill="#1A2232"/>
<path d="M684.62 396.763L688.912 394.464L688.19 397.914C685.197 399.733 682.191 401.078 680.688 404.163C681.809 410.531 699.997 412.626 706.902 415.171C679.154 424.361 652.711 427.333 623.456 425.19C621.025 425.012 611.721 424.733 610.049 423.722C606.715 421.996 605.49 421.956 601.813 421.392C600.736 418.785 602.836 415.583 604.075 412.197L606.035 411.785C610.597 413.454 619.063 416.89 623.535 414.084C639.51 418.115 656.549 413.8 670.825 406.254C676.03 403.783 680.558 400.884 684.62 396.763Z" fill="#BB8E2C"/>
<path d="M591.62 400.712C596.791 404.147 601.144 409.104 606.035 411.785L604.075 412.197C602.836 415.583 600.736 418.785 601.813 421.392C605.49 421.956 606.715 421.996 610.049 423.722C597 423.566 578.108 416.902 566 412.327C572.072 410.16 587.545 405.261 591.62 400.712Z" fill="#CBA139"/>
<path d="M423.155 389.181C438.035 386.79 449.289 387.123 464.356 387.069L462.241 390.208C459.34 390.542 459.339 390.747 457.427 392.57C447.582 401.953 432.792 395.172 420.267 395.423L427.092 392.194L427.353 390.8C425.966 390.244 424.57 389.656 423.155 389.181Z" fill="#F6D65E"/>
<path d="M405.019 403.489C408.443 406.438 427.923 410.205 434.433 412.322C424.309 417.209 416.836 417.705 407.467 421.021C407.164 412.076 409.085 409.903 400.965 406.143L405.019 403.489Z" fill="#E0B745"/>
<path d="M233.854 531.11L234.367 529.29C236.93 528.681 239.032 529.967 241.438 531.427C241.807 531.65 242.173 531.879 242.534 532.115L255.214 537.874C261.055 540.065 271.13 543.088 276.02 545.183C276.748 552.14 284.409 579.534 292.208 579.762C293.283 578.289 293.758 577.848 294.183 576.034C296.861 587.557 307.21 616.491 320.731 617.096C325.506 615.025 330.598 608.939 333.994 604.94C343.172 590.606 347.281 575.26 348.079 558.33C381.701 565.415 432.885 565.609 468.305 568.62C465.143 590.217 470.77 612.18 483.926 629.595C488.999 636.407 492.773 640.389 500.666 643.557C523.458 628.48 534.294 595.361 531.01 568.866C549.854 565.797 563.883 567.496 581.27 565.756C601.546 563.726 632.994 563.039 652.046 558.477C651.978 580.377 660.611 608.067 681.027 619.125C685.696 619.673 687.693 619.548 692.425 619.243C673.154 630.996 628.692 643.971 606.035 648.128C594.718 650.204 579.803 652.081 569.079 655.15C557.821 655.049 546.436 657.091 535.309 657.391C524.692 657.677 513.616 657.082 502.92 657.21C475.226 657.541 447.608 657.497 420.082 653.697L389.555 647.28C358.292 644.63 293.432 618.39 269.446 599.068C244.004 578.574 238.546 575.941 233.817 543.917C234.514 538.241 234.569 536.77 233.854 531.11Z" fill="#D5AB3E"/>
<path d="M233.854 531.11L234.367 529.29C236.93 528.681 239.032 529.967 241.438 531.427C241.807 531.65 242.173 531.879 242.534 532.115L255.214 537.874C261.055 540.065 271.13 543.088 276.02 545.183C276.748 552.14 284.409 579.534 292.208 579.762C293.283 578.289 293.758 577.848 294.183 576.034C296.861 587.557 307.21 616.491 320.731 617.096C325.506 615.025 330.598 608.939 333.994 604.94C335.718 612.729 380.053 635.955 389.66 641.578L389.467 642.596C386.489 640.912 382.496 639.408 379.34 637.852C370.77 633.627 338.789 610.431 331.346 611.419C330.341 612.443 325.931 617.163 325.142 617.745C322.021 620.05 315.243 617.373 315.197 622.547C317.509 624.673 325.027 624.718 327.83 627.158C337.539 635.607 383.836 642.17 389.555 647.28C358.292 644.63 293.432 618.39 269.446 599.068C244.004 578.574 238.546 575.941 233.817 543.917C234.514 538.241 234.569 536.77 233.854 531.11Z" fill="#D0A43A"/>
<path d="M255.214 537.874C254.687 545.623 261.024 574.253 261.067 574.096C256.906 573.084 233.732 540.199 242.534 532.115L255.214 537.874Z" fill="#F6D65E"/>
<path d="M216.925 458.975C220.444 459.949 222.929 460.412 225.943 462.498C282.747 479.725 333.747 486.025 392.648 488.545C407.387 489.175 423.002 491.182 437.778 491.683C449.096 495.66 475.813 493.351 489.469 493.218L576.201 492.516L575.645 493.109C570.355 498.851 556.467 525.154 552.889 526.506C539.03 531.744 489.197 530.542 474.855 530.517C453.158 530.479 431.772 527.182 412.766 530.012C373.035 530.493 265.797 514.481 234.106 495.55C227.125 492.069 224.634 490.008 219.394 484.593C217.699 480.239 216.441 464.1 216.925 458.975Z" fill="#F6D65E"/>
<path d="M216.925 458.975C220.444 459.949 222.929 460.412 225.943 462.498C227.278 470.957 234.074 490.448 234.106 495.55C227.125 492.069 224.634 490.008 219.394 484.593C217.699 480.239 216.441 464.1 216.925 458.975Z" fill="#E0B745"/>
<path d="M437.778 491.683C479.07 490.19 521.81 493.068 562.927 491.392C628.133 488.732 694.206 483.271 757.549 467.332C757.143 471.552 756.796 476.105 755.839 480.223C754.442 486.227 748.962 498.426 748.141 504.048C733.449 509.262 718.068 512.161 702.727 515.432C633.464 530.201 562.208 530.719 491.743 532.863C478.127 533.276 463.721 531.273 450.04 531.19C441.321 530.832 419.722 531.657 412.766 530.012C431.772 527.182 453.158 530.479 474.855 530.517C489.197 530.542 539.03 531.744 552.889 526.506C556.467 525.154 570.355 498.851 575.645 493.109L576.201 492.516L489.469 493.218C475.813 493.351 449.096 495.66 437.778 491.683Z" fill="#C79B35"/>
<path d="M681.027 619.125C686.625 611.346 693.107 602.575 698.151 593.963C703.949 584.067 708.115 564.908 705.853 553.622C705.503 551.874 704.999 552.513 705.427 550.037C710.134 547.243 727.115 543.941 733.384 541.912C745.25 538.073 752.202 534.659 763.23 528.829C763.273 536.328 763.356 543.826 763.478 551.323C761.829 568.884 750.954 579.201 738.421 590.328C732.18 595.868 700.043 617.937 692.425 619.243C687.693 619.548 685.696 619.673 681.027 619.125Z" fill="#BB8E2C"/>
<path d="M784.308 489.495C788.114 499.382 782.552 502.01 784.208 506.285C791.871 513.48 796.321 519.754 796.673 530.785C796.719 532.397 796.73 534.011 796.706 535.625C791.78 542.823 789.384 544.801 783.161 550.882L781.954 553.29C783.435 561.027 782.263 584.421 773.933 586.719C768.394 583.862 769.421 559.61 769.001 553.109C770.545 541.808 770.148 523.662 770.031 511.948C769.284 513.147 768.502 514.325 767.685 515.477C759.284 527.264 716.764 539.224 702.26 541.663C700.617 536.799 697.986 530.72 696.017 525.838C721.243 522.024 770.652 512.612 784.308 489.495Z" fill="#BB8E2C"/>
<path d="M784.208 506.285C791.871 513.48 796.321 519.754 796.673 530.785C796.719 532.397 796.73 534.011 796.706 535.625C791.78 542.823 789.384 544.801 783.161 550.882C777.938 543.902 779.793 522.554 781.312 514.149C782.764 511.974 780.417 511.335 784.208 506.285Z" fill="#BB8E2C"/>
<path d="M781.954 553.29C773.119 545.76 775.461 523.695 779.612 513.69L781.312 514.149C779.793 522.554 777.938 543.902 783.161 550.882L781.954 553.29Z" fill="#313512"/>
<path d="M215.01 501.375C219.999 501.524 220.672 501.631 225.301 503.481L226.977 502.682C252.164 514.972 275.571 521.123 302.755 526.62C300.7 532.014 298.527 537.363 296.237 542.662C285.287 538.959 274.18 535.185 263.231 531.513C247.822 526.347 239.541 524.85 228.846 511.878C228.896 519.657 228.69 529.743 229.596 537.26L229.569 545.312C229.731 551.939 230.037 582.979 227.265 587.082L225.434 588.095C219.014 584.517 214.786 559.665 217.609 552.604L216.666 549.379C216.372 549.339 216.077 549.298 215.783 549.256C195.405 540.807 202.874 513.704 215.749 505.216C215.813 504.466 215.21 502.252 215.01 501.375Z" fill="#F7D65C"/>
<path d="M215.749 505.216C223.386 510.53 218.695 512.576 220.056 519.916L219.246 544.271C219.405 546.022 219.5 547.896 219.862 549.598L216.666 549.379C216.372 549.339 216.077 549.298 215.783 549.256C195.405 540.807 202.874 513.704 215.749 505.216Z" fill="#F6D65E"/>
<path d="M220.056 519.916L221.347 519.49C222.647 522.738 222.354 534.776 221.94 538.463C221.103 540.115 219.74 542.576 219.246 544.271L220.056 519.916Z" fill="#313512"/>
<path d="M219.246 544.271C219.74 542.576 221.103 540.115 221.94 538.463C222.352 541.954 223.228 545.625 221.652 548.621L219.862 549.598C219.5 547.896 219.405 546.022 219.246 544.271Z" fill="#1B211F"/>
<path d="M757.549 467.332C763.781 466.026 777.134 459.411 781.459 459.5L782.419 461.735C781.053 469.611 780.811 474.914 780.45 482.947C777.478 492.867 757.743 501.991 748.141 504.048C748.962 498.426 754.442 486.227 755.839 480.223C756.796 476.105 757.143 471.552 757.549 467.332Z" fill="#BB8E2C"/>
<path d="M276.02 545.183C281.984 546.664 287.957 548.102 293.941 549.494C293.412 558.742 292.844 566.824 294.183 576.034C293.758 577.848 293.283 578.289 292.208 579.762C284.409 579.534 276.748 552.14 276.02 545.183Z" fill="#F6D65E"/>
<path d="M229.596 537.26C229.965 534.548 229.92 531.46 229.97 528.695L231.137 528.591L230.362 524.711L230.926 524.195C232.3 526.848 231.978 529.072 233.854 531.11C234.569 536.77 234.514 538.241 233.817 543.917L229.569 545.312L229.596 537.26Z" fill="#1B211F"/>
<path d="M215.103 489.066C218.54 494.65 225.834 500.755 226.977 502.682L225.301 503.481C220.672 501.631 219.999 501.524 215.01 501.375C213.688 497.389 214.573 493.26 215.103 489.066Z" fill="#F6D65E"/>
<path d="M491.275 542.442C495.71 542.247 503.97 542.712 508.691 542.821C524.371 572.933 525.52 597.233 504.126 625.052C502.143 626.552 501.853 626.54 499.412 627.238C488.309 625.173 479.751 597.261 477.582 587.304C473.931 570.543 482.013 555.748 491.275 542.442Z" fill="#E0B745"/>
<path d="M661.008 531.553L661.488 531.619L662.243 532.747C660.447 538.389 657.195 543.861 654.359 549.102C639.793 552.26 535.09 561.959 527.119 558.656C524.395 551.661 522.518 548.841 518.471 542.563C560.466 543.034 619.08 536.773 661.008 531.553Z" fill="#BB8E2C"/>
<path d="M337.768 531.475C364.078 536.393 394.703 538.872 421.398 540.234C440.148 541.192 459.421 543.129 478.191 542.566C476.23 546.68 474.3 551.397 472.46 555.616C471.71 557.439 471.076 558.143 469.899 559.741C448.072 559.556 362.428 554.444 343.902 547.956C342.926 544.085 339.365 535.557 337.768 531.475Z" fill="#F6D65E"/>
<path d="M315.408 602.639C300.979 583.202 295.888 559.637 307.638 536.943C311.01 530.429 319.142 526.141 325.807 530.726C332.291 535.186 335.899 547.575 337.332 555.035C340.701 566.264 338.197 572.499 334.921 583.485C332.884 589.135 324.926 607.603 317.564 605.216L315.408 602.639Z" fill="#F6D65E"/>
<path d="M329.905 581.48C332.274 582.005 332.779 582.32 334.921 583.485C332.884 589.135 324.926 607.603 317.564 605.216L315.408 602.639C320.246 596.724 325.835 587.923 329.905 581.48Z" fill="#E0B745"/>
<path d="M337.332 555.035C340.701 566.264 338.197 572.499 334.921 583.485C332.779 582.32 332.274 582.005 329.905 581.48C333.926 571.848 332.416 560.886 337.332 555.035Z" fill="#E0B745"/>
<path d="M681.663 528.276C684.369 528.041 684.686 528.079 687.101 529.313C691.747 533.985 697.872 552.225 698.253 558.635C699.3 576.277 690.406 594.173 679.685 607.388C659.85 589.54 654.992 554.612 671.925 532.315C674.706 528.652 677.223 528.681 681.663 528.276Z" fill="#BB8E2C"/>
<path d="M420.082 653.697C447.608 657.497 475.226 657.541 502.92 657.21C513.616 657.082 524.692 657.677 535.309 657.391C546.436 657.091 557.821 655.049 569.079 655.15C569.836 658.426 570.048 658.79 571.928 661.506C573.277 665.38 571.787 669.94 571.45 674.434L576.098 678.754C592.796 689.329 601.471 708.601 607.563 726.722C609.365 730.609 612.572 733.587 615.531 736.713C634.9 766.674 581.928 777.659 562.781 780.516C526.396 785.943 490.109 785.989 453.515 782.905C450.301 782.64 447.089 782.558 443.929 781.781C442.952 781.538 441.982 781.261 441.025 780.949C434.24 781.523 412.996 776.103 406.16 773.59C390.43 767.07 369.117 757.209 381.446 736.302C384.239 731.95 387.783 730.914 391.83 725.677C393.676 722.81 398.11 706.485 402.582 699.836C407.578 692.41 412.171 681.974 422.351 678.93L426.577 672.019C425.817 667.662 425.731 665.257 425.609 660.809C424.827 656.748 423.242 656.148 420.082 653.697Z" fill="#EECA52"/>
<path d="M381.446 736.302C384.239 731.95 387.783 730.914 391.83 725.677C392.296 730.249 392.55 732.222 396.168 735.222C397.265 736.118 398.392 736.976 399.548 737.792C406.124 741.234 413.279 743.231 420.455 745.036C457.383 751.907 491.26 755.859 528.863 752.455C539.116 751.528 548.523 751.84 558.578 748.755C567.834 747.876 584.09 744.194 592.798 740.65C601.146 737.253 604.362 734.628 607.563 726.722C609.365 730.609 612.572 733.587 615.531 736.713C634.9 766.674 581.928 777.659 562.781 780.516C526.396 785.943 490.109 785.989 453.515 782.905C450.301 782.64 447.089 782.558 443.929 781.781C442.952 781.538 441.982 781.261 441.025 780.949C434.24 781.523 412.996 776.103 406.16 773.59C390.43 767.07 369.117 757.209 381.446 736.302Z" fill="#1A2749"/>
<path d="M615.531 736.713C634.9 766.674 581.928 777.659 562.781 780.516C526.396 785.943 490.109 785.989 453.515 782.905C450.301 782.64 447.089 782.558 443.929 781.781C442.952 781.538 441.982 781.261 441.025 780.949C471.102 776.898 457.87 790.467 476.168 764.624C470.205 763.774 463.039 764.415 458.781 760.855C490.29 764.276 596.838 766.239 615.531 736.713Z" fill="#CFA338"/>
<path d="M408.738 752.671C428.426 757.452 439.628 758.26 458.781 760.855C463.039 764.415 470.205 763.774 476.168 764.624C457.87 790.467 471.102 776.898 441.025 780.949C434.24 781.523 412.996 776.103 406.16 773.59C409.3 764.22 404.622 758.23 408.738 752.671Z" fill="#F6D65E"/>
<path d="M381.446 736.302C386.567 743.51 400.495 749.353 408.738 752.671C404.622 758.23 409.3 764.22 406.16 773.59C390.43 767.07 369.117 757.209 381.446 736.302Z" fill="#E0B745"/>
<path d="M420.082 653.697C447.608 657.497 475.226 657.541 502.92 657.21C513.616 657.082 524.692 657.677 535.309 657.391C546.436 657.091 557.821 655.049 569.079 655.15C569.836 658.426 570.048 658.79 571.928 661.506C573.277 665.38 571.787 669.94 571.45 674.434L576.098 678.754C561.554 689.491 553.649 686.788 542.111 692.663C535.059 691.727 524.035 693.297 516.589 693.633C496.619 694.536 463.459 695.571 445.092 688.756C439.012 687.615 435.464 686.002 429.756 683.663C427.246 682.197 424.787 680.526 422.351 678.93L426.577 672.019C425.817 667.662 425.731 665.257 425.609 660.809C424.827 656.748 423.242 656.148 420.082 653.697Z" fill="#152030"/>
<path d="M426.577 672.019C433.867 678.61 439.118 680.66 448.916 681.022L466.454 683.823C480.245 685.746 513.009 685.58 527.114 684.473C542.184 682.567 557.516 680.929 571.45 674.434L576.098 678.754C561.554 689.491 553.649 686.788 542.111 692.663C535.059 691.727 524.035 693.297 516.589 693.633C496.619 694.536 463.459 695.571 445.092 688.756C439.012 687.615 435.464 686.002 429.756 683.663C427.246 682.197 424.787 680.526 422.351 678.93L426.577 672.019Z" fill="#1A2749"/>
<path d="M467.473 665.454C484.556 666.9 499.546 666.667 516.665 666.651C520.128 666.689 523.368 666.222 525.841 668.441C528.435 672.147 525.237 678.551 527.114 684.473C513.009 685.58 480.245 685.746 466.454 683.823C467.742 676.471 465.307 671.425 467.473 665.454Z" fill="#E0B745"/>
<path d="M571.928 661.506C573.277 665.38 571.787 669.94 571.45 674.434C557.516 680.929 542.184 682.567 527.114 684.473C525.237 678.551 528.435 672.147 525.841 668.441C523.368 666.222 520.128 666.689 516.665 666.651C533.352 663.804 552.058 665.095 571.928 661.506Z" fill="#BB8E2C"/>
<path d="M425.609 660.809C428.788 659.658 441.672 664.824 448.868 664.906C447.793 671.445 447.457 674.343 448.916 681.022C439.118 680.66 433.867 678.61 426.577 672.019C425.817 667.662 425.731 665.257 425.609 660.809Z" fill="#E0B745"/>
<path d="M448.868 664.906C454.339 664.891 462.264 664.606 467.473 665.454C465.307 671.425 467.742 676.471 466.454 683.823L448.916 681.022C447.457 674.343 447.793 671.445 448.868 664.906Z" fill="#F6D65E"/>
<path d="M576.098 678.754C592.796 689.329 601.471 708.601 607.563 726.722C604.362 734.628 601.146 737.253 592.798 740.65C584.09 744.194 567.834 747.876 558.578 748.755C561.308 724.765 552.265 712.588 542.111 692.663C553.649 686.788 561.554 689.491 576.098 678.754Z" fill="#BB8E2C"/>
<path d="M422.351 678.93C424.787 680.526 427.246 682.197 429.756 683.663C435.464 686.002 439.012 687.615 445.092 688.756C443.098 690.499 421.538 739.805 420.455 745.036C413.279 743.231 406.124 741.234 399.548 737.792C398.392 736.976 397.265 736.118 396.168 735.222C392.55 732.222 392.296 730.249 391.83 725.677C393.676 722.81 398.11 706.485 402.582 699.836C407.578 692.41 412.171 681.974 422.351 678.93Z" fill="#E0B745"/>
<path d="M422.351 678.93C424.787 680.526 427.246 682.197 429.756 683.663C429.266 689.217 405.732 732.753 401.323 736.414C400.744 736.893 400.15 737.342 399.548 737.792C398.392 736.976 397.265 736.118 396.168 735.222C392.55 732.222 392.296 730.249 391.83 725.677C393.676 722.81 398.11 706.485 402.582 699.836C407.578 692.41 412.171 681.974 422.351 678.93Z" fill="#F6D65E"/>
<path d="M485.384 188.661C523.746 180.557 561.373 205.227 569.239 243.641C577.105 282.054 552.203 319.53 513.744 327.158C475.62 334.721 438.544 310.082 430.747 272.003C422.95 233.924 447.357 196.693 485.384 188.661Z" fill="#F4CD4E"/>
<path d="M497.948 198.302C530.114 197.168 557.166 222.205 558.523 254.364C559.882 286.523 535.035 313.75 502.888 315.331C470.424 316.927 442.87 291.78 441.5 259.304C440.129 226.827 465.465 199.447 497.948 198.302Z" fill="black"/>
<path d="M495.23 202.276C525.305 199.457 551.995 221.495 554.92 251.562C557.844 281.629 535.902 308.398 505.848 311.429C475.643 314.476 448.711 292.398 445.773 262.18C442.833 231.963 465.004 205.109 495.23 202.276Z" fill="#F4D359"/>
<path d="M475.666 246.725C482.631 246.079 517.491 245.548 523.279 246.737L523.615 248.416C522.219 251.655 522.011 252.062 519.431 254.567C515.6 256.271 510.685 255.686 506.4 255.544C506.362 263.908 506.335 271.605 505.74 279.976C505.356 285.98 505.775 295 499.726 297.99L497.613 296.669C490.997 285.431 492.323 268.58 492.327 255.516C483.639 256.401 477.204 257.281 475.666 246.725Z" fill="#583F12"/>
<path d="M481.389 231.179C490.75 231.521 526.307 227.961 529.686 234.95C528.693 239.527 527.381 240.243 523.311 241.5C511.47 241.682 479.867 244.028 471.946 237.939C470.446 234.855 470.649 236.219 471.218 232.792C473.834 230.997 477.813 231.381 481.389 231.179Z" fill="#583F12"/>
<path d="M614.648 115.121C622.048 115.652 627.661 116.526 634.784 114.143L634.649 115.362C628.097 120.376 618.159 120.396 610.913 117.047C611.493 116.854 613.953 115.491 614.648 115.121Z" fill="#1A2749" fill-opacity="0.027451"/>
<path d="M606.607 873.397C613.189 872.305 632.89 868.222 637.043 874.146L636.763 875.615C627.601 875.632 627.419 873.402 616.003 874.403C613.827 873.824 609.04 873.586 606.607 873.397Z" fill="#111836" fill-opacity="0.215686"/>
<path d="M122.976 369.94C126.654 358.218 119.395 358 120.44 353.344C123.098 353.682 124.493 353.596 126.633 355.188C128.636 359.516 126.625 367.571 124.919 371.873L122.976 369.94Z" fill="#1A2749" fill-opacity="0.215686"/>
<path d="M648.723 858.433C653.869 857.244 656.634 856.746 661.884 856.257L665.54 858.424C660.788 859.148 653.697 858.621 648.723 858.433Z" fill="#1A2749" fill-opacity="0.764706"/>
</svg>
