<svg width="24" height="24" viewBox="0 0 24 24" fill="none" xmlns="http://www.w3.org/2000/svg">
<path d="M19.9902 12.9931C19.9902 17.9907 16.492 20.4895 12.334 21.9388C12.1162 22.0126 11.8797 22.009 11.6643 21.9288C7.49634 20.4895 3.99805 17.9907 3.99805 12.9931V5.99655C3.99805 5.73146 4.10335 5.47723 4.2908 5.28978C4.47824 5.10234 4.73247 4.99703 4.99756 4.99703C6.99658 4.99703 9.49537 3.79762 11.2345 2.27836C11.4463 2.09745 11.7156 1.99805 11.9941 1.99805C12.2727 1.99805 12.542 2.09745 12.7538 2.27836C14.5029 3.80761 16.9917 4.99703 18.9907 4.99703C19.2558 4.99703 19.5101 5.10234 19.6975 5.28978C19.8849 5.47723 19.9902 5.73146 19.9902 5.99655V12.9931Z" stroke="white" stroke-width="1.99902" stroke-linecap="round" stroke-linejoin="round"/>
</svg>
