<svg width="19" height="19" viewBox="0 0 19 19" fill="none" xmlns="http://www.w3.org/2000/svg">
<path d="M7.44471 12.0822C7.37032 11.7938 7.22003 11.5307 7.00947 11.3201C6.7989 11.1095 6.53576 10.9593 6.24742 10.8849L1.13585 9.56678C1.04864 9.54202 0.971886 9.4895 0.917232 9.41718C0.862578 9.34485 0.833008 9.25667 0.833008 9.16602C0.833008 9.07536 0.862578 8.98718 0.917232 8.91486C0.971886 8.84253 1.04864 8.79001 1.13585 8.76526L6.24742 7.44633C6.53566 7.37201 6.79873 7.22185 7.00929 7.01144C7.21984 6.80103 7.37019 6.53807 7.44471 6.24988L8.7628 1.1383C8.7873 1.05075 8.83977 0.973618 8.91221 0.918672C8.98464 0.863726 9.07306 0.833984 9.16398 0.833984C9.25489 0.833984 9.34332 0.863726 9.41575 0.918672C9.48818 0.973618 9.54065 1.05075 9.56516 1.1383L10.8824 6.24988C10.9568 6.53822 11.1071 6.80136 11.3177 7.01192C11.5282 7.22248 11.7914 7.37278 12.0797 7.44716L17.1913 8.76442C17.2792 8.78867 17.3567 8.84108 17.4119 8.91363C17.4672 8.98617 17.4971 9.07483 17.4971 9.16602C17.4971 9.2572 17.4672 9.34586 17.4119 9.41841C17.3567 9.49095 17.2792 9.54337 17.1913 9.56761L12.0797 10.8849C11.7914 10.9593 11.5282 11.1095 11.3177 11.3201C11.1071 11.5307 10.9568 11.7938 10.8824 12.0822L9.56432 17.1937C9.53982 17.2813 9.48735 17.3584 9.41492 17.4134C9.34248 17.4683 9.25406 17.4981 9.16315 17.4981C9.07223 17.4981 8.98381 17.4683 8.91138 17.4134C8.83894 17.3584 8.78647 17.2813 8.76197 17.1937L7.44471 12.0822Z" stroke="#112250" stroke-width="1.66637" stroke-linecap="round" stroke-linejoin="round"/>
<path d="M15.4971 0.970703V4.30343" stroke="#112250" stroke-width="1.66637" stroke-linecap="round" stroke-linejoin="round"/>
<path d="M17.1628 2.63867H13.8301" stroke="#112250" stroke-width="1.66637" stroke-linecap="round" stroke-linejoin="round"/>
<path d="M2.16504 12.6348V14.3011" stroke="#112250" stroke-width="1.66637" stroke-linecap="round" stroke-linejoin="round"/>
<path d="M2.99937 13.4688H1.33301" stroke="#112250" stroke-width="1.66637" stroke-linecap="round" stroke-linejoin="round"/>
</svg>
