<svg width="142" height="176" viewBox="0 0 142 176" fill="none" xmlns="http://www.w3.org/2000/svg">
<path d="M45.8332 87.5028L62.4998 104.169L95.8332 70.8361M137.5 95.8364C137.5 137.503 108.333 158.336 73.6665 170.42C71.8512 171.035 69.8793 171.005 68.0832 170.336C33.3332 158.336 4.1665 137.503 4.1665 95.8364V37.5031C4.1665 35.293 5.04448 33.1733 6.60728 31.6105C8.17009 30.0477 10.2897 29.1698 12.4998 29.1698C29.1665 29.1698 49.9998 19.1698 64.4998 6.50309C66.2653 4.99475 68.5111 4.16602 70.8332 4.16602C73.1552 4.16602 75.401 4.99475 77.1665 6.50309C91.7498 19.2531 112.5 29.1698 129.166 29.1698C131.377 29.1698 133.496 30.0477 135.059 31.6105C136.622 33.1733 137.5 35.293 137.5 37.5031V95.8364Z" stroke="white" stroke-width="8.33333" stroke-linecap="round" stroke-linejoin="round"/>
</svg>
