<svg width="28" height="28" viewBox="0 0 28 28" fill="none" xmlns="http://www.w3.org/2000/svg">
<path d="M6.99951 25.6662V4.6672C6.99951 4.04839 7.24533 3.45493 7.6829 3.01737C8.12046 2.5798 8.71392 2.33398 9.33273 2.33398H18.6656C19.2844 2.33398 19.8779 2.5798 20.3154 3.01737C20.753 3.45493 20.9988 4.04839 20.9988 4.6672V25.6662H6.99951Z" stroke="white" stroke-width="2.33322" stroke-linecap="round" stroke-linejoin="round"/>
<path d="M6.99944 14H4.66623C4.04742 14 3.45395 14.2458 3.01639 14.6834C2.57883 15.1209 2.33301 15.7144 2.33301 16.3332V23.3329C2.33301 23.9517 2.57883 24.5451 3.01639 24.9827C3.45395 25.4203 4.04742 25.6661 4.66623 25.6661H6.99944" stroke="white" stroke-width="2.33322" stroke-linecap="round" stroke-linejoin="round"/>
<path d="M20.999 10.5H23.3322C23.951 10.5 24.5445 10.7458 24.9821 11.1834C25.4196 11.6209 25.6655 12.2144 25.6655 12.8332V23.3327C25.6655 23.9515 25.4196 24.545 24.9821 24.9825C24.5445 25.4201 23.951 25.6659 23.3322 25.6659H20.999" stroke="white" stroke-width="2.33322" stroke-linecap="round" stroke-linejoin="round"/>
<path d="M11.666 7H16.3325" stroke="white" stroke-width="2.33322" stroke-linecap="round" stroke-linejoin="round"/>
<path d="M11.666 11.666H16.3325" stroke="white" stroke-width="2.33322" stroke-linecap="round" stroke-linejoin="round"/>
<path d="M11.666 16.332H16.3325" stroke="white" stroke-width="2.33322" stroke-linecap="round" stroke-linejoin="round"/>
<path d="M11.666 20.998H16.3325" stroke="white" stroke-width="2.33322" stroke-linecap="round" stroke-linejoin="round"/>
</svg>
