<svg width="64" height="64" viewBox="0 0 64 64" fill="none" xmlns="http://www.w3.org/2000/svg">
<path d="M5.57292 16.6985L16.6985 5.57292L16.7301 5.54221C17.8435 4.42886 18.4039 3.86842 19.0595 3.46669C19.646 3.10726 20.2846 2.84172 20.9535 2.68113C21.708 2.5 22.5094 2.5 24.1128 2.5H39.884C41.4874 2.5 42.2923 2.5 43.0467 2.68113C43.7156 2.84172 44.3549 3.10726 44.9415 3.46669C45.6028 3.87197 46.1707 4.43983 47.3038 5.57292L58.4293 16.6984C59.563 17.8322 60.1288 18.3979 60.5342 19.0595C60.8936 19.646 61.157 20.2862 61.3175 20.9551C61.4987 21.7096 61.5 22.511 61.5 24.1144V39.8856C61.5 41.489 61.4987 42.2906 61.3175 43.0451C61.157 43.714 60.8936 44.3533 60.5342 44.9399C60.1288 45.6014 59.5631 46.1684 58.4293 47.3022L47.3038 58.4277C46.17 59.5615 45.603 60.1272 44.9415 60.5326C44.3549 60.892 43.7156 61.1586 43.0467 61.3191C42.2934 61.5 41.4898 61.5 39.8913 61.5H24.1055C22.507 61.5 21.7068 61.5 20.9535 61.3191C20.2846 61.1586 19.646 60.892 19.0595 60.5326C18.3979 60.1271 17.8322 59.5615 16.6985 58.4277L5.57292 47.3022C4.43985 46.1691 3.87196 45.6012 3.46669 44.9399C3.10726 44.3533 2.84172 43.714 2.68113 43.0451C2.5 42.2907 2.5 41.489 2.5 39.8856V24.1144C2.5 22.511 2.5 21.7096 2.68113 20.9551C2.84172 20.2862 3.10726 19.646 3.46669 19.0595C3.87089 18.3999 4.43576 17.835 5.56282 16.7079L5.57292 16.6985Z" fill="#112250"/>
<path d="M41.8333 25.4444L28.7222 38.5556L22.1667 32M16.6985 5.57292L5.57292 16.6985L5.56282 16.7079C4.43576 17.835 3.87089 18.3999 3.46669 19.0595C3.10726 19.646 2.84172 20.2862 2.68113 20.9551C2.5 21.7096 2.5 22.511 2.5 24.1144V39.8856C2.5 41.489 2.5 42.2907 2.68113 43.0451C2.84172 43.714 3.10726 44.3533 3.46669 44.9399C3.87196 45.6012 4.43985 46.1691 5.57292 47.3022L16.6985 58.4277C17.8322 59.5615 18.3979 60.1271 19.0595 60.5326C19.646 60.892 20.2846 61.1586 20.9535 61.3191C21.7068 61.5 22.507 61.5 24.1055 61.5H39.8913C41.4898 61.5 42.2934 61.5 43.0467 61.3191C43.7156 61.1586 44.3549 60.892 44.9415 60.5326C45.603 60.1272 46.17 59.5615 47.3038 58.4277L58.4293 47.3022C59.5631 46.1684 60.1288 45.6014 60.5342 44.9399C60.8936 44.3533 61.157 43.714 61.3175 43.0451C61.4987 42.2906 61.5 41.489 61.5 39.8856V24.1144C61.5 22.511 61.4987 21.7096 61.3175 20.9551C61.157 20.2862 60.8936 19.646 60.5342 19.0595C60.1288 18.3979 59.563 17.8322 58.4293 16.6984L47.3038 5.57292C46.1707 4.43983 45.6028 3.87197 44.9415 3.46669C44.3549 3.10726 43.7156 2.84172 43.0467 2.68113C42.2923 2.5 41.4874 2.5 39.884 2.5H24.1128C22.5094 2.5 21.708 2.5 20.9535 2.68113C20.2846 2.84172 19.646 3.10726 19.0595 3.46669C18.4039 3.86842 17.8435 4.42886 16.7301 5.54221L16.6985 5.57292Z" stroke="white" stroke-width="5" stroke-linejoin="round"/>
</svg>
