<svg width="27" height="27" viewBox="0 0 27 27" fill="none" xmlns="http://www.w3.org/2000/svg">
<path d="M7.17806 23.5665C8.94005 24.5827 10.9844 25.1641 13.1646 25.1641C19.792 25.1641 25.165 19.7915 25.165 13.1641C25.165 6.53666 19.7925 1.16406 13.165 1.16406C6.53762 1.16406 1.16504 6.53666 1.16504 13.1641C1.16504 15.3443 1.74643 17.3886 2.76263 19.1506L2.76657 19.1574C2.86434 19.327 2.91365 19.4125 2.93598 19.4933C2.95705 19.5695 2.96293 19.638 2.95754 19.7168C2.95174 19.8016 2.92318 19.8895 2.86462 20.0652L1.83952 23.1405L1.83823 23.1445C1.62194 23.7934 1.5138 24.1178 1.59088 24.334C1.6581 24.5224 1.80729 24.6712 1.99577 24.7384C2.21146 24.8153 2.53443 24.7077 3.18043 24.4923L3.18848 24.4894L6.26377 23.4643C6.43887 23.4059 6.52789 23.3763 6.61249 23.3705C6.69137 23.3651 6.75941 23.3722 6.83561 23.3933C6.91662 23.4157 7.00215 23.465 7.17255 23.5633L7.17806 23.5665Z" stroke="white" stroke-width="2.33" stroke-linecap="round" stroke-linejoin="round"/>
</svg>
