<svg width="28" height="28" viewBox="0 0 28 28" fill="none" xmlns="http://www.w3.org/2000/svg">
<path d="M17.4992 2.33398H6.99972C6.38091 2.33398 5.78745 2.5798 5.34989 3.01737C4.91232 3.45493 4.6665 4.04839 4.6665 4.6672V23.3329C4.6665 23.9518 4.91232 24.5452 5.34989 24.9828C5.78745 25.4203 6.38091 25.6662 6.99972 25.6662H20.999C21.6178 25.6662 22.2113 25.4203 22.6489 24.9828C23.0864 24.5452 23.3322 23.9518 23.3322 23.3329V8.16703L17.4992 2.33398Z" stroke="#155DFC" stroke-width="2.33322" stroke-linecap="round" stroke-linejoin="round"/>
<path d="M16.3325 2.33398V7.00042C16.3325 7.61923 16.5783 8.21269 17.0159 8.65025C17.4535 9.08782 18.0469 9.33364 18.6657 9.33364H23.3322" stroke="#155DFC" stroke-width="2.33322" stroke-linecap="round" stroke-linejoin="round"/>
<path d="M11.6662 10.5H9.33301" stroke="#155DFC" stroke-width="2.33322" stroke-linecap="round" stroke-linejoin="round"/>
<path d="M18.6659 15.166H9.33301" stroke="#155DFC" stroke-width="2.33322" stroke-linecap="round" stroke-linejoin="round"/>
<path d="M18.6659 19.832H9.33301" stroke="#155DFC" stroke-width="2.33322" stroke-linecap="round" stroke-linejoin="round"/>
</svg>
