<svg width="19" height="19" viewBox="0 0 19 19" fill="none" xmlns="http://www.w3.org/2000/svg">
<path d="M17.4034 13.2651V15.7647C17.4044 15.9967 17.3568 16.2264 17.2639 16.439C17.1709 16.6516 17.0346 16.8425 16.8636 16.9994C16.6926 17.1562 16.4907 17.2757 16.2709 17.35C16.0511 17.4243 15.8182 17.4519 15.5871 17.4311C13.0233 17.1525 10.5605 16.2764 8.39674 14.8732C6.38362 13.594 4.67686 11.8872 3.39764 9.8741C1.98954 7.70049 1.11326 5.22577 0.839771 2.6504C0.81895 2.42 0.846332 2.18779 0.920173 1.96855C0.994014 1.74931 1.1127 1.54784 1.26866 1.37698C1.42463 1.20613 1.61447 1.06961 1.82608 0.976141C2.0377 0.882669 2.26646 0.834283 2.4978 0.834065H4.99735C5.4017 0.830086 5.7937 0.973272 6.10029 1.23694C6.40687 1.5006 6.60712 1.86675 6.66372 2.26714C6.76922 3.06705 6.96487 3.85246 7.24694 4.60838C7.35904 4.9066 7.3833 5.2307 7.31685 5.54228C7.2504 5.85386 7.09602 6.13986 6.87201 6.3664L5.81387 7.42454C6.99995 9.51045 8.72705 11.2376 10.813 12.4236L11.8711 11.3655C12.0976 11.1415 12.3836 10.9871 12.6952 10.9207C13.0068 10.8542 13.3309 10.8785 13.6291 10.9906C14.385 11.2726 15.1705 11.4683 15.9704 11.5738C16.3751 11.6309 16.7447 11.8347 17.009 12.1466C17.2732 12.4584 17.4136 12.8565 17.4034 13.2651Z" stroke="#008236" stroke-width="1.66637" stroke-linecap="round" stroke-linejoin="round"/>
</svg>
