<svg width="28" height="28" viewBox="0 0 28 28" fill="none" xmlns="http://www.w3.org/2000/svg">
<path d="M8.1665 20.9987V13.9991C8.1665 12.452 8.78105 10.9684 9.87496 9.87447C10.9689 8.78057 12.4525 8.16602 13.9995 8.16602C15.5466 8.16602 17.0302 8.78057 18.1241 9.87447C19.218 10.9684 19.8326 12.452 19.8326 13.9991V20.9987" stroke="white" stroke-width="2.33322" stroke-linecap="round" stroke-linejoin="round"/>
<path d="M5.83301 24.4979C5.83301 24.8073 5.95592 25.104 6.1747 25.3228C6.39348 25.5416 6.69021 25.6645 6.99962 25.6645H20.9989C21.3083 25.6645 21.6051 25.5416 21.8238 25.3228C22.0426 25.104 22.1655 24.8073 22.1655 24.4979V23.3313C22.1655 22.7125 21.9197 22.119 21.4821 21.6814C21.0446 21.2439 20.4511 20.998 19.8323 20.998H8.16623C7.54742 20.998 6.95395 21.2439 6.51639 21.6814C6.07883 22.119 5.83301 22.7125 5.83301 23.3313V24.4979Z" stroke="white" stroke-width="2.33322" stroke-linecap="round" stroke-linejoin="round"/>
<path d="M24.499 14H25.6656" stroke="white" stroke-width="2.33322" stroke-linecap="round" stroke-linejoin="round"/>
<path d="M21.5823 5.25L20.999 5.8333" stroke="white" stroke-width="2.33322" stroke-linecap="round" stroke-linejoin="round"/>
<path d="M2.33301 14H3.49962" stroke="white" stroke-width="2.33322" stroke-linecap="round" stroke-linejoin="round"/>
<path d="M13.9995 2.33398V3.50059" stroke="white" stroke-width="2.33322" stroke-linecap="round" stroke-linejoin="round"/>
<path d="M5.75 5.75L6.57479 6.57479" stroke="white" stroke-width="2.33322" stroke-linecap="round" stroke-linejoin="round"/>
<path d="M13.9995 14V20.9997" stroke="white" stroke-width="2.33322" stroke-linecap="round" stroke-linejoin="round"/>
</svg>
