<svg width="28" height="28" viewBox="0 0 28 28" fill="none" xmlns="http://www.w3.org/2000/svg">
<path d="M18.6655 18.6649L22.1654 9.33203L25.6652 18.6649C24.6502 19.4232 23.4253 19.8315 22.1654 19.8315C20.9054 19.8315 19.6805 19.4232 18.6655 18.6649Z" stroke="#155DFC" stroke-width="2.33322" stroke-linecap="round" stroke-linejoin="round"/>
<path d="M2.33301 18.6649L5.83283 9.33203L9.33266 18.6649C8.31771 19.4232 7.09277 19.8315 5.83283 19.8315C4.5729 19.8315 3.34796 19.4232 2.33301 18.6649Z" stroke="#155DFC" stroke-width="2.33322" stroke-linecap="round" stroke-linejoin="round"/>
<path d="M8.1665 24.498H19.8326" stroke="#155DFC" stroke-width="2.33322" stroke-linecap="round" stroke-linejoin="round"/>
<path d="M13.9995 3.5V24.499" stroke="#155DFC" stroke-width="2.33322" stroke-linecap="round" stroke-linejoin="round"/>
<path d="M3.5 8.1672H5.83322C8.16644 8.1672 11.6663 7.00059 13.9995 5.83398C16.3327 7.00059 19.8325 8.1672 22.1657 8.1672H24.499" stroke="#155DFC" stroke-width="2.33322" stroke-linecap="round" stroke-linejoin="round"/>
</svg>
