<svg width="28" height="28" viewBox="0 0 28 28" fill="none" xmlns="http://www.w3.org/2000/svg">
<path d="M18.6655 24.4997V22.1664C18.6655 20.9288 18.1739 19.7419 17.2988 18.8668C16.4236 17.9916 15.2367 17.5 13.9991 17.5H6.99944C5.76183 17.5 4.5749 17.9916 3.69978 18.8668C2.82465 19.7419 2.33301 20.9288 2.33301 22.1664V24.4997" stroke="#112250" stroke-width="2.33322" stroke-linecap="round" stroke-linejoin="round"/>
<path d="M10.4994 12.8329C13.0766 12.8329 15.1659 10.7436 15.1659 8.16644C15.1659 5.58923 13.0766 3.5 10.4994 3.5C7.92224 3.5 5.83301 5.58923 5.83301 8.16644C5.83301 10.7436 7.92224 12.8329 10.4994 12.8329Z" stroke="#112250" stroke-width="2.33322" stroke-linecap="round" stroke-linejoin="round"/>
<path d="M25.6654 24.4984V22.1652C25.6646 21.1312 25.3205 20.1268 24.687 19.3097C24.0535 18.4925 23.1666 17.9089 22.1655 17.6504" stroke="#112250" stroke-width="2.33322" stroke-linecap="round" stroke-linejoin="round"/>
<path d="M18.6655 3.65234C19.6693 3.90935 20.559 4.49312 21.1943 5.31162C21.8297 6.13013 22.1745 7.13681 22.1745 8.17295C22.1745 9.2091 21.8297 10.2158 21.1943 11.0343C20.559 11.8528 19.6693 12.4366 18.6655 12.6936" stroke="#112250" stroke-width="2.33322" stroke-linecap="round" stroke-linejoin="round"/>
</svg>
