<svg width="14" height="15" viewBox="0 0 14 15" fill="none" xmlns="http://www.w3.org/2000/svg">
<path d="M1.33437 8.66078C1.20833 8.66121 1.08474 8.62587 0.977986 8.55886C0.871227 8.49185 0.785674 8.39592 0.731265 8.28222C0.676857 8.16852 0.655827 8.04171 0.670618 7.91654C0.68541 7.79136 0.735415 7.67295 0.814826 7.57506L7.40908 0.780985C7.45854 0.723889 7.52595 0.685306 7.60023 0.671569C7.67452 0.657832 7.75126 0.669757 7.81788 0.705387C7.88449 0.741017 7.93701 0.798235 7.96682 0.867648C7.99662 0.937062 8.00195 1.01455 7.98191 1.08738L6.70303 5.09722C6.66532 5.19815 6.65265 5.30672 6.66612 5.41362C6.67959 5.52052 6.71879 5.62255 6.78035 5.71097C6.84192 5.79939 6.92402 5.87156 7.0196 5.92128C7.11519 5.971 7.22141 5.99679 7.32915 5.99644H11.9918C12.1178 5.99601 12.2414 6.03135 12.3481 6.09837C12.4549 6.16538 12.5405 6.26131 12.5949 6.37501C12.6493 6.4887 12.6703 6.61551 12.6555 6.74069C12.6407 6.86586 12.5907 6.98427 12.5113 7.08216L5.91705 13.8762C5.86758 13.9333 5.80017 13.9719 5.72589 13.9857C5.65161 13.9994 5.57486 13.9875 5.50825 13.9518C5.44164 13.9162 5.38912 13.859 5.35931 13.7896C5.3295 13.7202 5.32418 13.6427 5.34421 13.5698L6.6231 9.56C6.66081 9.45907 6.67347 9.3505 6.66 9.24361C6.64654 9.13671 6.60734 9.03467 6.54577 8.94625C6.4842 8.85783 6.40211 8.78567 6.30652 8.73595C6.21094 8.68622 6.10472 8.66043 5.99698 8.66078H1.33437Z" stroke="#FFA2A2" stroke-width="1.33217" stroke-linecap="round" stroke-linejoin="round"/>
</svg>
